<?xml version="1.0" encoding="UTF-8"?>
<svg id="_图层_2" data-name="图层 2" xmlns="http://www.w3.org/2000/svg" viewBox="0 0 548.42 112.81">
  <defs>
    <style>
      .cls-1 {
        fill: #242a74;
        stroke-width: 0px;
      }
    </style>
  </defs>
  <g id="_图层_1-2" data-name="图层 1">
    <g>
      <path class="cls-1" d="M0,8.21V3.78L4.9,0v8.21H0Z"/>
      <path class="cls-1" d="M10.37,29.41V3.78h5v21.17h11.63v4.46H10.37Z"/>
      <path class="cls-1" d="M30.64,7.45v-3.82h4.79v3.82h-4.79ZM30.71,29.41V10.65h4.68v18.75h-4.68Z"/>
      <path class="cls-1" d="M48.71,29.41h-3.67l-6.91-18.75h4.93l3.82,11.59,3.78-11.59h4.93l-6.88,18.75Z"/>
      <path class="cls-1" d="M61.67,21.49c0,2.41,1.48,4.18,4.1,4.18,2.05,0,3.06-.58,4.25-1.76l2.84,2.77c-1.91,1.91-3.74,2.95-7.13,2.95-4.43,0-8.67-2.02-8.67-9.61,0-6.12,3.31-9.57,8.17-9.57,5.22,0,8.17,3.82,8.17,8.96v2.09h-11.73ZM68.36,16.27c-.5-1.12-1.55-1.94-3.13-1.94s-2.63.83-3.13,1.94c-.29.68-.4,1.19-.43,2.02h7.13c-.04-.83-.14-1.33-.43-2.02Z"/>
      <path class="cls-1" d="M87.91,15.77c-.72-.72-1.33-1.12-2.48-1.12-1.44,0-3.02,1.08-3.02,3.46v11.3h-4.68V10.65h4.57v1.8c.9-1.08,2.7-2.02,4.71-2.02,1.84,0,3.13.47,4.43,1.76l-3.53,3.56Z"/>
      <path class="cls-1" d="M107.89,27.93c-1.04,1.04-2.74,1.69-4.57,1.69-1.98,0-3.38-.54-4.68-1.98v1.76h-4.54V3.78h4.68v8.53c1.22-1.37,2.63-1.87,4.54-1.87s3.53.65,4.57,1.69c1.87,1.87,1.91,5.08,1.91,7.88s-.04,6.05-1.91,7.92ZM101.95,14.65c-2.81,0-3.17,2.3-3.17,5.36s.36,5.4,3.17,5.4,3.17-2.34,3.17-5.4-.36-5.36-3.17-5.36Z"/>
      <path class="cls-1" d="M114.19,7.45v-3.82h4.79v3.82h-4.79ZM114.26,29.41V10.65h4.68v18.75h-4.68Z"/>
      <path class="cls-1" d="M134.35,15.77c-.72-.72-1.33-1.12-2.48-1.12-1.44,0-3.02,1.08-3.02,3.46v11.3h-4.68V10.65h4.57v1.8c.9-1.08,2.7-2.02,4.71-2.02,1.84,0,3.13.47,4.43,1.76l-3.53,3.56Z"/>
      <path class="cls-1" d="M149.79,29.41v-1.76c-1.3,1.44-2.66,1.98-4.64,1.98-1.84,0-3.56-.65-4.61-1.69-1.87-1.87-1.91-5.11-1.91-7.92s.04-6.01,1.91-7.88c1.04-1.04,2.74-1.69,4.57-1.69s3.35.5,4.57,1.87V3.78h4.68v25.63h-4.57ZM146.48,14.65c-2.81,0-3.17,2.3-3.17,5.36s.36,5.4,3.17,5.4,3.2-2.34,3.2-5.4-.4-5.36-3.2-5.36Z"/>
      <path class="cls-1" d="M180.93,27.32c-1.15,1.22-3.06,2.3-5.83,2.3s-4.64-1.08-5.8-2.3c-1.69-1.76-2.12-3.89-2.12-7.31s.43-5.51,2.12-7.27c1.15-1.22,3.02-2.3,5.8-2.3s4.68,1.08,5.83,2.3c1.69,1.76,2.12,3.89,2.12,7.27s-.43,5.54-2.12,7.31ZM177.3,15.48c-.54-.54-1.26-.83-2.2-.83s-1.62.29-2.16.83c-.97.97-1.08,2.59-1.08,4.54s.11,3.6,1.08,4.57c.54.54,1.22.83,2.16.83s1.66-.29,2.2-.83c.97-.97,1.08-2.63,1.08-4.57s-.11-3.56-1.08-4.54Z"/>
      <path class="cls-1" d="M192.78,14.76v14.65h-4.68v-14.65h-1.94v-3.56h1.94v-2.34c0-2.66,1.66-5.36,5.47-5.36h2.66v3.96h-1.84c-1.12,0-1.62.61-1.62,1.69v2.05h3.46v3.56h-3.46Z"/>
      <path class="cls-1" d="M215.6,29.62c-3.89,0-6.84-.83-9.36-3.38l3.24-3.24c1.62,1.62,3.82,2.16,6.19,2.16,2.95,0,4.54-1.12,4.54-3.17,0-.9-.25-1.66-.79-2.16-.5-.47-1.08-.72-2.27-.9l-3.1-.43c-2.2-.32-3.82-1.01-4.97-2.12-1.22-1.22-1.83-2.88-1.83-5.04,0-4.57,3.38-7.77,8.93-7.77,3.53,0,6.08.86,8.28,2.99l-3.17,3.13c-1.62-1.55-3.56-1.76-5.25-1.76-2.66,0-3.96,1.48-3.96,3.24,0,.65.22,1.33.76,1.84.5.47,1.33.86,2.38,1.01l3.02.43c2.34.32,3.81.97,4.89,1.98,1.37,1.3,1.98,3.17,1.98,5.44,0,4.97-4.14,7.77-9.5,7.77Z"/>
      <path class="cls-1" d="M240.26,29.41v-1.73c-1.22,1.3-2.95,1.94-4.68,1.94-1.87,0-3.38-.61-4.43-1.66-1.51-1.51-1.91-3.28-1.91-5.33v-11.99h4.68v11.34c0,2.56,1.62,3.42,3.1,3.42s3.13-.86,3.13-3.42v-11.34h4.68v18.75h-4.57Z"/>
      <path class="cls-1" d="M248.79,29.41v-3.56l8.31-10.98h-7.85v-4.21h13.82v3.56l-8.42,10.98h8.42v4.21h-14.29Z"/>
      <path class="cls-1" d="M278.06,29.41v-11.45c0-2.48-1.58-3.31-3.06-3.31s-3.02.86-3.02,3.31v11.45h-4.68V3.78h4.68v8.6c1.26-1.3,2.84-1.94,4.5-1.94,4.1,0,6.26,2.88,6.26,6.84v12.13h-4.68Z"/>
      <path class="cls-1" d="M300.74,27.32c-1.15,1.22-3.06,2.3-5.83,2.3s-4.64-1.08-5.8-2.3c-1.69-1.76-2.12-3.89-2.12-7.31s.43-5.51,2.12-7.27c1.15-1.22,3.02-2.3,5.8-2.3s4.68,1.08,5.83,2.3c1.69,1.76,2.12,3.89,2.12,7.27s-.43,5.54-2.12,7.31ZM297.1,15.48c-.54-.54-1.26-.83-2.2-.83s-1.62.29-2.16.83c-.97.97-1.08,2.59-1.08,4.54s.11,3.6,1.08,4.57c.54.54,1.22.83,2.16.83s1.66-.29,2.2-.83c.97-.97,1.08-2.63,1.08-4.57s-.11-3.56-1.08-4.54Z"/>
      <path class="cls-1" d="M318.13,29.41v-1.73c-1.22,1.3-2.95,1.94-4.68,1.94-1.87,0-3.38-.61-4.43-1.66-1.51-1.51-1.91-3.28-1.91-5.33v-11.99h4.68v11.34c0,2.56,1.62,3.42,3.1,3.42s3.13-.86,3.13-3.42v-11.34h4.68v18.75h-4.57Z"/>
      <path class="cls-1" d="M327.78,11.95V3.78h4.9v4.46l-4.9,3.71Z"/>
      <path class="cls-1" d="M361.65,29.41l-10.15-15.73v15.73h-5V3.78h4.46l10.15,15.69V3.78h5v25.63h-4.46Z"/>
      <path class="cls-1" d="M381.34,29.41v-1.62c-1.26,1.26-2.45,1.8-4.61,1.8s-3.67-.54-4.79-1.66c-1.01-1.04-1.55-2.56-1.55-4.21,0-2.99,2.05-5.44,6.41-5.44h4.43v-.94c0-2.05-1.01-2.95-3.49-2.95-1.8,0-2.63.43-3.6,1.55l-2.99-2.92c1.84-2.02,3.63-2.59,6.77-2.59,5.25,0,7.99,2.23,7.99,6.62v12.35h-4.57ZM381.23,21.49h-3.71c-1.69,0-2.63.79-2.63,2.12s.86,2.16,2.7,2.16c1.29,0,2.12-.11,2.95-.9.5-.47.68-1.22.68-2.38v-1.01Z"/>
      <path class="cls-1" d="M401.14,15.77c-.72-.72-1.33-1.12-2.48-1.12-1.44,0-3.02,1.08-3.02,3.46v11.3h-4.68V10.65h4.57v1.8c.9-1.08,2.7-2.02,4.71-2.02,1.84,0,3.13.47,4.43,1.76l-3.53,3.56Z"/>
      <path class="cls-1" d="M417.52,15.77c-.72-.72-1.33-1.12-2.48-1.12-1.44,0-3.02,1.08-3.02,3.46v11.3h-4.68V10.65h4.57v1.8c.9-1.08,2.7-2.02,4.71-2.02,1.84,0,3.13.47,4.43,1.76l-3.53,3.56Z"/>
      <path class="cls-1" d="M435.56,27.32c-1.15,1.22-3.06,2.3-5.83,2.3s-4.64-1.08-5.8-2.3c-1.69-1.76-2.12-3.89-2.12-7.31s.43-5.51,2.12-7.27c1.15-1.22,3.02-2.3,5.8-2.3s4.68,1.08,5.83,2.3c1.69,1.76,2.12,3.89,2.12,7.27s-.43,5.54-2.12,7.31ZM431.92,15.48c-.54-.54-1.26-.83-2.2-.83s-1.62.29-2.16.83c-.97.97-1.08,2.59-1.08,4.54s.11,3.6,1.08,4.57c.54.54,1.22.83,2.16.83s1.66-.29,2.2-.83c.97-.97,1.08-2.63,1.08-4.57s-.11-3.56-1.08-4.54Z"/>
      <path class="cls-1" d="M460.68,29.41h-3.85l-3.92-11.77-3.92,11.77h-3.85l-5.76-18.75h4.97l3.02,11.59,3.82-11.59h3.42l3.85,11.59,3.02-11.59h4.93l-5.72,18.75Z"/>
      <path class="cls-1" d="M488.62,29.41h-10.73V3.78h10.29c5,0,7.92,2.81,7.92,7.2,0,2.84-1.87,4.68-3.17,5.29,1.55.72,3.53,2.34,3.53,5.76,0,4.79-3.28,7.38-7.85,7.38ZM487.79,8.24h-4.89v5.9h4.89c2.12,0,3.31-1.19,3.31-2.95s-1.19-2.95-3.31-2.95ZM488.12,18.65h-5.22v6.3h5.22c2.27,0,3.35-1.44,3.35-3.17s-1.08-3.13-3.35-3.13Z"/>
      <path class="cls-1" d="M514.18,27.32c-1.15,1.22-3.06,2.3-5.83,2.3s-4.64-1.08-5.8-2.3c-1.69-1.76-2.12-3.89-2.12-7.31s.43-5.51,2.12-7.27c1.15-1.22,3.02-2.3,5.8-2.3s4.68,1.08,5.83,2.3c1.69,1.76,2.12,3.89,2.12,7.27s-.43,5.54-2.12,7.31ZM510.54,15.48c-.54-.54-1.26-.83-2.2-.83s-1.62.29-2.16.83c-.97.97-1.08,2.59-1.08,4.54s.11,3.6,1.08,4.57c.54.54,1.22.83,2.16.83s1.66-.29,2.2-.83c.97-.97,1.08-2.63,1.08-4.57s-.11-3.56-1.08-4.54Z"/>
      <path class="cls-1" d="M530.38,29.41v-1.62c-1.26,1.26-2.45,1.8-4.61,1.8s-3.67-.54-4.79-1.66c-1.01-1.04-1.55-2.56-1.55-4.21,0-2.99,2.05-5.44,6.41-5.44h4.43v-.94c0-2.05-1.01-2.95-3.49-2.95-1.8,0-2.63.43-3.6,1.55l-2.99-2.92c1.84-2.02,3.64-2.59,6.77-2.59,5.26,0,7.99,2.23,7.99,6.62v12.35h-4.57ZM530.27,21.49h-3.71c-1.69,0-2.63.79-2.63,2.12s.86,2.16,2.7,2.16c1.3,0,2.12-.11,2.95-.9.5-.47.68-1.22.68-2.38v-1.01Z"/>
      <path class="cls-1" d="M545.86,29.41c-3.82,0-5.44-2.7-5.44-5.36v-9.29h-1.98v-3.56h1.98v-5.54h4.68v5.54h3.31v3.56h-3.31v9c0,1.08.5,1.69,1.62,1.69h1.69v3.96h-2.56Z"/>
      <path class="cls-1" d="M145.01,40.04c.69-.74,1.51-1.24,2.47-1.51v1.37c-.56.24-1,.61-1.32,1.1-.35.5-.53,1.05-.53,1.66h1.8v3.89h-3.48v-3.77c0-1.04.35-1.95,1.06-2.74ZM150.65,40.04c.69-.74,1.51-1.24,2.47-1.51v1.37c-.56.24-1,.61-1.32,1.1-.35.5-.53,1.05-.53,1.66h1.8v3.89h-3.48v-3.77c0-1.04.35-1.95,1.06-2.74Z"/>
      <path class="cls-1" d="M160.85,52.62c.67-.88,1.3-1.8,1.9-2.76l2.16,1.42c-1.15,1.84-2.45,3.56-3.89,5.16l-1.92-1.68c.62-.67,1.21-1.38,1.75-2.14ZM164.59,41.17v-1.99h2.69v1.99h5.28v-1.99h2.66v1.99h5.33v2.45h-5.33v1.58h-2.66v-1.58h-5.28v1.51h-2.69v-1.51h-5.38v-2.45h5.38ZM162.93,56.98c.61-.5,1.16-1.04,1.66-1.63.61-.77,1.06-1.62,1.37-2.57.32-1.07.53-2.18.62-3.31h-6.31v-2.42h6.43c.02-.54.03-1.1.05-1.66h2.64l-.05,1.66h7.39l-.26,4.27,1.22-1.01c1.26,1.39,2.51,2.8,3.74,4.22l-2.02,1.75c-1.01-1.22-2.03-2.42-3.07-3.6l-.31,4.37c-.05.56-.18,1.1-.38,1.61-.14.3-.34.57-.58.79-.37.3-.78.51-1.25.62-.62.13-1.25.19-1.87.19h-3.22l-.48-2.45h2.93c.37.02.74,0,1.13-.07.24-.03.46-.13.67-.29.13-.13.22-.28.29-.46.1-.32.16-.65.19-.98.19-2.18.35-4.36.48-6.55h-4.73c-.08,1.41-.31,2.78-.7,4.13-.27.85-.63,1.66-1.08,2.42-.64,1.01-1.43,1.89-2.38,2.64-1.14.93-2.34,1.76-3.62,2.5l-1.82-2.09c1.15-.61,2.26-1.3,3.31-2.09Z"/>
      <path class="cls-1" d="M184.82,44.62l2.28.5c-.58,2.5-1.3,4.94-2.18,7.32l-2.23-.82c.94-2.26,1.66-4.59,2.14-7.01ZM185.45,56.72c.59-.83,1.05-1.74,1.39-2.71.24-.82.42-1.64.53-2.47.16-1.49.24-2.98.24-4.46v-7.66h2.52v5.98l1.51-.74c.82,1.71,1.6,3.42,2.35,5.14v-9.79h2.57v5.47l1.68-.82c.82,1.71,1.62,3.42,2.4,5.14v-10.37h2.57v20.83h-2.57v-8.98l-1.68.74c-.75-1.82-1.55-3.63-2.4-5.42v13.22h-2.57v-8.52l-1.66.77c-.7-1.71-1.44-3.41-2.21-5.09v.19c0,1.66-.08,3.31-.24,4.94-.14,1.26-.42,2.49-.84,3.67-.32.8-.71,1.56-1.15,2.28-.72,1.01-1.54,1.95-2.45,2.83l-2.35-1.58c.85-.8,1.63-1.66,2.35-2.59Z"/>
      <path class="cls-1" d="M218.06,39.61l.48,2.42c-1.34.27-2.69.51-4.03.72v2.86h4.34v2.5h-4.34v2.28l.98-1.01c1.31,1.26,2.62,2.53,3.91,3.79l-1.87,1.94c-.99-1.09-2-2.15-3.02-3.19v8.66h-2.59v-8.28c-1.05,1.71-2.28,3.29-3.67,4.73l-1.68-2.21c2.03-1.94,3.68-4.18,4.94-6.72h-4.06v-2.5h4.46v-2.47c-1.29.19-2.59.35-3.89.48l-.31-2.45c3.47-.3,6.92-.82,10.34-1.56ZM222.46,41.46v13.9h-2.64v-13.9h2.64ZM223.32,57.94c.29.02.58,0,.86-.07.16-.03.3-.09.43-.17.14-.13.25-.29.31-.48.06-.24.1-.5.1-.77v-16.97h2.64v17.88c0,.53-.07,1.04-.21,1.54-.14.38-.38.7-.7.96-.27.19-.58.34-.91.43-.61.13-1.21.19-1.82.19h-3.05l-.55-2.54h2.9Z"/>
      <path class="cls-1" d="M231.7,41.12l2.13.14-.19,2.26h1.15v-4.32h2.14v4.32h1.92v2.4c1.38-2.14,2.43-4.45,3.17-6.91l2.23.6c-.34,1.01-.7,1.99-1.1,2.95h8.78c-.18,4.7-.36,9.39-.55,14.06-.05.56-.16,1.1-.34,1.63-.13.3-.3.58-.53.84-.3.3-.67.53-1.1.67-.53.14-1.06.22-1.61.22h-2.88l-.46-2.47h2.64c.34.02.67-.02,1.01-.1.24-.05.45-.16.62-.34.11-.16.19-.33.24-.5.1-.34.15-.68.17-1.03.16-3.5.32-7.02.48-10.56h-.89c-.22,1.63-.54,3.25-.94,4.85-.37,1.41-.86,2.77-1.49,4.08-.67,1.31-1.47,2.54-2.4,3.67-.82.93-1.67,1.82-2.57,2.69l-1.68-1.87c.82-.74,1.59-1.52,2.33-2.35.86-1.02,1.62-2.13,2.26-3.31.61-1.17,1.1-2.38,1.49-3.65.38-1.34.7-2.71.94-4.1h-1.25c-.24,1.15-.54,2.29-.91,3.41-.37,1.02-.82,2.01-1.34,2.95-1.04,1.78-2.29,3.38-3.77,4.82l-1.63-1.92c1.31-1.17,2.44-2.5,3.38-3.98,1.01-1.63,1.72-3.39,2.14-5.28h-1.3c-.66,1.26-1.39,2.46-2.21,3.6l-1.75-1.54c.25-.34.51-.69.77-1.06h-1.87v3.84l2.18-.86.14,1.49.12.98-2.45.98v8.11h-2.28v-7.2c-1.07.43-2.14.86-3.19,1.3l-.7-2.54c1.3-.42,2.59-.88,3.89-1.39v-4.7h-1.25c-.16,1.39-.37,2.76-.62,4.1l-2.23-.36c.58-2.83.96-5.7,1.15-8.62Z"/>
      <path class="cls-1" d="M271.15,54.46v2.38h-15.84v-2.38h15.84ZM262.68,41.05l.77-2.14,2.83.36c-.18.61-.37,1.2-.58,1.78h7.87c-.13,1.76-.26,3.5-.38,5.23-.03.51-.14,1.01-.31,1.49-.11.27-.27.51-.48.72-.32.27-.69.45-1.1.53-.58.11-1.15.16-1.73.14h-1.66l-.43-2.18h1.37c.27.02.54,0,.82-.05.14-.03.28-.08.41-.14.13-.1.22-.22.29-.38.08-.22.13-.45.14-.67.05-.77.13-1.54.24-2.3h-7.1l3.89,2.76-1.58,1.94c-1.28-1.02-2.59-1.99-3.94-2.9l1.3-1.8h-2.64v6.77h15.14c-.14,2.27-.29,4.54-.43,6.79-.05.62-.18,1.21-.38,1.75-.14.34-.34.62-.6.86-.4.32-.85.54-1.34.67-.67.13-1.35.19-2.04.19h-3.67l-.5-2.4h3.36c.42.02.84,0,1.27-.07.21-.05.41-.12.6-.22.19-.11.34-.28.46-.5.1-.27.15-.55.17-.84.1-1.31.19-2.64.29-3.98h-14.98v-11.4h4.68Z"/>
      <path class="cls-1" d="M282.93,50.55h-3.82v-2.28h21.53v2.28h-14.74l-.36,1.68h12.07c-.13,1.54-.26,3.06-.41,4.58-.06.66-.2,1.28-.41,1.87-.16.34-.37.64-.62.91-.43.32-.91.53-1.44.62-.77.13-1.54.19-2.33.19h-5.09l-.53-2.52h4.85c.45.02.9,0,1.34-.05.27-.03.53-.12.77-.26.13-.11.23-.26.31-.43.1-.29.16-.6.19-.94.1-.58.17-1.16.22-1.75h-12.41l.86-3.91ZM297.86,39.99v6.86h-16.01v-6.86h16.01ZM284.66,44.6h10.42v-2.35h-10.42v2.35Z"/>
      <path class="cls-1" d="M307.89,44.1c.35-.5.54-1.06.55-1.68h-1.78v-3.89h3.48v3.77c-.02,1.06-.38,1.98-1.1,2.76-.67.74-1.49,1.23-2.45,1.49v-1.37c.54-.22.98-.58,1.3-1.08ZM313.54,44.1c.35-.5.54-1.06.55-1.68h-1.78v-3.89h3.48v3.77c-.02,1.06-.38,1.98-1.1,2.76-.67.74-1.49,1.23-2.45,1.49v-1.37c.54-.22.98-.58,1.3-1.08Z"/>
      <path class="cls-1" d="M329.9,55.23v-5.95h-2.81v-2.42h5.33v8.18c.59.85,1.36,1.48,2.3,1.9.54.22,1.11.37,1.7.43.75.1,1.5.14,2.26.12h10.01l-.31,2.47h-10.1c-.82,0-1.62-.04-2.42-.12-.66-.08-1.29-.23-1.9-.46-.43-.18-.83-.39-1.2-.65-.56-.38-1.06-.84-1.51-1.37-1.07.98-2.13,1.96-3.17,2.95l-1.39-2.45,3.22-2.64ZM330,39.27c1.23,1.41,2.45,2.84,3.65,4.3l-2.04,1.82c-1.2-1.46-2.39-2.92-3.58-4.39l1.97-1.73ZM335.28,52.26c.96-1.34,1.81-2.77,2.57-4.27h-4.42v-2.38h15.07v2.38h-7.66c-.53,1.01-1.09,1.99-1.68,2.95-.42.67-.87,1.31-1.37,1.92l6.02-.36c-.51-.88-1.02-1.77-1.54-2.66l2.21-1.2c1.3,2.19,2.59,4.38,3.89,6.58l-2.28,1.37-.94-1.68c-2.94.22-5.89.42-8.83.58-.54.03-1.08.09-1.61.17l-.7-2.33c.51-.22.93-.58,1.25-1.06ZM347.25,40.3v2.4h-12.55v-2.4h12.55Z"/>
      <path class="cls-1" d="M352.25,44.6c1.55,1.09,3.1,2.19,4.63,3.31l-1.54,2.21c-1.54-1.14-3.07-2.26-4.61-3.38l1.51-2.14ZM353.88,60.34l-2.64-.89c1.01-2.72,1.99-5.46,2.95-8.21l1.22.43,1.34.46c-.91,2.77-1.87,5.5-2.88,8.21ZM353.54,39.39c1.47,1.04,2.94,2.1,4.39,3.17l-1.51,2.18c-1.44-1.12-2.9-2.21-4.39-3.26l1.51-2.09ZM366.41,57.97c.32.02.65,0,.98-.05.21-.03.39-.12.55-.26.11-.13.18-.26.22-.41.06-.3.1-.61.1-.91v-13.3h-10.22v-2.47h14.62v2.47h-1.75v14.02c0,.59-.07,1.17-.22,1.73-.13.42-.36.77-.7,1.06-.29.21-.61.36-.96.46-.64.13-1.29.19-1.94.19h-3.17l-.48-2.52h2.98ZM366.14,45.42v9.79h-7.87v-9.79h7.87ZM360.7,52.86h3.1v-5.09h-3.1v5.09Z"/>
      <path class="cls-1" d="M375.62,57.73c.26-.61.46-1.24.6-1.9.11-.58.2-1.15.26-1.73.1-1.02.15-2.05.17-3.07h-1.63v-2.28h1.66v-7.68h2.3c.19-.7.36-1.42.5-2.14l2.3.46-.43,1.68h3.36v6.82c.4-.38.77-.8,1.1-1.25.19-.27.35-.57.48-.89.16-.42.27-.85.34-1.3.05-.58.07-1.16.07-1.75v-2.5h7.8v5.06c-.02.18,0,.34.05.48.03.13.1.23.19.31.27.14.57.2.89.17h1.06l-.22,2.4h-1.9c-.4.02-.79-.02-1.18-.1-.29-.08-.54-.23-.77-.46-.22-.24-.37-.53-.43-.86-.06-.34-.09-.68-.07-1.03v-3.65h-3.02v1.25c0,.58-.04,1.14-.12,1.7-.08.5-.22.98-.41,1.44-.24.51-.54.99-.91,1.44-.34.43-.7.83-1.08,1.2l-1.87-1.39v9.67c0,.43-.06.86-.19,1.27-.1.24-.22.46-.38.65-.27.24-.58.4-.91.48-.48.11-.95.17-1.42.17h-2.33l-.48-2.35h2.09c.19.02.38,0,.58-.02.18-.02.34-.07.48-.17.1-.08.17-.18.22-.29.03-.16.05-.32.05-.48v-6.07h-3.41c-.02,1.22-.07,2.42-.17,3.6-.06.67-.16,1.34-.29,1.99-.3,1.47-.83,2.86-1.58,4.18l-2.28-1.15c.34-.64.65-1.28.94-1.92ZM379.03,48.75h3.38v-5.47h-3.38v5.47ZM380.69,51.66l1.7,3.14-1.7.84c-.5-1.1-1.03-2.18-1.61-3.24l1.61-.74ZM380.66,43.95c.61,1.06,1.19,2.12,1.75,3.19l-1.66.77c-.51-1.09-1.06-2.16-1.63-3.22l1.54-.74ZM395.47,49.86v10.61h-2.42v-1.15h-4.75v1.25h-2.38v-10.7h9.55ZM388.29,57.01h4.75v-4.85h-4.75v4.85Z"/>
    </g>
    <g>
      <path class="cls-1" d="M14.2,105.93v-10.73H5.52v10.73H.52v-25.63h5v10.47h8.67v-10.47h5v25.63h-5Z"/>
      <path class="cls-1" d="M34.43,105.93v-1.62c-1.26,1.26-2.45,1.8-4.61,1.8s-3.67-.54-4.79-1.66c-1.01-1.04-1.55-2.56-1.55-4.21,0-2.99,2.05-5.44,6.41-5.44h4.43v-.94c0-2.05-1.01-2.95-3.49-2.95-1.8,0-2.63.43-3.6,1.55l-2.99-2.92c1.84-2.02,3.64-2.59,6.77-2.59,5.25,0,7.99,2.23,7.99,6.62v12.35h-4.57ZM34.32,98.02h-3.71c-1.69,0-2.63.79-2.63,2.12s.86,2.16,2.7,2.16c1.3,0,2.12-.11,2.95-.9.5-.47.68-1.22.68-2.38v-1.01Z"/>
      <path class="cls-1" d="M57.83,104.46c-1.04,1.04-2.74,1.69-4.57,1.69s-3.31-.5-4.54-1.87v8.53h-4.68v-25.63h4.54v1.76c1.3-1.44,2.7-1.98,4.68-1.98,1.84,0,3.53.65,4.57,1.69,1.87,1.87,1.91,5.08,1.91,7.88s-.04,6.05-1.91,7.92ZM51.89,91.18c-2.81,0-3.17,2.3-3.17,5.36s.36,5.4,3.17,5.4,3.17-2.34,3.17-5.4-.36-5.36-3.17-5.36Z"/>
      <path class="cls-1" d="M77.99,104.46c-1.04,1.04-2.74,1.69-4.57,1.69s-3.31-.5-4.54-1.87v8.53h-4.68v-25.63h4.54v1.76c1.3-1.44,2.7-1.98,4.68-1.98,1.84,0,3.53.65,4.57,1.69,1.87,1.87,1.91,5.08,1.91,7.88s-.04,6.05-1.91,7.92ZM72.05,91.18c-2.81,0-3.17,2.3-3.17,5.36s.36,5.4,3.17,5.4,3.17-2.34,3.17-5.4-.36-5.36-3.17-5.36Z"/>
      <path class="cls-1" d="M91.34,108.96c-.4,1.04-.83,1.84-1.4,2.41-1.08,1.08-2.48,1.44-4.03,1.44h-1.84v-4.21h1.08c1.33,0,1.87-.32,2.34-1.69l.79-2.3-6.41-17.42h4.93l3.89,11.59,3.74-11.59h4.93l-8.03,21.78Z"/>
      <path class="cls-1" d="M126.66,103.23c-2.05,2.12-4.5,2.92-7.24,2.92s-5.11-1.01-6.91-2.81c-2.59-2.59-2.52-5.79-2.52-10.22s-.07-7.63,2.52-10.22c1.8-1.8,4.03-2.81,6.91-2.81,5.94,0,8.96,3.89,9.65,8.21h-5.04c-.58-2.41-2.05-3.74-4.61-3.74-1.37,0-2.48.54-3.2,1.37-.97,1.08-1.22,2.27-1.22,7.2s.25,6.16,1.22,7.24c.72.83,1.84,1.33,3.2,1.33,1.51,0,2.74-.54,3.56-1.44.83-.94,1.15-2.09,1.15-3.42v-.97h-4.71v-4.18h9.68v3.74c0,3.71-.65,5.94-2.45,7.81Z"/>
      <path class="cls-1" d="M144.01,92.29c-.72-.72-1.33-1.12-2.48-1.12-1.44,0-3.02,1.08-3.02,3.46v11.3h-4.68v-18.75h4.57v1.8c.9-1.08,2.7-2.02,4.71-2.02,1.84,0,3.13.47,4.43,1.76l-3.53,3.56Z"/>
      <path class="cls-1" d="M159.46,105.93v-1.62c-1.26,1.26-2.45,1.8-4.61,1.8s-3.67-.54-4.79-1.66c-1.01-1.04-1.55-2.56-1.55-4.21,0-2.99,2.05-5.44,6.41-5.44h4.43v-.94c0-2.05-1.01-2.95-3.49-2.95-1.8,0-2.63.43-3.6,1.55l-2.99-2.92c1.84-2.02,3.64-2.59,6.77-2.59,5.25,0,7.99,2.23,7.99,6.62v12.35h-4.57ZM159.35,98.02h-3.71c-1.69,0-2.63.79-2.63,2.12s.86,2.16,2.7,2.16c1.3,0,2.12-.11,2.95-.9.5-.47.68-1.22.68-2.38v-1.01Z"/>
      <path class="cls-1" d="M179.43,105.93v-1.76c-1.3,1.44-2.66,1.98-4.64,1.98-1.83,0-3.56-.65-4.61-1.69-1.87-1.87-1.91-5.11-1.91-7.92s.04-6.01,1.91-7.88c1.04-1.04,2.74-1.69,4.57-1.69s3.35.5,4.57,1.87v-8.53h4.68v25.63h-4.57ZM176.12,91.18c-2.81,0-3.17,2.3-3.17,5.36s.36,5.4,3.17,5.4,3.2-2.34,3.2-5.4-.4-5.36-3.2-5.36Z"/>
      <path class="cls-1" d="M200.06,105.93v-1.73c-1.22,1.3-2.95,1.94-4.68,1.94-1.87,0-3.38-.61-4.43-1.66-1.51-1.51-1.91-3.28-1.91-5.33v-11.99h4.68v11.34c0,2.56,1.62,3.42,3.1,3.42s3.13-.86,3.13-3.42v-11.34h4.68v18.75h-4.57Z"/>
      <path class="cls-1" d="M219.5,105.93v-1.62c-1.26,1.26-2.45,1.8-4.61,1.8s-3.67-.54-4.79-1.66c-1.01-1.04-1.55-2.56-1.55-4.21,0-2.99,2.05-5.44,6.41-5.44h4.43v-.94c0-2.05-1.01-2.95-3.49-2.95-1.8,0-2.63.43-3.6,1.55l-2.99-2.92c1.84-2.02,3.64-2.59,6.77-2.59,5.25,0,7.99,2.23,7.99,6.62v12.35h-4.57ZM219.4,98.02h-3.71c-1.69,0-2.63.79-2.63,2.12s.86,2.16,2.7,2.16c1.3,0,2.12-.11,2.95-.9.5-.47.68-1.22.68-2.38v-1.01Z"/>
      <path class="cls-1" d="M234.98,105.93c-3.82,0-5.44-2.7-5.44-5.36v-9.29h-1.98v-3.56h1.98v-5.54h4.68v5.54h3.31v3.56h-3.31v9c0,1.08.5,1.69,1.62,1.69h1.69v3.96h-2.56Z"/>
      <path class="cls-1" d="M241.72,83.98v-3.82h4.79v3.82h-4.79ZM241.79,105.93v-18.75h4.68v18.75h-4.68Z"/>
      <path class="cls-1" d="M264.65,103.85c-1.15,1.22-3.06,2.3-5.83,2.3s-4.64-1.08-5.79-2.3c-1.69-1.76-2.12-3.89-2.12-7.31s.43-5.51,2.12-7.27c1.15-1.22,3.02-2.3,5.79-2.3s4.68,1.08,5.83,2.3c1.69,1.76,2.12,3.89,2.12,7.27s-.43,5.54-2.12,7.31ZM261.01,92c-.54-.54-1.26-.83-2.2-.83s-1.62.29-2.16.83c-.97.97-1.08,2.59-1.08,4.54s.11,3.6,1.08,4.57c.54.54,1.22.83,2.16.83s1.66-.29,2.2-.83c.97-.97,1.08-2.63,1.08-4.57s-.11-3.56-1.08-4.54Z"/>
      <path class="cls-1" d="M282.14,105.93v-11.34c0-2.56-1.62-3.42-3.1-3.42s-3.13.86-3.13,3.42v11.34h-4.68v-18.75h4.57v1.73c1.22-1.3,2.95-1.94,4.68-1.94,1.87,0,3.38.61,4.43,1.66,1.51,1.51,1.91,3.28,1.91,5.33v11.99h-4.68Z"/>
      <path class="cls-1" d="M299.71,105.93v-4.21l9.57-11.12c.94-1.12,1.33-1.91,1.33-3.1,0-1.91-1.12-3.2-3.1-3.2-1.55,0-3.13.79-3.13,3.28h-4.68c0-4.68,3.42-7.49,7.81-7.49s7.78,2.84,7.78,7.45c0,2.48-.97,3.82-2.74,5.87l-7.16,8.31h9.9v4.21h-15.59Z"/>
      <path class="cls-1" d="M326.93,106.15c-4.18,0-7.81-2.74-7.81-7.63v-10.8c0-4.9,3.64-7.63,7.81-7.63s7.77,2.74,7.77,7.63v10.8c0,4.9-3.6,7.63-7.77,7.63ZM330.02,87.79c0-2.16-1.26-3.49-3.1-3.49s-3.13,1.33-3.13,3.49v10.69c0,2.16,1.3,3.46,3.13,3.46s3.1-1.3,3.1-3.46v-10.69Z"/>
      <path class="cls-1" d="M338.81,105.93v-4.21l9.57-11.12c.94-1.12,1.33-1.91,1.33-3.1,0-1.91-1.12-3.2-3.1-3.2-1.55,0-3.13.79-3.13,3.28h-4.68c0-4.68,3.42-7.49,7.81-7.49s7.78,2.84,7.78,7.45c0,2.48-.97,3.82-2.74,5.87l-7.16,8.31h9.9v4.21h-15.59Z"/>
      <path class="cls-1" d="M372.32,102.3v3.64h-4.5v-3.64h-10.47v-4.43l8.78-17.57h5.11l-8.78,17.57h5.36v-4.79h4.5v4.79h2.34v4.43h-2.34Z"/>
      <path class="cls-1" d="M388.09,108.6v-30.96h4.68v30.96h-4.68Z"/>
      <path class="cls-1" d="M424.13,95.39v4.64h14.98v1.94h-14.98v7.6h-2.02v-7.6h-14.98v-1.94h14.98v-4.64h2.02ZM411.45,93.37c.17-.24.25-.53.25-.86v-15.01h2.02v5.9h8.86v1.87h-8.86v7.63c2.98-1.03,5.95-2.09,8.93-3.17l.14,1.91c-3.1,1.1-6.17,2.2-9.22,3.28-.72.24-1.4.53-2.05.86l-.9-1.8c.31-.14.59-.35.83-.61ZM426.47,77.42v7.78c1.92-.91,3.82-1.88,5.69-2.92,1.51-.79,2.98-1.67,4.39-2.63l1.04,1.76c-1.61,1.06-3.26,2.02-4.97,2.88-2.02,1.06-4.07,2.05-6.16,2.99v2.84c-.02.36,0,.72.07,1.08.07.34.22.65.43.94.22.22.48.37.79.47.36.1.74.13,1.15.11h4.72c.46.02.9-.01,1.33-.11.34-.1.62-.25.86-.47.17-.19.29-.41.36-.65.14-.43.23-.88.25-1.33.05-1.34.09-2.71.14-4.1l1.87.36c-.05,1.54-.12,3.05-.22,4.54-.05.65-.19,1.26-.43,1.84-.14.34-.35.64-.61.9-.41.31-.85.53-1.33.65-.67.14-1.33.2-1.98.18h-5.9c-.55.02-1.08-.04-1.58-.18-.43-.14-.82-.4-1.15-.76-.31-.38-.53-.83-.65-1.33-.12-.5-.17-1.02-.14-1.55v-13.28h2.02Z"/>
      <path class="cls-1" d="M453.93,105.36v-27.79h2.12v27.79h6.12v-27.79h2.12v27.79h10.87v2.02h-32.15v-2.02h10.91ZM446.16,83.58c2.21,4.87,4.36,9.77,6.44,14.69l-2.02.94c-2.02-4.94-4.13-9.86-6.34-14.76l1.91-.86ZM472.11,83.72l1.98.83c-2.06,5.02-4.27,9.94-6.62,14.76l-1.91-.97c2.38-4.78,4.56-9.65,6.55-14.62Z"/>
      <path class="cls-1" d="M480.25,83l1.84.18c-.53,4.32-1.19,8.59-1.98,12.82l-1.91-.29c.91-4.18,1.6-8.41,2.05-12.71ZM485.65,77.31v32.04h-1.91v-32.04h1.91ZM487.52,82.93c1.37,2.16,2.74,4.33,4.1,6.52l-1.55,1.15c-1.32-2.18-2.66-4.36-4.03-6.52l1.48-1.15ZM497.75,94.02c0-.34.01-.68.04-1.04,0-2.57.01-5.16.04-7.78h-6.73v-1.91h6.73c-.02-1.99-.01-3.98.04-5.98h1.91c0,2.02-.01,4.01-.04,5.98h8.03v10.73h3.82v1.91h-11.45c.84,2.81,2.29,5.24,4.36,7.31,1.13,1.03,2.35,1.93,3.67,2.7,1.1.65,2.25,1.22,3.46,1.73l-1.01,1.8c-2.57-1.1-4.88-2.57-6.95-4.39-2.11-1.99-3.68-4.36-4.72-7.09-.7,2.21-1.84,4.16-3.42,5.87-1.03,1.08-2.15,2.05-3.35,2.92-1.44,1.06-2.93,2.03-4.46,2.92l-1.08-1.73c1.58-.86,3.11-1.8,4.57-2.81,1.2-.89,2.29-1.9,3.28-3.02,1.54-1.8,2.54-3.86,3.02-6.19h-9.07v-1.91h9.32ZM499.73,85.2c-.02,2.57-.04,5.12-.04,7.67-.02.41-.04.79-.04,1.15h6.16v-8.82h-6.08Z"/>
      <path class="cls-1" d="M523.05,96.25l1.76,1.12c-2.57,3.74-5.47,7.18-8.71,10.3l-1.62-1.37c3.22-3.02,6.07-6.37,8.57-10.04ZM519.24,80.52c8.06-.31,16.09-1.06,24.08-2.23l.43,2.02c-7.51,1.08-15.04,1.8-22.57,2.16l-1.15,9.29h10.48v-7.99h2.16v7.99h13.18v1.98h-13.18v11.23c0,.65-.08,1.3-.25,1.94-.12.36-.3.67-.54.94-.38.36-.83.59-1.33.68-.72.14-1.44.22-2.16.22h-4.18l-.43-2.02h3.96c.48,0,.97-.04,1.48-.11.24-.07.47-.17.68-.29.24-.17.4-.38.47-.65.1-.41.14-.83.14-1.26v-10.69h-12.82l1.55-13.21ZM538.32,96.32c3,3.29,5.98,6.59,8.93,9.9l-1.73,1.37c-2.9-3.36-5.84-6.68-8.82-9.97l1.62-1.3Z"/>
    </g>
  </g>
</svg>