<?xml version="1.0" encoding="UTF-8"?>
<svg id="_图层_2" data-name="图层 2" xmlns="http://www.w3.org/2000/svg" viewBox="0 0 655.59 72.82">
  <defs>
    <style>
      .cls-1 {
        fill: #242a74;
        stroke-width: 0px;
      }
    </style>
  </defs>
  <g id="_图层_1-2" data-name="图层 1">
    <g>
      <path class="cls-1" d="M9.43,26.06c-2.81,0-5.11-1.01-6.91-2.81C-.07,20.66,0,17.46,0,13.03S-.07,5.4,2.52,2.81C4.32,1.01,6.62,0,9.43,0c4.79,0,8.53,2.74,9.43,8.1h-5.08c-.5-2.05-1.8-3.64-4.32-3.64-1.37,0-2.48.5-3.2,1.33-.97,1.08-1.26,2.3-1.26,7.23s.29,6.16,1.26,7.24c.72.83,1.84,1.33,3.2,1.33,2.52,0,3.82-1.58,4.32-3.64h5.08c-.9,5.36-4.68,8.1-9.43,8.1Z"/>
      <path class="cls-1" d="M35.78,23.76c-1.15,1.22-3.06,2.3-5.83,2.3s-4.64-1.08-5.79-2.3c-1.69-1.76-2.12-3.89-2.12-7.31s.43-5.51,2.12-7.27c1.15-1.22,3.02-2.3,5.79-2.3s4.68,1.08,5.83,2.3c1.69,1.76,2.12,3.89,2.12,7.27s-.43,5.54-2.12,7.31ZM32.15,11.91c-.54-.54-1.26-.83-2.2-.83s-1.62.29-2.16.83c-.97.97-1.08,2.59-1.08,4.54s.11,3.6,1.08,4.57c.54.54,1.22.83,2.16.83s1.66-.29,2.2-.83c.97-.97,1.08-2.63,1.08-4.57s-.11-3.56-1.08-4.54Z"/>
      <path class="cls-1" d="M53.28,25.84v-11.34c0-2.56-1.62-3.42-3.1-3.42s-3.13.86-3.13,3.42v11.34h-4.68V7.09h4.57v1.73c1.22-1.3,2.95-1.94,4.68-1.94,1.87,0,3.38.61,4.43,1.66,1.51,1.51,1.91,3.28,1.91,5.33v11.99h-4.68Z"/>
      <path class="cls-1" d="M69.48,32.94c-2.88,0-4.86-.58-6.8-2.45l2.92-2.95c1.04,1.01,2.09,1.44,3.67,1.44,2.81,0,3.78-1.98,3.78-3.89v-1.91c-1.22,1.37-2.63,1.87-4.46,1.87s-3.42-.61-4.46-1.66c-1.76-1.76-1.91-4.18-1.91-7.45s.14-5.65,1.91-7.42c1.04-1.04,2.66-1.66,4.5-1.66,1.98,0,3.28.54,4.57,1.98v-1.76h4.54v18.07c0,4.5-3.2,7.78-8.24,7.78ZM69.95,11.09c-2.77,0-3.06,2.38-3.06,4.86s.29,4.9,3.06,4.9,3.09-2.41,3.09-4.9-.32-4.86-3.09-4.86Z"/>
      <path class="cls-1" d="M93.17,12.2c-.72-.72-1.33-1.12-2.48-1.12-1.44,0-3.02,1.08-3.02,3.46v11.3h-4.68V7.09h4.57v1.8c.9-1.08,2.7-2.02,4.71-2.02,1.84,0,3.13.47,4.43,1.76l-3.53,3.56Z"/>
      <path class="cls-1" d="M108.61,25.84v-1.62c-1.26,1.26-2.45,1.8-4.61,1.8s-3.67-.54-4.79-1.66c-1.01-1.04-1.55-2.56-1.55-4.21,0-2.99,2.05-5.44,6.41-5.44h4.43v-.94c0-2.05-1.01-2.95-3.49-2.95-1.8,0-2.63.43-3.6,1.55l-2.99-2.92c1.84-2.02,3.64-2.59,6.77-2.59,5.25,0,7.99,2.23,7.99,6.62v12.35h-4.57ZM108.5,17.93h-3.71c-1.69,0-2.63.79-2.63,2.12s.86,2.16,2.7,2.16c1.3,0,2.12-.11,2.95-.9.5-.47.68-1.22.68-2.38v-1.01Z"/>
      <path class="cls-1" d="M124.09,25.84c-3.82,0-5.44-2.7-5.44-5.36v-9.29h-1.98v-3.56h1.98V2.09h4.68v5.54h3.31v3.56h-3.31v9c0,1.08.5,1.69,1.62,1.69h1.69v3.96h-2.56Z"/>
      <path class="cls-1" d="M137.05,26.06c-2.95,0-5.62-.32-7.99-2.7l3.06-3.06c1.55,1.55,3.56,1.76,5,1.76,1.62,0,3.31-.54,3.31-1.94,0-.94-.5-1.58-1.98-1.73l-2.95-.29c-3.38-.32-5.47-1.8-5.47-5.25,0-3.89,3.42-5.98,7.24-5.98,2.92,0,5.36.5,7.16,2.2l-2.88,2.92c-1.08-.97-2.74-1.26-4.36-1.26-1.87,0-2.66.86-2.66,1.8,0,.68.29,1.48,1.94,1.62l2.95.29c3.71.36,5.58,2.34,5.58,5.51,0,4.14-3.53,6.12-7.96,6.12Z"/>
      <path class="cls-1" d="M154.98,17.82h-3.53l-1.12-17.6h5.76l-1.12,17.6ZM150.73,25.84v-4.79h4.97v4.79h-4.97Z"/>
      <path class="cls-1" d="M188.28,15.33v10.51h-4.97v-10.51L175.61.22h5.43l4.79,10.33L190.54.22h5.44l-7.7,15.12Z"/>
      <path class="cls-1" d="M208.8,23.76c-1.15,1.22-3.06,2.3-5.83,2.3s-4.64-1.08-5.79-2.3c-1.69-1.76-2.12-3.89-2.12-7.31s.43-5.51,2.12-7.27c1.15-1.22,3.02-2.3,5.79-2.3s4.68,1.08,5.83,2.3c1.69,1.76,2.12,3.89,2.12,7.27s-.43,5.54-2.12,7.31ZM205.16,11.91c-.54-.54-1.26-.83-2.2-.83s-1.62.29-2.16.83c-.97.97-1.08,2.59-1.08,4.54s.11,3.6,1.08,4.57c.54.54,1.22.83,2.16.83s1.66-.29,2.2-.83c.97-.97,1.08-2.63,1.08-4.57s-.11-3.56-1.08-4.54Z"/>
      <path class="cls-1" d="M226.18,25.84v-1.73c-1.22,1.3-2.95,1.94-4.68,1.94-1.87,0-3.38-.61-4.43-1.66-1.51-1.51-1.91-3.28-1.91-5.33V7.09h4.68v11.34c0,2.56,1.62,3.42,3.1,3.42s3.13-.86,3.13-3.42V7.09h4.68v18.75h-4.57Z"/>
      <path class="cls-1" d="M257.32,23.76c-1.15,1.22-3.06,2.3-5.83,2.3s-4.64-1.08-5.79-2.3c-1.69-1.76-2.12-3.89-2.12-7.31s.43-5.51,2.12-7.27c1.15-1.22,3.02-2.3,5.79-2.3s4.68,1.08,5.83,2.3c1.69,1.76,2.12,3.89,2.12,7.27s-.43,5.54-2.12,7.31ZM253.69,11.91c-.54-.54-1.26-.83-2.2-.83s-1.62.29-2.16.83c-.97.97-1.08,2.59-1.08,4.54s.11,3.6,1.08,4.57c.54.54,1.22.83,2.16.83s1.66-.29,2.2-.83c.97-.97,1.08-2.63,1.08-4.57s-.11-3.56-1.08-4.54Z"/>
      <path class="cls-1" d="M282.45,25.84h-3.85l-3.92-11.77-3.92,11.77h-3.85l-5.76-18.75h4.97l3.02,11.59,3.82-11.59h3.42l3.85,11.59,3.02-11.59h4.93l-5.72,18.75Z"/>
      <path class="cls-1" d="M301.85,25.84v-11.34c0-2.56-1.62-3.42-3.1-3.42s-3.13.86-3.13,3.42v11.34h-4.68V7.09h4.57v1.73c1.22-1.3,2.95-1.94,4.68-1.94,1.87,0,3.38.61,4.43,1.66,1.51,1.51,1.91,3.28,1.91,5.33v11.99h-4.68Z"/>
      <path class="cls-1" d="M325.8,25.84c-3.82,0-5.44-2.7-5.44-5.36v-9.29h-1.98v-3.56h1.98V2.09h4.68v5.54h3.31v3.56h-3.31v9c0,1.08.5,1.69,1.62,1.69h1.69v3.96h-2.56Z"/>
      <path class="cls-1" d="M343.36,25.84v-11.45c0-2.48-1.58-3.31-3.06-3.31s-3.02.86-3.02,3.31v11.45h-4.68V.22h4.68v8.6c1.26-1.3,2.84-1.94,4.5-1.94,4.1,0,6.26,2.88,6.26,6.84v12.13h-4.68Z"/>
      <path class="cls-1" d="M356.75,17.93c0,2.41,1.48,4.18,4.1,4.18,2.05,0,3.06-.58,4.25-1.76l2.84,2.77c-1.91,1.91-3.74,2.95-7.13,2.95-4.43,0-8.67-2.02-8.67-9.61,0-6.12,3.31-9.57,8.17-9.57,5.22,0,8.17,3.82,8.17,8.96v2.09h-11.74ZM363.45,12.71c-.5-1.12-1.55-1.94-3.13-1.94s-2.63.83-3.13,1.94c-.29.68-.4,1.19-.43,2.02h7.13c-.04-.83-.14-1.33-.43-2.02Z"/>
      <path class="cls-1" d="M397.54,23.4c-1.69,1.69-4.1,2.45-6.77,2.45h-9.25V.22h9.25c2.66,0,5.08.76,6.77,2.45,2.88,2.88,2.59,6.41,2.59,10.26s.29,7.6-2.59,10.47ZM394.05,6.26c-.86-1.04-2.02-1.58-3.74-1.58h-3.78v16.7h3.78c1.73,0,2.88-.54,3.74-1.58.94-1.15,1.08-2.99,1.08-6.88s-.14-5.51-1.08-6.66Z"/>
      <path class="cls-1" d="M404.81,3.89V.07h4.79v3.82h-4.79ZM404.89,25.84V7.09h4.68v18.75h-4.68Z"/>
      <path class="cls-1" d="M421.26,32.94c-2.88,0-4.86-.58-6.8-2.45l2.92-2.95c1.04,1.01,2.09,1.44,3.67,1.44,2.81,0,3.78-1.98,3.78-3.89v-1.91c-1.22,1.37-2.63,1.87-4.46,1.87s-3.42-.61-4.46-1.66c-1.76-1.76-1.91-4.18-1.91-7.45s.14-5.65,1.91-7.42c1.04-1.04,2.66-1.66,4.5-1.66,1.98,0,3.28.54,4.57,1.98v-1.76h4.54v18.07c0,4.5-3.2,7.78-8.24,7.78ZM421.73,11.09c-2.77,0-3.06,2.38-3.06,4.86s.29,4.9,3.06,4.9,3.09-2.41,3.09-4.9-.32-4.86-3.09-4.86Z"/>
      <path class="cls-1" d="M434.69,3.89V.07h4.79v3.82h-4.79ZM434.76,25.84V7.09h4.68v18.75h-4.68Z"/>
      <path class="cls-1" d="M450.53,25.84c-3.82,0-5.44-2.7-5.44-5.36v-9.29h-1.98v-3.56h1.98V2.09h4.68v5.54h3.31v3.56h-3.31v9c0,1.08.5,1.69,1.62,1.69h1.69v3.96h-2.56Z"/>
      <path class="cls-1" d="M466.84,25.84v-1.62c-1.26,1.26-2.45,1.8-4.61,1.8s-3.67-.54-4.79-1.66c-1.01-1.04-1.55-2.56-1.55-4.21,0-2.99,2.05-5.44,6.41-5.44h4.43v-.94c0-2.05-1.01-2.95-3.49-2.95-1.8,0-2.63.43-3.6,1.55l-2.99-2.92c1.84-2.02,3.64-2.59,6.77-2.59,5.25,0,7.99,2.23,7.99,6.62v12.35h-4.57ZM466.73,17.93h-3.71c-1.69,0-2.63.79-2.63,2.12s.86,2.16,2.7,2.16c1.3,0,2.12-.11,2.95-.9.5-.47.68-1.22.68-2.38v-1.01Z"/>
      <path class="cls-1" d="M481.74,25.84c-3.85,0-5.47-2.7-5.47-5.36V.22h4.68v19.98c0,1.12.47,1.69,1.66,1.69h1.8v3.96h-2.66Z"/>
      <path class="cls-1" d="M505.43,26.06c-2.81,0-5.11-1.01-6.91-2.81-2.59-2.59-2.52-5.79-2.52-10.22s-.07-7.63,2.52-10.22c1.8-1.8,4.1-2.81,6.91-2.81,4.79,0,8.53,2.74,9.43,8.1h-5.08c-.5-2.05-1.8-3.64-4.32-3.64-1.37,0-2.48.5-3.2,1.33-.97,1.08-1.26,2.3-1.26,7.23s.29,6.16,1.26,7.24c.72.83,1.84,1.33,3.2,1.33,2.52,0,3.82-1.58,4.32-3.64h5.08c-.9,5.36-4.68,8.1-9.43,8.1Z"/>
      <path class="cls-1" d="M531.78,23.76c-1.15,1.22-3.06,2.3-5.83,2.3s-4.64-1.08-5.79-2.3c-1.69-1.76-2.12-3.89-2.12-7.31s.43-5.51,2.12-7.27c1.15-1.22,3.02-2.3,5.79-2.3s4.68,1.08,5.83,2.3c1.69,1.76,2.12,3.89,2.12,7.27s-.43,5.54-2.12,7.31ZM528.15,11.91c-.54-.54-1.26-.83-2.2-.83s-1.62.29-2.16.83c-.97.97-1.08,2.59-1.08,4.54s.11,3.6,1.08,4.57c.54.54,1.22.83,2.16.83s1.66-.29,2.2-.83c.97-.97,1.08-2.63,1.08-4.57s-.11-3.56-1.08-4.54Z"/>
      <path class="cls-1" d="M543.66,25.84c-3.85,0-5.47-2.7-5.47-5.36V.22h4.68v19.98c0,1.12.47,1.69,1.66,1.69h1.8v3.96h-2.66Z"/>
      <path class="cls-1" d="M555.36,25.84c-3.85,0-5.47-2.7-5.47-5.36V.22h4.68v19.98c0,1.12.47,1.69,1.66,1.69h1.8v3.96h-2.66Z"/>
      <path class="cls-1" d="M564.54,17.93c0,2.41,1.48,4.18,4.1,4.18,2.05,0,3.06-.58,4.25-1.76l2.84,2.77c-1.91,1.91-3.74,2.95-7.13,2.95-4.43,0-8.68-2.02-8.68-9.61,0-6.12,3.31-9.57,8.17-9.57,5.22,0,8.17,3.82,8.17,8.96v2.09h-11.74ZM571.24,12.71c-.5-1.12-1.55-1.94-3.13-1.94s-2.63.83-3.13,1.94c-.29.68-.4,1.19-.43,2.02h7.13c-.04-.83-.14-1.33-.43-2.02Z"/>
      <path class="cls-1" d="M588.05,26.06c-3.74,0-8.39-2.02-8.39-9.61s4.64-9.57,8.39-9.57c2.59,0,4.54.79,6.19,2.52l-3.17,3.17c-.97-1.04-1.8-1.48-3.02-1.48-1.12,0-1.98.4-2.66,1.22-.72.9-1.04,2.16-1.04,4.14s.32,3.28,1.04,4.18c.68.83,1.55,1.22,2.66,1.22,1.22,0,2.05-.43,3.02-1.48l3.17,3.13c-1.66,1.73-3.6,2.56-6.19,2.56Z"/>
      <path class="cls-1" d="M603.75,25.84c-3.82,0-5.44-2.7-5.44-5.36v-9.29h-1.98v-3.56h1.98V2.09h4.68v5.54h3.31v3.56h-3.31v9c0,1.08.5,1.69,1.62,1.69h1.69v3.96h-2.56Z"/>
      <path class="cls-1" d="M610.48,3.89V.07h4.79v3.82h-4.79ZM610.55,25.84V7.09h4.68v18.75h-4.68Z"/>
      <path class="cls-1" d="M633.41,23.76c-1.15,1.22-3.06,2.3-5.83,2.3s-4.64-1.08-5.79-2.3c-1.69-1.76-2.12-3.89-2.12-7.31s.43-5.51,2.12-7.27c1.15-1.22,3.02-2.3,5.79-2.3s4.68,1.08,5.83,2.3c1.69,1.76,2.12,3.89,2.12,7.27s-.43,5.54-2.12,7.31ZM629.77,11.91c-.54-.54-1.26-.83-2.2-.83s-1.62.29-2.16.83c-.97.97-1.08,2.59-1.08,4.54s.11,3.6,1.08,4.57c.54.54,1.22.83,2.16.83s1.66-.29,2.2-.83c.97-.97,1.08-2.63,1.08-4.57s-.11-3.56-1.08-4.54Z"/>
      <path class="cls-1" d="M650.91,25.84v-11.34c0-2.56-1.62-3.42-3.1-3.42s-3.13.86-3.13,3.42v11.34h-4.68V7.09h4.57v1.73c1.22-1.3,2.95-1.94,4.68-1.94,1.87,0,3.38.61,4.43,1.66,1.51,1.51,1.91,3.28,1.91,5.33v11.99h-4.68Z"/>
      <path class="cls-1" d="M153.87,44.85v-4.46h1.98v4.46h10.04v-4.46h1.98v4.46h7.6v1.73h-7.6v6.52h9.25v1.76h-10.08c1.22,1.51,2.63,2.82,4.21,3.92,1.99,1.34,4.13,2.39,6.41,3.13l-.94,1.84c-2.59-.98-4.99-2.3-7.2-3.96-1.82-1.42-3.42-3.06-4.79-4.93h-7.49c-1.37,1.85-2.93,3.49-4.68,4.93-2.28,1.82-4.73,3.38-7.34,4.68l-1.04-1.73c2.04-.91,3.98-2.02,5.83-3.31,1.85-1.3,3.52-2.82,5-4.57h-10.33v-1.76h9.18v-6.52h-7.56v-1.73h7.56ZM152.86,61.05l1.69.79c-1.58,3.1-3.47,5.98-5.65,8.64l-1.66-1.15c2.21-2.5,4.08-5.26,5.62-8.28ZM155.88,70.02c.5,0,1.01-.05,1.51-.14.26-.05.5-.14.72-.29.24-.19.4-.43.47-.72.1-.38.14-.79.14-1.22v-10.55h1.94v11.09c0,.62-.08,1.25-.25,1.87-.1.36-.26.67-.5.94-.36.34-.78.56-1.26.68-.7.14-1.39.22-2.09.22h-3.24l-.4-1.87h2.95ZM155.85,53.1h10.04v-6.52h-10.04v6.52ZM164.77,61.09c1.15,2.74,2.3,5.47,3.46,8.21l-1.91.61c-1.03-2.76-2.12-5.5-3.28-8.21l1.73-.61ZM170.32,61.05c1.68,2.74,3.35,5.47,5,8.21l-1.76.9c-1.58-2.78-3.19-5.56-4.82-8.32l1.58-.79Z"/>
      <path class="cls-1" d="M208.15,51.87v5.69h-4.9l1.26.86c-.7.89-1.4,1.75-2.12,2.59h10.98v1.62h-32.94v-1.62h11.16c-.72-.89-1.45-1.78-2.2-2.66l1.19-.79h-4.9v-5.69h22.46ZM195.95,48.13v-2.74h-14.8v-1.62h14.8v-3.38h1.98v3.38h14.76v1.62h-14.76v2.74h12.89v1.55h-27.83v-1.55h12.96ZM208.41,64.9v7.85h-1.91v-1.69h-19.15v1.69h-1.94v-7.85h23ZM187.35,69.55h19.15v-3.17h-19.15v3.17ZM187.6,56.08h18.65v-2.74h-18.65v2.74ZM192.39,61.02h7.6c.94-1.13,1.87-2.28,2.81-3.46h-11.7c.77.94,1.54,1.87,2.3,2.81l-1.01.65Z"/>
      <path class="cls-1" d="M220.65,49.1c1.27-2.69,2.34-5.46,3.2-8.32l2.02.5c-.82,2.52-1.75,4.98-2.81,7.38v23.72h-1.94v-19.84c-1.13,2.04-2.39,3.98-3.78,5.83l-1.22-1.55c1.73-2.45,3.24-5.03,4.54-7.74ZM230.91,55.94l1.8.54c-1.61,4.51-3.7,8.78-6.26,12.82l-1.84-.79c2.57-3.94,4.67-8.12,6.3-12.56ZM232.71,40.46l2.02.43c-.55,1.61-1.18,3.17-1.87,4.68h15.34v1.87l-3.2,5.98-1.87-.68,2.88-5.29h-14.08c-1.3,2.59-2.77,5.05-4.43,7.38l-1.69-1.08c2.98-4.06,5.28-8.48,6.91-13.28ZM234.04,69.91c.46,0,.9-.04,1.33-.11.31-.07.59-.2.83-.4.17-.14.29-.31.36-.5.1-.34.14-.7.14-1.08v-17.24h1.94v17.89c0,.55-.08,1.1-.25,1.66-.14.41-.38.76-.72,1.04-.31.22-.65.37-1.01.47-.65.14-1.3.22-1.94.22h-3.74l-.4-1.94h3.46ZM243.33,56.01c2.11,4.15,4.22,8.29,6.34,12.42l-1.8.83c-2.04-4.18-4.13-8.33-6.26-12.46l1.73-.79Z"/>
      <path class="cls-1" d="M261.11,57.78c-.41-1.08-.92-2.11-1.55-3.1-1.82,1.3-3.71,2.47-5.65,3.53l-.72-1.62c1.82-1.03,3.6-2.15,5.33-3.35-1.18-1.39-2.44-2.7-3.78-3.92l1.4-1.12c1.37,1.22,2.66,2.53,3.89,3.92,1.42-1.08,2.78-2.24,4.1-3.49l1.22,1.3c-1.37,1.3-2.79,2.51-4.25,3.64,1.03,1.56,1.78,3.24,2.23,5.04.26,1.13.46,2.27.58,3.42.12,1.34.18,2.69.18,4.03,0,1.01-.11,2-.32,2.99-.17.5-.41.98-.72,1.44-.5.53-1.1.89-1.8,1.08-.96.22-1.92.32-2.88.32h-3.17l-.36-1.87h3.06c.74,0,1.48-.07,2.2-.22.5-.14.95-.4,1.33-.76.24-.29.41-.62.5-1.01.17-.7.25-1.42.25-2.16.02-2.06-.16-4.13-.54-6.19-2.4,2.71-5.12,5.04-8.17,6.98l-.68-1.76c3.12-1.94,5.89-4.32,8.32-7.13ZM262.59,43.99v-3.71h2.02v3.71h8.93v-3.71h1.98v3.71h9.32v1.84h-9.32v2.3h-1.98v-2.3h-8.93v2.34h-2.02v-2.34h-9.43v-1.84h9.43ZM267.41,67.68c.82-.82,1.57-1.69,2.27-2.63,1.61-2.33,2.48-4.92,2.63-7.78h-7.7v-1.87h7.74l.04-6.73h1.91v6.73h10.4v1.87h-10.22c.53,3.07,1.79,5.81,3.78,8.21,1.08,1.22,2.28,2.32,3.6,3.28,1.08.74,2.22,1.43,3.42,2.05l-1.19,1.8c-2.3-1.22-4.36-2.75-6.16-4.57-1.9-1.94-3.32-4.2-4.28-6.77-.65,2.35-1.74,4.45-3.28,6.3-1.73,1.99-3.7,3.73-5.9,5.22l-1.4-1.62c1.54-1.06,2.99-2.22,4.36-3.49ZM278.35,48.09c1.61,1.56,3.21,3.13,4.82,4.72l-1.3,1.26-4.72-4.79,1.19-1.19Z"/>
      <path class="cls-1" d="M293.37,54.75c1.39-1.82,2.64-3.77,3.74-5.83l1.66.94c-.98,1.87-2.09,3.66-3.31,5.36v17.17h-1.91v-14.69c-1.39,1.73-2.89,3.34-4.5,4.82l-.83-1.98c1.9-1.75,3.61-3.68,5.15-5.8ZM293.8,44.82c1.22-1.34,2.32-2.78,3.28-4.32l1.66,1.08c-2.4,3.65-5.29,6.83-8.68,9.54l-1.12-1.69c1.73-1.39,3.35-2.93,4.86-4.61ZM314.46,61.63v-3.38h-14.94v-1.73h21.17v1.73h-4.32v3.38h5.08v1.73h-5.08v4.93c0,.62-.08,1.24-.25,1.84-.1.34-.26.64-.5.9-.38.34-.82.55-1.3.65-.7.14-1.4.22-2.12.22h-3.82l-.36-1.91h3.56c.53,0,1.04-.05,1.55-.14.26-.05.5-.14.72-.29.24-.19.4-.42.47-.68.1-.41.14-.83.14-1.26v-4.25h-11.48l5.36,4.36-1.37,1.4c-1.85-1.56-3.71-3.1-5.58-4.61l1.08-1.15h-4.5v-1.73h16.49ZM317.99,42.19v11.3h-16.49v-11.3h16.49ZM303.48,47.08h12.53v-3.28h-12.53v3.28ZM316.01,51.87v-3.2h-12.53v3.2h12.53Z"/>
      <path class="cls-1" d="M336.71,69.51c.58,0,1.16-.05,1.76-.14.38-.05.72-.18,1.01-.4.17-.22.29-.44.36-.68.12-.5.18-1.01.18-1.51v-14.11l11.2-7.42h-25.09v-2.05h28.62v2.05l-12.56,8.5v13.72c0,.74-.08,1.45-.25,2.12-.17.5-.47.92-.9,1.26-.36.24-.76.41-1.19.5-.82.14-1.64.22-2.48.22h-4.86l-.43-2.05h4.64Z"/>
      <path class="cls-1" d="M373.11,40.96v10.04h5.69v1.94h-5.69v12.92c2.02-.43,4.04-.89,6.08-1.37l.11,1.15.11.9-18.65,4.07-.32-2.05c1.15-.22,2.32-.46,3.49-.72v-21.1h1.98v20.66c1.73-.38,3.48-.76,5.26-1.12v-25.34h1.94ZM382.25,40.39v13.54c3.1-2.21,6-4.66,8.71-7.34l1.37,1.62c-3.14,3.02-6.5,5.77-10.08,8.24v9.86c-.02.5.04,1,.18,1.48.07.29.2.54.4.76.26.26.58.43.94.5.46.12.94.18,1.44.18h2.12c.53,0,1.04-.06,1.55-.18.26-.05.52-.16.76-.32.26-.24.44-.54.54-.9.14-.5.23-1.03.25-1.58.07-1.82.14-3.65.22-5.47l1.94.4-.29,5.72c-.05.77-.18,1.5-.4,2.2-.22.53-.54.97-.97,1.33-.36.26-.76.46-1.19.58-.77.17-1.54.25-2.3.25h-2.66c-.77,0-1.51-.1-2.23-.29-.55-.17-1.02-.46-1.4-.86-.29-.36-.5-.73-.65-1.12-.19-.77-.28-1.55-.25-2.34v-26.24h2.02Z"/>
      <path class="cls-1" d="M404.57,48.6v-7.85h1.84v7.85h7.06v1.66h-7.06v6.73h-1.84v-4.97c-.96,1.13-2.02,2.14-3.17,3.02-1.49,1.15-3.05,2.17-4.68,3.06l-.83-1.55c1.73-.89,3.37-1.93,4.93-3.13,1.2-.94,2.3-1.99,3.31-3.17h-7.49v-1.66h7.92ZM400.61,61.52h-4.14v-1.66h5c.46-.91.88-1.85,1.26-2.81l1.84.5c-.31.79-.65,1.56-1.01,2.3h8.39v1.58c-.91,2.23-2.23,4.16-3.96,5.8l3.89,1.87-.94,1.62c-1.51-.79-3.02-1.55-4.54-2.27-1.37.86-2.8,1.61-4.28,2.23-1.73.74-3.48,1.39-5.26,1.94l-.83-1.69c1.75-.53,3.48-1.13,5.18-1.8,1.15-.43,2.27-.96,3.35-1.58-1.97-.91-3.95-1.81-5.94-2.7.7-1.08,1.36-2.2,1.98-3.35ZM399.06,41.72c1.2,1.61,2.4,3.2,3.6,4.79l-1.4.86c-1.13-1.61-2.28-3.19-3.46-4.75l1.26-.9ZM402.73,61.52c-.48.94-.98,1.84-1.51,2.7,1.68.72,3.36,1.46,5.04,2.23,1.61-1.32,2.82-2.96,3.64-4.93h-7.16ZM407.81,51.55c1.87,1.46,3.72,2.96,5.54,4.5l-1.08,1.26c-1.85-1.51-3.7-3.01-5.54-4.5l1.08-1.26ZM411.91,41.72l1.37.94c-1.22,1.66-2.47,3.28-3.74,4.86l-1.33-.94c1.3-1.56,2.53-3.18,3.71-4.86ZM415.73,67.25c1.22-1.08,2.33-2.28,3.31-3.6-.94-1.49-1.69-3.06-2.27-4.72-.7-1.99-1.19-4.04-1.48-6.16-.48.82-.96,1.62-1.44,2.41l-1.44-1.3c2.59-4.13,4.45-8.58,5.58-13.36l1.91.36c-.48,1.99-1.09,3.94-1.84,5.83h10.91v1.98h-3.24c-.24,3.05-.78,6.05-1.62,9-.65,2.14-1.57,4.13-2.77,5.98.91,1.27,1.92,2.46,3.02,3.56,1.44,1.39,2.98,2.69,4.61,3.89l-1.26,1.62c-1.61-1.22-3.12-2.52-4.54-3.89-1.08-1.1-2.08-2.29-2.99-3.56-1.01,1.25-2.11,2.41-3.31,3.49-1.61,1.37-3.29,2.68-5.04,3.92l-1.22-1.58c1.8-1.18,3.5-2.47,5.11-3.89ZM418,56.95c.53,1.75,1.26,3.41,2.2,4.97.98-1.68,1.75-3.47,2.3-5.36.7-2.57,1.16-5.18,1.4-7.85h-6.62c-.22.48-.42.94-.61,1.37.22,2.33.66,4.62,1.33,6.88Z"/>
      <path class="cls-1" d="M448.06,60.15v-2.05l7.42-4.72h-16.88v-1.91h20.38v1.87l-8.82,5.54v1.26h14.76v1.94h-14.76v5.54c0,.77-.07,1.5-.22,2.2-.12.5-.36.94-.72,1.3-.31.22-.66.37-1.04.47-.74.14-1.49.22-2.23.22h-4.79l-.4-1.91h4.5c.5,0,1.01-.05,1.51-.14.26-.05.49-.16.68-.32.24-.22.4-.48.47-.79.1-.5.14-1.01.14-1.51v-5.04h-15.16v-1.94h15.16ZM448.99,45.03c-.84-1.49-1.68-2.98-2.52-4.46l2.05-.61,2.84,5.08h11.92v7.2h-2.09v-5.29h-24.55v5.26h-2.05v-7.16h14.4Z"/>
      <path class="cls-1" d="M473.91,47.52v-7.02h1.8v7.02h4.75v1.8h-4.75v4.28l1.12-1.01c1.3,1.66,2.58,3.32,3.85,5l-1.44,1.12c-1.18-1.58-2.35-3.17-3.53-4.75v18.65h-1.8v-18.25c-1.27,3.26-2.83,6.37-4.68,9.32l-1.26-1.66c2.52-3.94,4.44-8.17,5.76-12.71h-4.82v-1.8h5ZM488.77,62.92c.02-.22.05-.46.07-.72.02-.7.04-1.4.04-2.12h-7.52v-10.66h17.03v10.66h-7.56c-.05.72-.06,1.43-.04,2.12-.02.26-.04.5-.04.72h10.19v1.73h-9.83c.91,1.7,2.21,3.01,3.89,3.92.77.41,1.57.77,2.41,1.08,1.34.48,2.72.89,4.14,1.22l-.58,1.84c-2.33-.55-4.55-1.38-6.66-2.48-1.87-.98-3.36-2.38-4.46-4.18-.46.82-1.01,1.55-1.66,2.2-.79.7-1.66,1.31-2.59,1.84-1.18.65-2.39,1.2-3.64,1.66-1.15.38-2.3.74-3.46,1.08l-.72-1.76c1.49-.38,2.95-.84,4.39-1.37.86-.34,1.69-.72,2.48-1.15.86-.48,1.64-1.07,2.34-1.76.58-.62,1.03-1.33,1.37-2.12h-9.25v-1.73h9.65ZM485.14,44.13v-3.78h1.84v3.78h6.05v-3.78h1.87v3.78h6.05v1.76h-6.05v2.77h-1.87v-2.77h-6.05v2.77h-1.84v-2.77h-5.11v-1.76h5.11ZM483.12,54h13.5v-3.02h-13.5v3.02ZM496.62,58.53v-3.1h-13.5v3.1h13.5Z"/>
      <path class="cls-1" d="M520.17,62.67v-2.95h2.02v2.95h11.16v1.8h-11.16v4.97h14.83v1.84h-32.08v-1.84h15.23v-4.97h-11.45v-1.8h11.45ZM510.23,50.72c.02-.46.04-.94.04-1.44v-4.72h-4.18v-1.8h17.86v1.8h-4.32v6.16h5.15v1.8h-5.15v6.98h-1.91v-6.98h-5.69c-.1.94-.25,1.85-.47,2.74-.22.82-.53,1.6-.94,2.34-.34.58-.72,1.13-1.15,1.66-.7.82-1.44,1.57-2.23,2.27l-1.55-1.19c1.2-1.03,2.24-2.22,3.13-3.56.77-1.3,1.21-2.71,1.33-4.25h-5.04v-1.8h5.11ZM512.1,50.72h5.62v-6.16h-5.58v4.72c0,.5-.01.98-.04,1.44ZM527.8,43.09v12.42h-1.87v-12.42h1.87ZM529.74,57.45c.48.02.95-.01,1.4-.11.33-.07.63-.22.9-.43.14-.17.25-.37.32-.61.12-.41.18-.83.18-1.26v-13.93h1.91v14.36c0,.65-.08,1.28-.25,1.91-.14.46-.4.85-.76,1.19-.31.22-.66.37-1.04.47-.7.14-1.39.2-2.09.18h-3.17l-.36-1.76h2.95Z"/>
      <path class="cls-1" d="M544.61,66.13v4.1h-2.81v-4.1h2.81ZM544.39,44.1v14.04l-.22,4.64h-1.91l-.22-4.64v-14.04h2.34Z"/>
    </g>
  </g>
</svg>