<?xml version="1.0" encoding="UTF-8"?>
<svg id="_图层_2" data-name="图层 2" xmlns="http://www.w3.org/2000/svg" xmlns:xlink="http://www.w3.org/1999/xlink" viewBox="0 0 173.79 48.11">
  <defs>
    <style>
      .cls-1 {
        fill: #fff;
        stroke-width: 0px;
      }

      .cls-2 {
        fill: url(#_未命名的渐变_15);
        stroke: #fff;
        stroke-linecap: round;
        stroke-miterlimit: 10;
        stroke-width: 5px;
      }
    </style>
    <linearGradient id="_未命名的渐变_15" data-name="未命名的渐变 15" x1="65.8" y1="82.16" x2="107.99" y2="9.07" gradientUnits="userSpaceOnUse">
      <stop offset="0" stop-color="#fff" stop-opacity=".05"/>
      <stop offset=".99" stop-color="#fff" stop-opacity=".3"/>
      <stop offset="1" stop-color="#fff" stop-opacity=".2"/>
    </linearGradient>
  </defs>
  <g id="_图层_1-2" data-name="图层 1">
    <g>
      <path class="cls-1" d="M8.65,25.63V0h16.88v4.46h-11.88v6.01h10.11v4.46h-10.11v6.23h11.88v4.46H8.65Z"/>
      <path class="cls-1" d="M40.36,25.63l-3.46-5.62-3.42,5.62h-5.62l6.48-9.57-6.23-9.18h5.62l3.17,5.36,3.2-5.36h5.62l-6.23,9.18,6.48,9.57h-5.62Z"/>
      <path class="cls-1" d="M55.77,25.84c-3.74,0-8.39-2.02-8.39-9.61s4.64-9.57,8.39-9.57c2.59,0,4.54.79,6.19,2.52l-3.17,3.17c-.97-1.04-1.8-1.48-3.02-1.48-1.12,0-1.98.4-2.66,1.22-.72.9-1.04,2.16-1.04,4.14s.32,3.28,1.04,4.18c.68.83,1.55,1.22,2.66,1.22,1.22,0,2.05-.43,3.02-1.48l3.17,3.13c-1.66,1.73-3.6,2.56-6.19,2.56Z"/>
      <path class="cls-1" d="M76.36,25.63v-11.45c0-2.48-1.58-3.31-3.06-3.31s-3.02.86-3.02,3.31v11.45h-4.68V0h4.68v8.6c1.26-1.3,2.84-1.94,4.5-1.94,4.1,0,6.26,2.88,6.26,6.84v12.13h-4.68Z"/>
      <path class="cls-1" d="M95.7,25.63v-1.62c-1.26,1.26-2.45,1.8-4.61,1.8s-3.67-.54-4.79-1.66c-1.01-1.04-1.55-2.56-1.55-4.21,0-2.99,2.05-5.44,6.41-5.44h4.43v-.94c0-2.05-1.01-2.95-3.49-2.95-1.8,0-2.63.43-3.6,1.55l-2.99-2.92c1.84-2.02,3.64-2.59,6.77-2.59,5.25,0,7.99,2.23,7.99,6.62v12.35h-4.57ZM95.59,17.71h-3.71c-1.69,0-2.63.79-2.63,2.12s.86,2.16,2.7,2.16c1.3,0,2.12-.11,2.95-.9.5-.47.68-1.22.68-2.38v-1.01Z"/>
      <path class="cls-1" d="M116.21,25.63v-11.34c0-2.56-1.62-3.42-3.1-3.42s-3.13.86-3.13,3.42v11.34h-4.68V6.88h4.57v1.73c1.22-1.3,2.95-1.94,4.68-1.94,1.87,0,3.38.61,4.43,1.66,1.51,1.51,1.91,3.28,1.91,5.33v11.99h-4.68Z"/>
      <path class="cls-1" d="M132.42,32.72c-2.88,0-4.86-.58-6.8-2.45l2.92-2.95c1.04,1.01,2.09,1.44,3.67,1.44,2.81,0,3.78-1.98,3.78-3.89v-1.91c-1.22,1.37-2.63,1.87-4.46,1.87s-3.42-.61-4.46-1.66c-1.76-1.76-1.91-4.18-1.91-7.45s.14-5.65,1.91-7.42c1.04-1.04,2.66-1.66,4.5-1.66,1.98,0,3.28.54,4.57,1.98v-1.76h4.54v18.07c0,4.5-3.2,7.78-8.24,7.78ZM132.88,10.87c-2.77,0-3.06,2.38-3.06,4.86s.29,4.9,3.06,4.9,3.1-2.41,3.1-4.9-.32-4.86-3.1-4.86Z"/>
      <path class="cls-1" d="M149.59,17.71c0,2.41,1.48,4.18,4.1,4.18,2.05,0,3.06-.58,4.25-1.76l2.84,2.77c-1.91,1.91-3.74,2.95-7.13,2.95-4.43,0-8.67-2.02-8.67-9.61,0-6.12,3.31-9.57,8.17-9.57,5.22,0,8.17,3.82,8.17,8.96v2.09h-11.73ZM156.28,12.49c-.5-1.12-1.55-1.94-3.13-1.94s-2.63.83-3.13,1.94c-.29.68-.4,1.19-.43,2.02h7.13c-.04-.83-.14-1.33-.43-2.02Z"/>
    </g>
    <line class="cls-2" x1="2.5" y1="45.61" x2="171.29" y2="45.61"/>
  </g>
</svg>