<?xml version="1.0" encoding="UTF-8"?>
<svg id="_图层_2" data-name="图层 2" xmlns="http://www.w3.org/2000/svg" viewBox="0 0 379 58.63">
  <defs>
    <style>
      .cls-1 {
        fill: none;
        stroke: #010300;
        stroke-miterlimit: 10;
        stroke-width: 4px;
      }

      .cls-2 {
        fill: #040500;
        stroke-width: 0px;
      }
    </style>
  </defs>
  <g id="_图层_1-2" data-name="图层 1">
    <line class="cls-1" y1="56.63" x2="379" y2="56.63"/>
    <g>
      <path class="cls-2" d="M5.63,28.69V3.06h5v25.63h-5Z"/>
      <path class="cls-2" d="M27.15,28.69v-11.34c0-2.56-1.62-3.42-3.1-3.42s-3.13.86-3.13,3.42v11.34h-4.68V9.94h4.57v1.73c1.22-1.3,2.95-1.94,4.68-1.94,1.87,0,3.38.61,4.43,1.66,1.51,1.51,1.91,3.28,1.91,5.33v11.99h-4.68Z"/>
      <path class="cls-2" d="M42.74,28.69c-3.82,0-5.44-2.7-5.44-5.36v-9.29h-1.98v-3.56h1.98v-5.54h4.68v5.54h3.31v3.56h-3.31v9c0,1.08.5,1.69,1.62,1.69h1.69v3.96h-2.56Z"/>
      <path class="cls-2" d="M59.73,15.05c-.72-.72-1.33-1.12-2.48-1.12-1.44,0-3.02,1.08-3.02,3.46v11.3h-4.68V9.94h4.57v1.8c.9-1.08,2.7-2.02,4.71-2.02,1.84,0,3.13.47,4.43,1.76l-3.53,3.56Z"/>
      <path class="cls-2" d="M77.77,26.6c-1.15,1.22-3.06,2.3-5.83,2.3s-4.64-1.08-5.79-2.3c-1.69-1.76-2.12-3.89-2.12-7.31s.43-5.51,2.12-7.27c1.15-1.22,3.02-2.3,5.79-2.3s4.68,1.08,5.83,2.3c1.69,1.76,2.12,3.89,2.12,7.27s-.43,5.54-2.12,7.31ZM74.13,14.76c-.54-.54-1.26-.83-2.2-.83s-1.62.29-2.16.83c-.97.97-1.08,2.59-1.08,4.54s.11,3.6,1.08,4.57c.54.54,1.22.83,2.16.83s1.66-.29,2.2-.83c.97-.97,1.08-2.63,1.08-4.57s-.11-3.56-1.08-4.54Z"/>
      <path class="cls-2" d="M94.72,28.69v-1.76c-1.3,1.44-2.66,1.98-4.64,1.98-1.83,0-3.56-.65-4.61-1.69-1.87-1.87-1.91-5.11-1.91-7.92s.04-6.01,1.91-7.88c1.04-1.04,2.74-1.69,4.57-1.69s3.35.5,4.57,1.87V3.06h4.68v25.63h-4.57ZM91.41,13.93c-2.81,0-3.17,2.3-3.17,5.36s.36,5.4,3.17,5.4,3.2-2.34,3.2-5.4-.4-5.36-3.2-5.36Z"/>
      <path class="cls-2" d="M115.35,28.69v-1.73c-1.22,1.3-2.95,1.94-4.68,1.94-1.87,0-3.38-.61-4.43-1.66-1.51-1.51-1.91-3.28-1.91-5.33v-11.99h4.68v11.34c0,2.56,1.62,3.42,3.1,3.42s3.13-.86,3.13-3.42v-11.34h4.68v18.75h-4.57Z"/>
      <path class="cls-2" d="M132.63,28.91c-3.74,0-8.39-2.02-8.39-9.61s4.64-9.57,8.39-9.57c2.59,0,4.54.79,6.19,2.52l-3.17,3.17c-.97-1.04-1.8-1.48-3.02-1.48-1.12,0-1.98.4-2.66,1.22-.72.9-1.04,2.16-1.04,4.14s.32,3.28,1.04,4.18c.68.83,1.55,1.22,2.66,1.22,1.22,0,2.05-.43,3.02-1.48l3.17,3.13c-1.66,1.73-3.6,2.56-6.19,2.56Z"/>
      <path class="cls-2" d="M148.33,28.69c-3.82,0-5.44-2.7-5.44-5.36v-9.29h-1.98v-3.56h1.98v-5.54h4.68v5.54h3.31v3.56h-3.31v9c0,1.08.5,1.69,1.62,1.69h1.69v3.96h-2.56Z"/>
      <path class="cls-2" d="M155.06,6.73v-3.82h4.79v3.82h-4.79ZM155.13,28.69V9.94h4.68v18.75h-4.68Z"/>
      <path class="cls-2" d="M177.99,26.6c-1.15,1.22-3.06,2.3-5.83,2.3s-4.64-1.08-5.79-2.3c-1.69-1.76-2.12-3.89-2.12-7.31s.43-5.51,2.12-7.27c1.15-1.22,3.02-2.3,5.79-2.3s4.68,1.08,5.83,2.3c1.69,1.76,2.12,3.89,2.12,7.27s-.43,5.54-2.12,7.31ZM174.35,14.76c-.54-.54-1.26-.83-2.2-.83s-1.62.29-2.16.83c-.97.97-1.08,2.59-1.08,4.54s.11,3.6,1.08,4.57c.54.54,1.22.83,2.16.83s1.66-.29,2.2-.83c.97-.97,1.08-2.63,1.08-4.57s-.11-3.56-1.08-4.54Z"/>
      <path class="cls-2" d="M195.49,28.69v-11.34c0-2.56-1.62-3.42-3.1-3.42s-3.13.86-3.13,3.42v11.34h-4.68V9.94h4.57v1.73c1.22-1.3,2.95-1.94,4.68-1.94,1.87,0,3.38.61,4.43,1.66,1.51,1.51,1.91,3.28,1.91,5.33v11.99h-4.68Z"/>
      <path class="cls-2" d="M214.89,31.36V.4h4.68v30.96h-4.68Z"/>
      <path class="cls-2" d="M234.37,9.32l7.24,5.4-1.19,1.69-7.24-5.47,1.19-1.62ZM236.82,31.75l-1.94-.72c1.63-3.94,3.23-7.9,4.79-11.88l.97.32,1.01.36c-1.61,3.98-3.22,7.96-4.82,11.92ZM236.28,1.37c2.23,1.66,4.46,3.31,6.7,4.97l-1.19,1.66c-2.18-1.73-4.4-3.41-6.66-5.04l1.15-1.58ZM253.09,19.08v-5.98h-10.08v-1.98h10.08v-6.26c-2.93.26-5.84.44-8.75.54l-.11-1.91c3.67-.12,7.33-.36,10.98-.72,2.81-.26,5.6-.62,8.39-1.08l.36,1.91c-2.93.48-5.86.84-8.78,1.08v6.44h10.94v1.98h-10.94v5.98h7.81v13.36h-2.09v-2.12h-13.54v2.12h-2.05v-13.36h7.78ZM247.36,28.4h13.54v-7.38h-13.54v7.38Z"/>
      <path class="cls-2" d="M281.31,17.35c1.51,3.29,2.99,6.59,4.43,9.9l-1.8.9-.54-1.3c-3.6.24-7.19.49-10.76.76-.7.1-1.36.24-1.98.43l-.72-2.02c.6-.17,1.04-.54,1.33-1.12.91-1.7,1.74-3.46,2.48-5.26.77-1.8,1.46-3.65,2.09-5.54h-5.9v-1.94h15.73v1.94h-7.7c-.72,2.23-1.54,4.42-2.45,6.55-.7,1.68-1.46,3.3-2.3,4.86,3.12-.17,6.24-.36,9.36-.58-1.01-2.3-2.03-4.6-3.06-6.88l1.8-.72ZM284.48,3.1v1.94h-13.03v-1.94h13.03ZM286.03,26.89c.91-1.49,1.61-3.07,2.09-4.75.38-1.46.67-2.95.86-4.46.31-2.71.5-5.45.58-8.21v-.43h-5.18v-1.94h5.22c.05-2.35.11-4.72.18-7.09h1.94c-.05,2.38-.1,4.74-.14,7.09h8.78c-.24,6.55-.49,13.09-.76,19.62-.02.74-.16,1.44-.4,2.09-.17.41-.4.77-.68,1.08-.46.38-.97.65-1.55.79-.79.17-1.58.25-2.38.25h-4.36l-.4-1.98h4c.62,0,1.25-.06,1.87-.18.46-.05.85-.22,1.19-.5.22-.24.38-.5.5-.79.17-.53.26-1.08.29-1.66.24-5.57.47-11.16.68-16.78h-6.88v.32c-.1,2.83-.28,5.65-.54,8.46-.24,2.04-.66,4.06-1.26,6.05-.48,1.3-1.07,2.54-1.76,3.74-1.13,1.78-2.39,3.46-3.78,5.04l-1.73-1.19c1.32-1.46,2.52-2.99,3.6-4.57Z"/>
      <path class="cls-2" d="M310.58,11.59c1.58-1.1,3.07-2.34,4.46-3.71,2.35-2.3,4.3-4.91,5.83-7.81h1.94c1.8,3.43,4.13,6.44,6.98,9.04,2.62,2.26,5.51,4.09,8.68,5.51l-1.15,1.98c-6.67-3.1-11.82-7.84-15.44-14.22-1.94,3.22-4.31,6.07-7.09,8.57-2.59,2.28-5.41,4.22-8.46,5.83l-1.19-1.91c1.87-.96,3.68-2.05,5.44-3.28ZM311.37,28.04c.7-.67,1.32-1.4,1.87-2.2.62-1.03,1.06-2.14,1.3-3.31.26-1.46.4-2.94.4-4.43v-5.22h2.09v5.08c0,1.7-.14,3.38-.43,5.04-.26,1.39-.74,2.69-1.44,3.89-.58.91-1.25,1.74-2.02,2.48-1.32,1.22-2.74,2.33-4.25,3.31l-1.37-1.69c1.37-.91,2.65-1.9,3.85-2.95ZM328.76,12.85v19.19h-2.09V12.85h2.09Z"/>
      <path class="cls-2" d="M341.58,29.88l-.29-1.98c4.39-.84,8.8-1.72,13.21-2.63l.11,1.15.07.83c-4.39.86-8.76,1.74-13.1,2.63ZM343.63,19.62c.24-.17.46-.38.65-.65,1.73-2.14,3.34-4.37,4.82-6.7-1.82.12-3.65.22-5.47.29-.53.07-1.03.17-1.51.29l-.4-1.87c.46-.12.85-.37,1.19-.76,1.17-1.51,2.23-3.1,3.17-4.75,1.01-1.75,1.93-3.54,2.77-5.36l1.76.76c-.96,1.97-2,3.89-3.13,5.76-.84,1.44-1.76,2.81-2.77,4.1l5.58-.25c.86-1.34,1.69-2.74,2.48-4.18l1.69.79c-1.22,2.23-2.54,4.39-3.96,6.48-1.37,2.06-2.82,4.07-4.36,6.01l7.6-.97.04,1.91c-2.95.36-5.88.73-8.78,1.12-.65.1-1.28.23-1.91.4l-.58-1.94c.38-.1.76-.25,1.12-.47ZM355.44,13.9c.86-.72,1.62-1.54,2.27-2.45.53-.82.95-1.69,1.26-2.63.29-1.06.5-2.12.65-3.2.05-.41.1-.83.14-1.26h-5.29v-1.94h17.64l-.54,7.99c-.07.74-.23,1.46-.47,2.16-.19.53-.5.97-.94,1.33-.34.24-.7.43-1.08.58-.7.17-1.4.24-2.12.22h-3.96l-.4-1.94h3.71c.53.02,1.04-.02,1.55-.14.38-.07.72-.25,1.01-.54.19-.22.35-.46.47-.72.14-.48.24-.98.29-1.51l.47-5.47h-8.42c-.07.53-.13,1.06-.18,1.58-.17,1.2-.42,2.38-.76,3.53-.36,1.06-.84,2.06-1.44,3.02-.7,1.03-1.5,1.97-2.41,2.81-.86.74-1.76,1.43-2.7,2.05l-1.3-1.62c.89-.55,1.74-1.16,2.56-1.84ZM371.56,18.18v14.15h-1.84v-2.23h-11.84v2.23h-1.84v-14.15h15.52ZM357.88,28.26h11.84v-8.24h-11.84v8.24Z"/>
    </g>
  </g>
</svg>