<?xml version="1.0" encoding="UTF-8"?>
<svg id="_图层_2" data-name="图层 2" xmlns="http://www.w3.org/2000/svg" viewBox="0 0 610.84 36.4">
  <defs>
    <style>
      .cls-1 {
        fill: #242a74;
        stroke-width: 0px;
      }
    </style>
  </defs>
  <g id="_图层_1-2" data-name="图层 1">
    <g>
      <path class="cls-1" d="M0,29.3V3.68h5v21.17h11.63v4.46H0Z"/>
      <path class="cls-1" d="M24.01,21.39c0,2.41,1.48,4.18,4.1,4.18,2.05,0,3.06-.58,4.25-1.76l2.84,2.77c-1.91,1.91-3.74,2.95-7.13,2.95-4.43,0-8.67-2.02-8.67-9.61,0-6.12,3.31-9.57,8.17-9.57,5.22,0,8.17,3.82,8.17,8.96v2.09h-11.73ZM30.71,16.17c-.5-1.12-1.55-1.94-3.13-1.94s-2.63.83-3.13,1.94c-.29.68-.4,1.19-.43,2.02h7.13c-.04-.83-.14-1.33-.43-2.02Z"/>
      <path class="cls-1" d="M49.68,29.3v-1.62c-1.26,1.26-2.45,1.8-4.61,1.8s-3.67-.54-4.79-1.66c-1.01-1.04-1.55-2.56-1.55-4.21,0-2.99,2.05-5.44,6.41-5.44h4.43v-.94c0-2.05-1.01-2.95-3.49-2.95-1.8,0-2.63.43-3.6,1.55l-2.99-2.92c1.84-2.02,3.64-2.59,6.77-2.59,5.26,0,7.99,2.23,7.99,6.62v12.35h-4.57ZM49.57,21.39h-3.71c-1.69,0-2.63.79-2.63,2.12s.86,2.16,2.7,2.16c1.3,0,2.12-.11,2.95-.9.5-.47.68-1.22.68-2.38v-1.01Z"/>
      <path class="cls-1" d="M67.39,29.3h-3.67l-6.91-18.75h4.93l3.82,11.59,3.78-11.59h4.93l-6.88,18.75Z"/>
      <path class="cls-1" d="M80.35,21.39c0,2.41,1.48,4.18,4.1,4.18,2.05,0,3.06-.58,4.25-1.76l2.84,2.77c-1.91,1.91-3.74,2.95-7.13,2.95-4.43,0-8.67-2.02-8.67-9.61,0-6.12,3.31-9.57,8.17-9.57,5.22,0,8.17,3.82,8.17,8.96v2.09h-11.73ZM87.04,16.17c-.5-1.12-1.55-1.94-3.13-1.94s-2.63.83-3.13,1.94c-.29.68-.4,1.19-.43,2.02h7.13c-.04-.83-.14-1.33-.43-2.02Z"/>
      <path class="cls-1" d="M114.37,29.3v-1.62c-1.26,1.26-2.45,1.8-4.61,1.8s-3.67-.54-4.79-1.66c-1.01-1.04-1.55-2.56-1.55-4.21,0-2.99,2.05-5.44,6.41-5.44h4.43v-.94c0-2.05-1.01-2.95-3.49-2.95-1.8,0-2.63.43-3.6,1.55l-2.99-2.92c1.84-2.02,3.64-2.59,6.77-2.59,5.26,0,7.99,2.23,7.99,6.62v12.35h-4.57ZM114.26,21.39h-3.71c-1.69,0-2.63.79-2.63,2.12s.86,2.16,2.7,2.16c1.3,0,2.12-.11,2.95-.9.5-.47.68-1.22.68-2.38v-1.01Z"/>
      <path class="cls-1" d="M154.15,29.3v-11.34c0-2.56-1.62-3.42-3.1-3.42s-3.13.86-3.13,3.31v11.45h-4.68v-11.34c0-2.56-1.62-3.42-3.1-3.42s-3.13.86-3.13,3.42v11.34h-4.68V10.55h4.57v1.73c1.22-1.26,2.95-1.94,4.68-1.94,2.09,0,3.78.76,4.97,2.38,1.58-1.66,3.28-2.38,5.62-2.38,1.87,0,3.56.61,4.61,1.66,1.51,1.51,2.05,3.28,2.05,5.33v11.99h-4.68Z"/>
      <path class="cls-1" d="M167.54,21.39c0,2.41,1.47,4.18,4.1,4.18,2.05,0,3.06-.58,4.25-1.76l2.84,2.77c-1.91,1.91-3.74,2.95-7.13,2.95-4.43,0-8.67-2.02-8.67-9.61,0-6.12,3.31-9.57,8.17-9.57,5.22,0,8.17,3.82,8.17,8.96v2.09h-11.73ZM174.24,16.17c-.5-1.12-1.55-1.94-3.13-1.94s-2.63.83-3.13,1.94c-.29.68-.4,1.19-.43,2.02h7.13c-.04-.83-.14-1.33-.43-2.02Z"/>
      <path class="cls-1" d="M189.75,29.52c-2.95,0-5.62-.32-7.99-2.7l3.06-3.06c1.55,1.55,3.56,1.76,5,1.76,1.62,0,3.31-.54,3.31-1.94,0-.94-.5-1.58-1.98-1.73l-2.95-.29c-3.38-.32-5.47-1.8-5.47-5.25,0-3.89,3.42-5.98,7.24-5.98,2.92,0,5.36.5,7.16,2.2l-2.88,2.92c-1.08-.97-2.74-1.26-4.36-1.26-1.87,0-2.66.86-2.66,1.8,0,.68.29,1.48,1.94,1.62l2.95.29c3.71.36,5.58,2.34,5.58,5.51,0,4.14-3.53,6.12-7.96,6.12Z"/>
      <path class="cls-1" d="M207.57,29.52c-2.95,0-5.62-.32-7.99-2.7l3.06-3.06c1.55,1.55,3.56,1.76,5,1.76,1.62,0,3.31-.54,3.31-1.94,0-.94-.5-1.58-1.98-1.73l-2.95-.29c-3.38-.32-5.47-1.8-5.47-5.25,0-3.89,3.42-5.98,7.23-5.98,2.92,0,5.36.5,7.16,2.2l-2.88,2.92c-1.08-.97-2.73-1.26-4.36-1.26-1.87,0-2.66.86-2.66,1.8,0,.68.29,1.48,1.94,1.62l2.95.29c3.71.36,5.58,2.34,5.58,5.51,0,4.14-3.53,6.12-7.96,6.12Z"/>
      <path class="cls-1" d="M229.06,29.3v-1.62c-1.26,1.26-2.45,1.8-4.61,1.8s-3.67-.54-4.79-1.66c-1.01-1.04-1.55-2.56-1.55-4.21,0-2.99,2.05-5.44,6.41-5.44h4.43v-.94c0-2.05-1.01-2.95-3.49-2.95-1.8,0-2.63.43-3.6,1.55l-2.99-2.92c1.84-2.02,3.64-2.59,6.77-2.59,5.26,0,7.99,2.23,7.99,6.62v12.35h-4.57ZM228.96,21.39h-3.71c-1.69,0-2.63.79-2.63,2.12s.86,2.16,2.7,2.16c1.3,0,2.12-.11,2.95-.9.5-.47.68-1.22.68-2.38v-1.01Z"/>
      <path class="cls-1" d="M245.16,36.4c-2.88,0-4.86-.58-6.8-2.45l2.92-2.95c1.04,1.01,2.09,1.44,3.67,1.44,2.81,0,3.78-1.98,3.78-3.89v-1.91c-1.22,1.37-2.63,1.87-4.46,1.87s-3.42-.61-4.46-1.66c-1.76-1.76-1.91-4.18-1.91-7.45s.14-5.65,1.91-7.42c1.04-1.04,2.66-1.66,4.5-1.66,1.98,0,3.28.54,4.57,1.98v-1.76h4.54v18.07c0,4.5-3.2,7.78-8.24,7.78ZM245.62,14.55c-2.77,0-3.06,2.38-3.06,4.86s.29,4.9,3.06,4.9,3.1-2.41,3.1-4.9-.32-4.86-3.1-4.86Z"/>
      <path class="cls-1" d="M262.33,21.39c0,2.41,1.48,4.18,4.1,4.18,2.05,0,3.06-.58,4.25-1.76l2.84,2.77c-1.91,1.91-3.74,2.95-7.13,2.95-4.43,0-8.67-2.02-8.67-9.61,0-6.12,3.31-9.57,8.17-9.57,5.22,0,8.17,3.82,8.17,8.96v2.09h-11.73ZM269.02,16.17c-.5-1.12-1.55-1.94-3.13-1.94s-2.63.83-3.13,1.94c-.29.68-.4,1.19-.43,2.02h7.13c-.04-.83-.14-1.33-.43-2.02Z"/>
      <path class="cls-1" d="M292.6,29.3c-3.82,0-5.44-2.7-5.44-5.36v-9.29h-1.98v-3.56h1.98v-5.54h4.68v5.54h3.31v3.56h-3.31v9c0,1.08.5,1.69,1.62,1.69h1.69v3.96h-2.56Z"/>
      <path class="cls-1" d="M312.26,27.22c-1.15,1.22-3.06,2.3-5.83,2.3s-4.64-1.08-5.79-2.3c-1.69-1.76-2.12-3.89-2.12-7.31s.43-5.51,2.12-7.27c1.15-1.22,3.02-2.3,5.79-2.3s4.68,1.08,5.83,2.3c1.69,1.76,2.12,3.89,2.12,7.27s-.43,5.54-2.12,7.31ZM308.62,15.37c-.54-.54-1.26-.83-2.2-.83s-1.62.29-2.16.83c-.97.97-1.08,2.59-1.08,4.54s.11,3.6,1.08,4.57c.54.54,1.22.83,2.16.83s1.66-.29,2.2-.83c.97-.97,1.08-2.63,1.08-4.57s-.11-3.56-1.08-4.54Z"/>
      <path class="cls-1" d="M332.49,29.3c-3.85,0-5.47-2.7-5.47-5.36V3.68h4.68v19.98c0,1.12.47,1.69,1.66,1.69h1.8v3.96h-2.66Z"/>
      <path class="cls-1" d="M338.83,7.35v-3.82h4.79v3.82h-4.79ZM338.9,29.3V10.55h4.68v18.75h-4.68Z"/>
      <path class="cls-1" d="M355.28,36.4c-2.88,0-4.86-.58-6.8-2.45l2.92-2.95c1.04,1.01,2.09,1.44,3.67,1.44,2.81,0,3.78-1.98,3.78-3.89v-1.91c-1.22,1.37-2.63,1.87-4.46,1.87s-3.42-.61-4.46-1.66c-1.76-1.76-1.91-4.18-1.91-7.45s.14-5.65,1.91-7.42c1.04-1.04,2.66-1.66,4.5-1.66,1.98,0,3.28.54,4.57,1.98v-1.76h4.54v18.07c0,4.5-3.2,7.78-8.24,7.78ZM355.74,14.55c-2.77,0-3.06,2.38-3.06,4.86s.29,4.9,3.06,4.9,3.1-2.41,3.1-4.9-.32-4.86-3.1-4.86Z"/>
      <path class="cls-1" d="M379.54,29.3v-11.45c0-2.48-1.58-3.31-3.06-3.31s-3.02.86-3.02,3.31v11.45h-4.68V3.68h4.68v8.6c1.26-1.3,2.84-1.94,4.5-1.94,4.1,0,6.26,2.88,6.26,6.84v12.13h-4.68Z"/>
      <path class="cls-1" d="M395.13,29.3c-3.82,0-5.44-2.7-5.44-5.36v-9.29h-1.98v-3.56h1.98v-5.54h4.68v5.54h3.31v3.56h-3.31v9c0,1.08.5,1.69,1.62,1.69h1.69v3.96h-2.56Z"/>
      <path class="cls-1" d="M421.08,29.3v-1.73c-1.22,1.3-2.95,1.94-4.68,1.94-1.87,0-3.38-.61-4.43-1.66-1.51-1.51-1.91-3.28-1.91-5.33v-11.99h4.68v11.34c0,2.56,1.62,3.42,3.09,3.42s3.13-.86,3.13-3.42v-11.34h4.68v18.75h-4.57Z"/>
      <path class="cls-1" d="M444.7,27.83c-1.04,1.04-2.74,1.69-4.57,1.69s-3.31-.5-4.54-1.87v8.53h-4.68V10.55h4.54v1.76c1.3-1.44,2.7-1.98,4.68-1.98,1.84,0,3.53.65,4.57,1.69,1.87,1.87,1.91,5.08,1.91,7.88s-.04,6.05-1.91,7.92ZM438.76,14.55c-2.81,0-3.17,2.3-3.17,5.36s.36,5.4,3.17,5.4,3.17-2.34,3.17-5.4-.36-5.36-3.17-5.36Z"/>
      <path class="cls-1" d="M457.12,21.28h-3.53l-1.12-17.6h5.76l-1.12,17.6ZM452.87,29.3v-4.79h4.97v4.79h-4.97Z"/>
      <path class="cls-1" d="M473.54,13.21c.12-.17.18-.37.18-.61V3.53c4.03-.55,8.04-1.33,12.02-2.34l.58,1.73c-3.55.91-7.12,1.64-10.69,2.2v7.56c2.52-.96,5.04-1.96,7.56-2.99-.7-1.03-1.38-2.06-2.05-3.1l1.44-.83c1.42,2.14,2.83,4.26,4.25,6.37l-1.51.86c-.41-.6-.8-1.21-1.19-1.84-2.88,1.1-5.75,2.22-8.6,3.35-.67.24-1.29.55-1.84.94l-.87-1.62c.26-.17.5-.37.72-.61ZM499.49,17.35v15.48h-1.98v-1.84h-20.48v1.84h-2.02v-15.48h24.48ZM477.03,23.36h9.22v-4.39h-9.22v4.39ZM477.03,29.38h9.22v-4.39h-9.22v4.39ZM501.25,3.17l-.61,7.67c-.05.67-.19,1.32-.43,1.94-.17.36-.38.67-.65.94-.43.34-.91.56-1.44.68-.77.14-1.52.2-2.27.18h-3.6l-.32-1.73h3.38c.43.02.88,0,1.33-.07.43-.05.83-.18,1.19-.4.29-.19.5-.43.65-.72.14-.36.24-.74.29-1.15l.47-5.62h-7.06c-.12.96-.25,1.9-.4,2.81-.29,1.75-.91,3.36-1.87,4.82-.58.82-1.24,1.56-1.98,2.23-.7.62-1.42,1.2-2.16,1.73l-1.4-1.33c.91-.62,1.79-1.32,2.63-2.09.48-.46.92-.95,1.33-1.48.94-1.3,1.49-2.76,1.66-4.39l.29-2.3h-3.46v-1.73h14.44ZM488.22,18.97v4.39h9.29v-4.39h-9.29ZM488.22,29.38h9.29v-4.39h-9.29v4.39Z"/>
      <path class="cls-1" d="M522.96.43c.96,1.56,1.91,3.12,2.84,4.68h13.82v1.84h-32.72v-1.84h16.6c-.84-1.34-1.69-2.68-2.56-4l2.02-.68ZM535.31,21.24v11.45h-1.98v-2.3h-20.16v2.34h-1.98v-11.48h24.12ZM534.99,10.55v1.76h-23.47v-1.76h23.47ZM534.99,15.84v1.8h-23.47v-1.8h23.47ZM513.17,28.58h20.16v-5.54h-20.16v5.54Z"/>
      <path class="cls-1" d="M545.93,27.58c.67-1.22,1.26-2.5,1.76-3.82l1.84.76c-1.25,2.95-2.74,5.76-4.46,8.42l-1.8-1.01c.96-1.42,1.85-2.87,2.66-4.36ZM557.24,11.3V.76h2.09v3.96h14.69v1.98h-14.69v4.61h11.88v10.94h-23.87v-10.94h9.9ZM549.35,20.34h19.84v-7.09h-19.84v7.09ZM554.86,24.41c.7,2.47,1.33,4.96,1.91,7.45l-2.02.4c-.48-2.5-1.07-4.97-1.76-7.42l1.87-.43ZM562.74,24.12c1.1,2.38,2.11,4.79,3.02,7.24l-1.91.54c-.86-2.42-1.84-4.81-2.92-7.16l1.8-.61ZM570.27,23.65c1.68,2.57,3.29,5.17,4.82,7.81l-1.73,1.01c-1.54-2.69-3.14-5.34-4.82-7.96l1.73-.86Z"/>
      <path class="cls-1" d="M583.95,29.66c.77-.26,1.49-.62,2.16-1.08.65-.48,1.13-1.08,1.44-1.8.24-.77.36-1.57.36-2.41v-2.23h13.79v6.12c-.02.36,0,.7.07,1.01.05.14.13.29.25.43.19.17.42.28.68.32.36.07.73.11,1.12.11h1.8c.46,0,.91-.05,1.37-.14.24-.05.46-.14.65-.29.24-.17.41-.38.5-.65.1-.36.17-.73.22-1.12.05-1.06.1-2.12.14-3.2l1.91.4c-.05,1.2-.11,2.38-.18,3.53-.05.58-.18,1.14-.4,1.69-.14.31-.34.59-.58.83-.38.31-.82.53-1.3.65-.67.12-1.34.18-2.02.18h-2.7c-.62,0-1.22-.06-1.8-.18-.34-.1-.64-.24-.9-.43-.31-.26-.53-.59-.65-.97-.14-.53-.2-1.07-.18-1.62v-4.9h-9.83v1.48c.02,1.92-.73,3.43-2.27,4.54-1.08.74-2.24,1.34-3.49,1.8-1.32.46-2.65.86-4,1.22l-.9-1.84c1.61-.38,3.18-.86,4.72-1.44ZM595.07,0l2.3,3.56-1.66.65h15.12v1.73h-31.07v-1.73h15.48c-.72-1.1-1.43-2.22-2.12-3.35l1.94-.86ZM609.72,17.68v5.54h-2.02v-3.89h-24.8v3.85h-1.98v-5.51h28.8ZM605.94,8.68v6.3h-21.24v-6.3h21.24ZM586.72,13.46h17.21v-3.28h-17.21v3.28Z"/>
    </g>
  </g>
</svg>