<?xml version="1.0" encoding="UTF-8"?>
<svg id="_图层_2" data-name="图层 2" xmlns="http://www.w3.org/2000/svg" viewBox="0 0 692.15 97.06">
  <defs>
    <style>
      .cls-1 {
        fill: #242a74;
        stroke-width: 0px;
      }
    </style>
  </defs>
  <g id="_图层_1-2" data-name="图层 1">
    <g>
      <g>
        <path class="cls-1" d="M0,42.96V.24h8.34v35.28h19.38v7.44H0Z"/>
        <path class="cls-1" d="M33.78,6.36V0h7.98v6.36h-7.98ZM33.9,42.96V11.7h7.8v31.26h-7.8Z"/>
        <path class="cls-1" d="M63.9,42.96h-6.12l-11.52-31.26h8.22l6.36,19.32,6.3-19.32h8.22l-11.46,31.26Z"/>
        <path class="cls-1" d="M85.5,29.76c0,4.02,2.46,6.96,6.84,6.96,3.42,0,5.1-.96,7.08-2.94l4.74,4.62c-3.18,3.18-6.24,4.92-11.88,4.92-7.38,0-14.46-3.36-14.46-16.02,0-10.2,5.52-15.96,13.62-15.96,8.7,0,13.62,6.36,13.62,14.94v3.48h-19.56ZM96.66,21.06c-.84-1.86-2.58-3.24-5.22-3.24s-4.38,1.38-5.22,3.24c-.48,1.14-.66,1.98-.72,3.36h11.88c-.06-1.38-.24-2.22-.72-3.36Z"/>
        <path class="cls-1" d="M129.24,20.22c-1.2-1.2-2.22-1.86-4.14-1.86-2.4,0-5.04,1.8-5.04,5.76v18.84h-7.8V11.7h7.62v3c1.5-1.8,4.5-3.36,7.86-3.36,3.06,0,5.22.78,7.38,2.94l-5.88,5.94Z"/>
        <path class="cls-1" d="M162.54,40.5c-1.74,1.74-4.56,2.82-7.62,2.82s-5.52-.84-7.56-3.12v14.22h-7.8V11.7h7.56v2.94c2.16-2.4,4.5-3.3,7.8-3.3,3.06,0,5.88,1.08,7.62,2.82,3.12,3.12,3.18,8.46,3.18,13.14s-.06,10.08-3.18,13.2ZM152.64,18.36c-4.68,0-5.28,3.84-5.28,8.94s.6,9,5.28,9,5.28-3.9,5.28-9-.6-8.94-5.28-8.94Z"/>
        <path class="cls-1" d="M194.76,39.48c-1.92,2.04-5.1,3.84-9.72,3.84s-7.74-1.8-9.66-3.84c-2.82-2.94-3.54-6.48-3.54-12.18s.72-9.18,3.54-12.12c1.92-2.04,5.04-3.84,9.66-3.84s7.8,1.8,9.72,3.84c2.82,2.94,3.54,6.48,3.54,12.12s-.72,9.24-3.54,12.18ZM188.7,19.74c-.9-.9-2.1-1.38-3.66-1.38s-2.7.48-3.6,1.38c-1.62,1.62-1.8,4.32-1.8,7.56s.18,6,1.8,7.62c.9.9,2.04,1.38,3.6,1.38s2.76-.48,3.66-1.38c1.62-1.62,1.8-4.38,1.8-7.62s-.18-5.94-1.8-7.56Z"/>
        <path class="cls-1" d="M227.34,39.48c-1.92,2.04-5.1,3.84-9.72,3.84s-7.74-1.8-9.66-3.84c-2.82-2.94-3.54-6.48-3.54-12.18s.72-9.18,3.54-12.12c1.92-2.04,5.04-3.84,9.66-3.84s7.8,1.8,9.72,3.84c2.82,2.94,3.54,6.48,3.54,12.12s-.72,9.24-3.54,12.18ZM221.28,19.74c-.9-.9-2.1-1.38-3.66-1.38s-2.7.48-3.6,1.38c-1.62,1.62-1.8,4.32-1.8,7.56s.18,6,1.8,7.62c.9.9,2.04,1.38,3.6,1.38s2.76-.48,3.66-1.38c1.62-1.62,1.8-4.38,1.8-7.62s-.18-5.94-1.8-7.56Z"/>
        <path class="cls-1" d="M247.14,42.96c-6.42,0-9.12-4.5-9.12-8.94V.24h7.8v33.3c0,1.86.78,2.82,2.76,2.82h3v6.6h-4.44Z"/>
        <path class="cls-1" d="M288.9,26.88h-8.22v16.08h-8.34V.24h16.56c8.82,0,14.1,6.06,14.1,13.32s-5.28,13.32-14.1,13.32ZM288.48,7.68h-7.8v11.7h7.8c3.78,0,6.18-2.34,6.18-5.82s-2.4-5.88-6.18-5.88Z"/>
        <path class="cls-1" d="M324.84,42.96v-2.7c-2.1,2.1-4.08,3-7.68,3s-6.12-.9-7.98-2.76c-1.68-1.74-2.58-4.26-2.58-7.02,0-4.98,3.42-9.06,10.68-9.06h7.38v-1.56c0-3.42-1.68-4.92-5.82-4.92-3,0-4.38.72-6,2.58l-4.98-4.86c3.06-3.36,6.06-4.32,11.28-4.32,8.76,0,13.32,3.72,13.32,11.04v20.58h-7.62ZM324.66,29.76h-6.18c-2.82,0-4.38,1.32-4.38,3.54s1.44,3.6,4.5,3.6c2.16,0,3.54-.18,4.92-1.5.84-.78,1.14-2.04,1.14-3.96v-1.68Z"/>
        <path class="cls-1" d="M354.36,42.96h-6.12l-11.52-31.26h8.22l6.36,19.32,6.3-19.32h8.22l-11.46,31.26Z"/>
        <path class="cls-1" d="M370.32,6.36V0h7.98v6.36h-7.98ZM370.44,42.96V11.7h7.8v31.26h-7.8Z"/>
        <path class="cls-1" d="M395.76,42.96c-6.42,0-9.12-4.5-9.12-8.94V.24h7.8v33.3c0,1.86.78,2.82,2.76,2.82h3v6.6h-4.44Z"/>
        <path class="cls-1" d="M406.32,6.36V0h7.98v6.36h-7.98ZM406.44,42.96V11.7h7.8v31.26h-7.8Z"/>
        <path class="cls-1" d="M444.54,39.48c-1.92,2.04-5.1,3.84-9.72,3.84s-7.74-1.8-9.66-3.84c-2.82-2.94-3.54-6.48-3.54-12.18s.72-9.18,3.54-12.12c1.92-2.04,5.04-3.84,9.66-3.84s7.8,1.8,9.72,3.84c2.82,2.94,3.54,6.48,3.54,12.12s-.72,9.24-3.54,12.18ZM438.47,19.74c-.9-.9-2.1-1.38-3.66-1.38s-2.7.48-3.6,1.38c-1.62,1.62-1.8,4.32-1.8,7.56s.18,6,1.8,7.62c.9.9,2.04,1.38,3.6,1.38s2.76-.48,3.66-1.38c1.62-1.62,1.8-4.38,1.8-7.62s-.18-5.94-1.8-7.56Z"/>
        <path class="cls-1" d="M473.7,42.96v-18.9c0-4.26-2.7-5.7-5.16-5.7s-5.22,1.44-5.22,5.7v18.9h-7.8V11.7h7.62v2.88c2.04-2.16,4.92-3.24,7.8-3.24,3.12,0,5.64,1.02,7.38,2.76,2.52,2.52,3.18,5.46,3.18,8.88v19.98h-7.8Z"/>
        <path class="cls-1" d="M527.95,5.76l.96,4.85c-2.69.54-5.38,1.02-8.06,1.44v5.71h8.69v4.99h-8.69v4.56l1.97-2.02c2.62,2.53,5.23,5.06,7.82,7.58l-3.74,3.89c-1.98-2.18-4-4.3-6.05-6.38v17.33h-5.18v-16.56c-2.11,3.42-4.56,6.58-7.34,9.46l-3.36-4.42c4.06-3.87,7.36-8.35,9.89-13.44h-8.11v-4.99h8.93v-4.94c-2.59.38-5.18.7-7.78.96l-.62-4.9c6.94-.61,13.84-1.65,20.69-3.12ZM536.73,9.45v27.79h-5.28V9.45h5.28ZM538.46,42.43c.58.03,1.15-.02,1.73-.14.32-.06.61-.18.86-.34.29-.26.5-.58.62-.96.13-.48.19-.99.19-1.54V5.52h5.28v35.76c0,1.06-.14,2.08-.43,3.07-.29.77-.75,1.41-1.39,1.92-.54.38-1.15.67-1.82.86-1.22.26-2.43.38-3.65.38h-6.1l-1.1-5.09h5.81Z"/>
        <path class="cls-1" d="M555.21,8.78l4.27.29-.38,4.51h2.3V4.94h4.27v8.64h3.84v4.8c2.75-4.29,4.86-8.9,6.34-13.82l4.46,1.2c-.67,2.02-1.41,3.98-2.21,5.9h17.57c-.35,9.41-.72,18.78-1.1,28.13-.1,1.12-.32,2.21-.67,3.26-.26.61-.61,1.17-1.06,1.68-.61.61-1.34,1.06-2.21,1.34-1.06.29-2.13.43-3.22.43h-5.76l-.91-4.94h5.28c.67.03,1.34-.03,2.02-.19.48-.1.9-.32,1.25-.67.22-.32.38-.66.48-1.01.19-.67.3-1.36.34-2.06.32-7.01.64-14.05.96-21.12h-1.78c-.45,3.26-1.07,6.5-1.87,9.7-.74,2.82-1.73,5.54-2.98,8.16-1.34,2.62-2.95,5.07-4.8,7.34-1.63,1.86-3.34,3.65-5.14,5.38l-3.36-3.74c1.63-1.47,3.18-3.04,4.66-4.7,1.73-2.05,3.23-4.26,4.51-6.62,1.22-2.34,2.21-4.77,2.98-7.3.77-2.69,1.39-5.42,1.87-8.21h-2.5c-.48,2.3-1.09,4.58-1.82,6.82-.74,2.05-1.63,4.02-2.69,5.9-2.08,3.55-4.59,6.77-7.54,9.65l-3.26-3.84c2.62-2.34,4.88-4.99,6.77-7.97,2.02-3.26,3.44-6.78,4.27-10.56h-2.59c-1.31,2.53-2.78,4.93-4.42,7.2l-3.5-3.07c.51-.67,1.02-1.38,1.54-2.11h-3.74v7.68l4.37-1.73.29,2.98.24,1.97-4.9,1.97v16.22h-4.56v-14.4c-2.14.86-4.27,1.73-6.38,2.59l-1.39-5.09c2.59-.83,5.18-1.76,7.78-2.78v-9.41h-2.5c-.32,2.78-.74,5.52-1.25,8.21l-4.46-.72c1.15-5.66,1.92-11.41,2.3-17.23Z"/>
        <path class="cls-1" d="M604.41,16.27c2.88,2.14,5.73,4.35,8.54,6.62l-3.26,4.32c-2.75-2.37-5.54-4.67-8.35-6.91l3.07-4.03ZM607.43,47.23l-5.18-1.78c1.95-5.44,3.79-10.94,5.52-16.51l5.04,1.68c-1.89,5.54-3.68,11.07-5.38,16.61ZM630.91,4.94v5.23h5.86c-1.15-1.09-2.32-2.16-3.5-3.22l3.46-3.07c1.79,1.6,3.57,3.25,5.33,4.94l-1.49,1.34h4.22v4.61h-13.87v3.17h11.76v24.24c0,.86-.11,1.74-.34,2.64-.22.64-.59,1.18-1.1,1.63-.45.32-.93.54-1.44.67-.96.22-1.92.34-2.88.34h-3.89l-.96-4.9h2.69c.48.03.98,0,1.49-.1.26-.03.48-.11.67-.24.22-.19.37-.43.43-.72.1-.42.14-.83.14-1.25v-1.68h-6.58v7.73h-4.85v-7.73h-6.48v8.98h-5.23v-29.62h11.71v-3.17h-11.57v-2.4l-2.74,3.7c-2.69-2.24-5.39-4.43-8.11-6.58l3.07-4.03c2.62,1.95,5.22,3.95,7.78,6v-1.3h11.57v-5.23h4.85ZM619.58,26.06h6.48v-3.41h-6.48v3.41ZM619.58,34.03h6.48v-3.46h-6.48v3.46ZM630.91,22.65v3.41h6.58v-3.41h-6.58ZM630.91,34.03h6.58v-3.46h-6.58v3.46Z"/>
        <path class="cls-1" d="M673.05,4.13c.77,1.5,1.54,3.01,2.3,4.51h16.8v4.18h-41.18v-4.18h18.34c-.58-1.09-1.14-2.19-1.68-3.31l5.42-1.2ZM691.58,25.92v8.45h-4.94v-4.46h-30.1v4.37h-4.9v-8.35h39.94ZM686.97,14.78v9.02h-30.77v-9.02h30.77ZM667.24,42.53c.48.03.96,0,1.44-.1.22-.03.45-.11.67-.24.22-.19.38-.42.48-.67.1-.38.14-.77.14-1.15v-3.6h-13.1v-4.32h29.42v4.32h-11.14v5.09c0,.93-.13,1.86-.38,2.78-.22.7-.62,1.3-1.2,1.78-.51.35-1.06.61-1.63.77-1.12.22-2.22.34-3.31.34h-5.9l-1.06-4.99h5.57ZM661.14,20.35h20.93v-2.11h-20.93v2.11Z"/>
      </g>
      <g>
        <path class="cls-1" d="M86.18,90.19v-10.73h-8.67v10.73h-5v-25.63h5v10.47h8.67v-10.47h5v25.63h-5Z"/>
        <path class="cls-1" d="M106.41,90.19v-1.62c-1.26,1.26-2.45,1.8-4.61,1.8s-3.67-.54-4.79-1.66c-1.01-1.04-1.55-2.56-1.55-4.21,0-2.99,2.05-5.43,6.41-5.43h4.43v-.94c0-2.05-1.01-2.95-3.49-2.95-1.8,0-2.63.43-3.6,1.55l-2.99-2.92c1.84-2.02,3.64-2.59,6.77-2.59,5.25,0,7.99,2.23,7.99,6.62v12.35h-4.57ZM106.3,82.27h-3.71c-1.69,0-2.63.79-2.63,2.12s.86,2.16,2.7,2.16c1.3,0,2.12-.11,2.95-.9.5-.47.68-1.22.68-2.38v-1.01Z"/>
        <path class="cls-1" d="M129.81,88.71c-1.04,1.04-2.74,1.69-4.57,1.69s-3.31-.5-4.54-1.87v8.53h-4.68v-25.63h4.54v1.76c1.3-1.44,2.7-1.98,4.68-1.98,1.84,0,3.53.65,4.57,1.69,1.87,1.87,1.91,5.08,1.91,7.88s-.04,6.05-1.91,7.92ZM123.87,75.43c-2.81,0-3.17,2.3-3.17,5.36s.36,5.4,3.17,5.4,3.17-2.34,3.17-5.4-.36-5.36-3.17-5.36Z"/>
        <path class="cls-1" d="M149.97,88.71c-1.04,1.04-2.74,1.69-4.57,1.69s-3.31-.5-4.54-1.87v8.53h-4.68v-25.63h4.54v1.76c1.3-1.44,2.7-1.98,4.68-1.98,1.84,0,3.53.65,4.57,1.69,1.87,1.87,1.91,5.08,1.91,7.88s-.04,6.05-1.91,7.92ZM144.03,75.43c-2.81,0-3.17,2.3-3.17,5.36s.36,5.4,3.17,5.4,3.17-2.34,3.17-5.4-.36-5.36-3.17-5.36Z"/>
        <path class="cls-1" d="M163.33,93.21c-.4,1.04-.83,1.84-1.4,2.41-1.08,1.08-2.48,1.44-4.03,1.44h-1.84v-4.21h1.08c1.33,0,1.87-.32,2.34-1.69l.79-2.3-6.41-17.42h4.93l3.89,11.59,3.74-11.59h4.93l-8.03,21.78Z"/>
        <path class="cls-1" d="M198.64,87.49c-2.05,2.12-4.5,2.92-7.24,2.92s-5.11-1.01-6.91-2.81c-2.59-2.59-2.52-5.79-2.52-10.22s-.07-7.63,2.52-10.22c1.8-1.8,4.03-2.81,6.91-2.81,5.94,0,8.96,3.89,9.65,8.21h-5.04c-.58-2.41-2.05-3.74-4.61-3.74-1.37,0-2.48.54-3.2,1.37-.97,1.08-1.22,2.27-1.22,7.2s.25,6.16,1.22,7.24c.72.83,1.84,1.33,3.2,1.33,1.51,0,2.74-.54,3.56-1.44.83-.94,1.15-2.09,1.15-3.42v-.97h-4.71v-4.18h9.68v3.74c0,3.71-.65,5.94-2.45,7.81Z"/>
        <path class="cls-1" d="M216,76.54c-.72-.72-1.33-1.12-2.48-1.12-1.44,0-3.02,1.08-3.02,3.46v11.3h-4.68v-18.75h4.57v1.8c.9-1.08,2.7-2.02,4.71-2.02,1.84,0,3.13.47,4.43,1.76l-3.53,3.56Z"/>
        <path class="cls-1" d="M231.44,90.19v-1.62c-1.26,1.26-2.45,1.8-4.61,1.8s-3.67-.54-4.79-1.66c-1.01-1.04-1.55-2.56-1.55-4.21,0-2.99,2.05-5.43,6.41-5.43h4.43v-.94c0-2.05-1.01-2.95-3.49-2.95-1.8,0-2.63.43-3.6,1.55l-2.99-2.92c1.84-2.02,3.64-2.59,6.77-2.59,5.25,0,7.99,2.23,7.99,6.62v12.35h-4.57ZM231.33,82.27h-3.71c-1.69,0-2.63.79-2.63,2.12s.86,2.16,2.7,2.16c1.3,0,2.12-.11,2.95-.9.5-.47.68-1.22.68-2.38v-1.01Z"/>
        <path class="cls-1" d="M251.42,90.19v-1.76c-1.3,1.44-2.66,1.98-4.64,1.98-1.83,0-3.56-.65-4.61-1.69-1.87-1.87-1.91-5.11-1.91-7.92s.04-6.01,1.91-7.88c1.04-1.04,2.74-1.69,4.57-1.69s3.35.5,4.57,1.87v-8.53h4.68v25.63h-4.57ZM248.11,75.43c-2.81,0-3.17,2.3-3.17,5.36s.36,5.4,3.17,5.4,3.2-2.34,3.2-5.4-.4-5.36-3.2-5.36Z"/>
        <path class="cls-1" d="M272.05,90.19v-1.73c-1.22,1.3-2.95,1.94-4.68,1.94-1.87,0-3.38-.61-4.43-1.66-1.51-1.51-1.91-3.28-1.91-5.33v-11.99h4.68v11.34c0,2.56,1.62,3.42,3.1,3.42s3.13-.86,3.13-3.42v-11.34h4.68v18.75h-4.57Z"/>
        <path class="cls-1" d="M291.49,90.19v-1.62c-1.26,1.26-2.45,1.8-4.61,1.8s-3.67-.54-4.79-1.66c-1.01-1.04-1.55-2.56-1.55-4.21,0-2.99,2.05-5.43,6.41-5.43h4.43v-.94c0-2.05-1.01-2.95-3.49-2.95-1.8,0-2.63.43-3.6,1.55l-2.99-2.92c1.84-2.02,3.64-2.59,6.77-2.59,5.25,0,7.99,2.23,7.99,6.62v12.35h-4.57ZM291.38,82.27h-3.71c-1.69,0-2.63.79-2.63,2.12s.86,2.16,2.7,2.16c1.3,0,2.12-.11,2.95-.9.5-.47.68-1.22.68-2.38v-1.01Z"/>
        <path class="cls-1" d="M306.97,90.19c-3.82,0-5.44-2.7-5.44-5.36v-9.29h-1.98v-3.56h1.98v-5.54h4.68v5.54h3.31v3.56h-3.31v9c0,1.08.5,1.69,1.62,1.69h1.69v3.96h-2.56Z"/>
        <path class="cls-1" d="M313.7,68.23v-3.82h4.79v3.82h-4.79ZM313.77,90.19v-18.75h4.68v18.75h-4.68Z"/>
        <path class="cls-1" d="M336.63,88.1c-1.15,1.22-3.06,2.3-5.83,2.3s-4.64-1.08-5.79-2.3c-1.69-1.76-2.12-3.89-2.12-7.31s.43-5.51,2.12-7.27c1.15-1.22,3.02-2.3,5.79-2.3s4.68,1.08,5.83,2.3c1.69,1.76,2.12,3.89,2.12,7.27s-.43,5.54-2.12,7.31ZM332.99,76.26c-.54-.54-1.26-.83-2.2-.83s-1.62.29-2.16.83c-.97.97-1.08,2.59-1.08,4.54s.11,3.6,1.08,4.57c.54.54,1.22.83,2.16.83s1.66-.29,2.2-.83c.97-.97,1.08-2.63,1.08-4.57s-.11-3.56-1.08-4.54Z"/>
        <path class="cls-1" d="M354.12,90.19v-11.34c0-2.56-1.62-3.42-3.1-3.42s-3.13.86-3.13,3.42v11.34h-4.68v-18.75h4.57v1.73c1.22-1.3,2.95-1.94,4.68-1.94,1.87,0,3.38.61,4.43,1.66,1.51,1.51,1.91,3.28,1.91,5.33v11.99h-4.68Z"/>
        <path class="cls-1" d="M371.69,90.19v-4.21l9.57-11.12c.94-1.12,1.33-1.91,1.33-3.1,0-1.91-1.12-3.2-3.1-3.2-1.55,0-3.13.79-3.13,3.28h-4.68c0-4.68,3.42-7.49,7.81-7.49s7.78,2.84,7.78,7.45c0,2.48-.97,3.82-2.74,5.87l-7.16,8.32h9.9v4.21h-15.59Z"/>
        <path class="cls-1" d="M398.91,90.4c-4.18,0-7.81-2.74-7.81-7.63v-10.8c0-4.89,3.64-7.63,7.81-7.63s7.77,2.74,7.77,7.63v10.8c0,4.9-3.6,7.63-7.77,7.63ZM402,72.04c0-2.16-1.26-3.49-3.1-3.49s-3.13,1.33-3.13,3.49v10.69c0,2.16,1.3,3.46,3.13,3.46s3.1-1.3,3.1-3.46v-10.69Z"/>
        <path class="cls-1" d="M410.79,90.19v-4.21l9.57-11.12c.94-1.12,1.33-1.91,1.33-3.1,0-1.91-1.12-3.2-3.1-3.2-1.55,0-3.13.79-3.13,3.28h-4.68c0-4.68,3.42-7.49,7.81-7.49s7.78,2.84,7.78,7.45c0,2.48-.97,3.82-2.74,5.87l-7.16,8.32h9.9v4.21h-15.59Z"/>
        <path class="cls-1" d="M444.3,86.55v3.64h-4.5v-3.64h-10.47v-4.43l8.78-17.57h5.11l-8.78,17.57h5.36v-4.79h4.5v4.79h2.34v4.43h-2.34Z"/>
        <path class="cls-1" d="M460.07,92.85v-30.96h4.68v30.96h-4.68Z"/>
        <path class="cls-1" d="M496.11,79.64v4.64h14.98v1.94h-14.98v7.6h-2.02v-7.6h-14.98v-1.94h14.98v-4.64h2.02ZM483.44,77.62c.17-.24.25-.53.25-.86v-15.01h2.02v5.9h8.86v1.87h-8.86v7.63c2.98-1.03,5.95-2.09,8.93-3.17l.14,1.91c-3.1,1.1-6.17,2.2-9.22,3.28-.72.24-1.4.53-2.05.86l-.9-1.8c.31-.14.59-.35.83-.61ZM498.45,61.67v7.78c1.92-.91,3.82-1.88,5.69-2.92,1.51-.79,2.98-1.67,4.39-2.63l1.04,1.76c-1.61,1.06-3.26,2.02-4.97,2.88-2.02,1.06-4.07,2.05-6.16,2.99v2.84c-.02.36,0,.72.07,1.08.07.34.22.65.43.94.22.22.48.37.79.47.36.1.74.13,1.15.11h4.72c.46.02.9-.01,1.33-.11.34-.1.62-.25.86-.47.17-.19.29-.41.36-.65.14-.43.23-.88.25-1.33.05-1.34.09-2.71.14-4.1l1.87.36c-.05,1.54-.12,3.05-.22,4.54-.05.65-.19,1.26-.43,1.84-.14.34-.35.64-.61.9-.41.31-.85.53-1.33.65-.67.14-1.33.2-1.98.18h-5.9c-.55.02-1.08-.04-1.58-.18-.43-.14-.82-.4-1.15-.76-.31-.38-.53-.83-.65-1.33s-.17-1.02-.14-1.55v-13.28h2.02Z"/>
        <path class="cls-1" d="M525.92,89.61v-27.79h2.12v27.79h6.12v-27.79h2.12v27.79h10.87v2.02h-32.15v-2.02h10.91ZM518.14,67.83c2.21,4.87,4.36,9.77,6.44,14.69l-2.02.94c-2.02-4.94-4.13-9.86-6.34-14.76l1.91-.86ZM544.1,67.97l1.98.83c-2.06,5.02-4.27,9.94-6.62,14.76l-1.91-.97c2.38-4.78,4.56-9.65,6.55-14.62Z"/>
        <path class="cls-1" d="M552.23,67.25l1.84.18c-.53,4.32-1.19,8.59-1.98,12.82l-1.91-.29c.91-4.18,1.6-8.41,2.05-12.71ZM557.63,61.57v32.04h-1.91v-32.04h1.91ZM559.51,67.18c1.37,2.16,2.74,4.33,4.1,6.52l-1.55,1.15c-1.32-2.18-2.66-4.36-4.03-6.52l1.48-1.15ZM569.73,78.27c0-.34.01-.68.04-1.04,0-2.57.01-5.16.04-7.78h-6.73v-1.91h6.73c-.02-1.99-.01-3.98.04-5.98h1.91c0,2.02-.01,4.01-.04,5.98h8.03v10.73h3.82v1.91h-11.45c.84,2.81,2.29,5.24,4.36,7.31,1.13,1.03,2.35,1.93,3.67,2.7,1.1.65,2.25,1.22,3.46,1.73l-1.01,1.8c-2.57-1.1-4.88-2.57-6.95-4.39-2.11-1.99-3.68-4.36-4.72-7.09-.7,2.21-1.84,4.16-3.42,5.87-1.03,1.08-2.15,2.05-3.35,2.92-1.44,1.06-2.93,2.03-4.46,2.92l-1.08-1.73c1.58-.86,3.11-1.8,4.57-2.81,1.2-.89,2.29-1.9,3.28-3.02,1.54-1.8,2.54-3.86,3.02-6.19h-9.07v-1.91h9.32ZM571.71,69.45c-.02,2.57-.04,5.12-.04,7.67-.02.41-.04.79-.04,1.15h6.16v-8.82h-6.08Z"/>
        <path class="cls-1" d="M595.04,80.5l1.76,1.12c-2.57,3.74-5.47,7.18-8.71,10.3l-1.62-1.37c3.22-3.02,6.07-6.37,8.57-10.04ZM591.22,64.77c8.06-.31,16.09-1.06,24.08-2.23l.43,2.02c-7.51,1.08-15.04,1.8-22.57,2.16l-1.15,9.29h10.48v-7.99h2.16v7.99h13.18v1.98h-13.18v11.23c0,.65-.08,1.3-.25,1.94-.12.36-.3.67-.54.94-.38.36-.83.59-1.33.68-.72.14-1.44.22-2.16.22h-4.18l-.43-2.02h3.96c.48,0,.97-.04,1.48-.11.24-.07.47-.17.68-.29.24-.17.4-.38.47-.65.1-.41.14-.83.14-1.26v-10.69h-12.82l1.55-13.21ZM610.3,80.57c3,3.29,5.98,6.59,8.93,9.9l-1.73,1.37c-2.9-3.36-5.84-6.68-8.82-9.97l1.62-1.3Z"/>
      </g>
    </g>
  </g>
</svg>