<?xml version="1.0" encoding="UTF-8"?>
<svg id="_图层_2" data-name="图层 2" xmlns="http://www.w3.org/2000/svg" viewBox="0 0 372.6 98.5">
  <defs>
    <style>
      .cls-1 {
        fill: #000005;
        stroke-width: 0px;
      }

      .cls-2 {
        fill: none;
        stroke: #050500;
        stroke-miterlimit: 10;
        stroke-width: 7px;
      }
    </style>
  </defs>
  <g id="_图层_1-2" data-name="图层 1">
    <rect class="cls-2" x="3.5" y="3.5" width="365.6" height="91.5" rx="45.75" ry="45.75"/>
    <g>
      <path class="cls-1" d="M78.75,61.39v-15.5l-5.07,10.08h-3.51l-5.11-10.08v15.5h-5.19v-26.6h5.11l6.94,14.38,6.9-14.38h5.11v26.6h-5.19Z"/>
      <path class="cls-1" d="M93.56,53.17c0,2.5,1.53,4.33,4.25,4.33,2.13,0,3.17-.6,4.4-1.83l2.95,2.88c-1.98,1.98-3.88,3.06-7.39,3.06-4.59,0-8.99-2.09-8.99-9.97,0-6.35,3.43-9.94,8.47-9.94,5.41,0,8.47,3.96,8.47,9.3v2.17h-12.16ZM100.5,47.75c-.52-1.16-1.6-2.02-3.25-2.02s-2.72.86-3.25,2.02c-.3.71-.41,1.23-.45,2.09h7.39c-.04-.86-.15-1.38-.45-2.09Z"/>
      <path class="cls-1" d="M116.58,61.61c-3.06,0-5.82-.34-8.28-2.8l3.17-3.17c1.6,1.61,3.69,1.83,5.19,1.83,1.68,0,3.43-.56,3.43-2.02,0-.97-.52-1.64-2.05-1.79l-3.06-.3c-3.51-.34-5.67-1.87-5.67-5.45,0-4.03,3.54-6.2,7.5-6.2,3.02,0,5.56.52,7.42,2.28l-2.98,3.03c-1.12-1.01-2.83-1.31-4.51-1.31-1.94,0-2.76.9-2.76,1.87,0,.71.3,1.53,2.01,1.68l3.06.3c3.84.37,5.78,2.43,5.78,5.72,0,4.3-3.66,6.35-8.24,6.35Z"/>
      <path class="cls-1" d="M135.04,61.61c-3.06,0-5.82-.34-8.28-2.8l3.17-3.17c1.6,1.61,3.69,1.83,5.19,1.83,1.68,0,3.43-.56,3.43-2.02,0-.97-.52-1.64-2.05-1.79l-3.06-.3c-3.51-.34-5.67-1.87-5.67-5.45,0-4.03,3.54-6.2,7.5-6.2,3.02,0,5.56.52,7.42,2.28l-2.98,3.03c-1.12-1.01-2.83-1.31-4.51-1.31-1.94,0-2.76.9-2.76,1.87,0,.71.3,1.53,2.01,1.68l3.06.3c3.84.37,5.78,2.43,5.78,5.72,0,4.3-3.66,6.35-8.24,6.35Z"/>
      <path class="cls-1" d="M157.31,61.39v-1.68c-1.31,1.31-2.54,1.87-4.78,1.87s-3.81-.56-4.96-1.72c-1.04-1.08-1.6-2.65-1.6-4.37,0-3.1,2.13-5.64,6.64-5.64h4.59v-.97c0-2.13-1.04-3.06-3.62-3.06-1.87,0-2.72.45-3.73,1.61l-3.1-3.03c1.9-2.09,3.77-2.69,7.01-2.69,5.45,0,8.28,2.32,8.28,6.87v12.81h-4.74ZM157.2,53.17h-3.84c-1.75,0-2.72.82-2.72,2.2s.9,2.24,2.8,2.24c1.34,0,2.2-.11,3.06-.93.52-.49.71-1.27.71-2.47v-1.05Z"/>
      <path class="cls-1" d="M173.99,68.75c-2.98,0-5.04-.6-7.05-2.54l3.02-3.06c1.08,1.05,2.16,1.49,3.81,1.49,2.91,0,3.92-2.05,3.92-4.03v-1.98c-1.27,1.42-2.72,1.94-4.63,1.94s-3.54-.63-4.63-1.72c-1.83-1.83-1.98-4.33-1.98-7.73s.15-5.86,1.98-7.7c1.08-1.08,2.76-1.72,4.66-1.72,2.05,0,3.39.56,4.74,2.05v-1.83h4.7v18.75c0,4.67-3.32,8.07-8.54,8.07ZM174.47,46.07c-2.87,0-3.17,2.47-3.17,5.04s.3,5.08,3.17,5.08,3.21-2.5,3.21-5.08-.34-5.04-3.21-5.04Z"/>
      <path class="cls-1" d="M191.78,53.17c0,2.5,1.53,4.33,4.25,4.33,2.13,0,3.17-.6,4.4-1.83l2.95,2.88c-1.98,1.98-3.88,3.06-7.39,3.06-4.59,0-8.99-2.09-8.99-9.97,0-6.35,3.43-9.94,8.47-9.94,5.41,0,8.47,3.96,8.47,9.3v2.17h-12.16ZM198.72,47.75c-.52-1.16-1.6-2.02-3.25-2.02s-2.72.86-3.25,2.02c-.3.71-.41,1.23-.45,2.09h7.39c-.04-.86-.15-1.38-.45-2.09Z"/>
      <path class="cls-1" d="M228.57,61.39h-11.12v-26.6h10.67c5.19,0,8.21,2.91,8.21,7.47,0,2.95-1.94,4.86-3.28,5.49,1.6.75,3.66,2.43,3.66,5.98,0,4.97-3.4,7.66-8.13,7.66ZM227.71,39.42h-5.07v6.13h5.07c2.2,0,3.43-1.23,3.43-3.06s-1.23-3.06-3.43-3.06ZM228.05,50.22h-5.41v6.54h5.41c2.35,0,3.47-1.49,3.47-3.29s-1.12-3.25-3.47-3.25Z"/>
      <path class="cls-1" d="M255.05,59.22c-1.19,1.27-3.17,2.39-6.04,2.39s-4.81-1.12-6.01-2.39c-1.75-1.83-2.2-4.03-2.2-7.58s.45-5.71,2.2-7.54c1.19-1.27,3.13-2.39,6.01-2.39s4.85,1.12,6.04,2.39c1.75,1.83,2.2,4.03,2.2,7.54s-.45,5.75-2.2,7.58ZM251.29,46.93c-.56-.56-1.31-.86-2.28-.86s-1.68.3-2.24.86c-1.01,1.01-1.12,2.69-1.12,4.71s.11,3.74,1.12,4.74c.56.56,1.27.86,2.24.86s1.72-.3,2.28-.86c1.01-1.01,1.12-2.73,1.12-4.74s-.11-3.7-1.12-4.71Z"/>
      <path class="cls-1" d="M271.84,61.39v-1.68c-1.31,1.31-2.54,1.87-4.78,1.87s-3.81-.56-4.96-1.72c-1.04-1.08-1.6-2.65-1.6-4.37,0-3.1,2.13-5.64,6.64-5.64h4.59v-.97c0-2.13-1.04-3.06-3.62-3.06-1.87,0-2.72.45-3.73,1.61l-3.1-3.03c1.9-2.09,3.77-2.69,7.01-2.69,5.45,0,8.28,2.32,8.28,6.87v12.81h-4.74ZM271.73,53.17h-3.84c-1.75,0-2.72.82-2.72,2.2s.9,2.24,2.8,2.24c1.34,0,2.2-.11,3.06-.93.52-.49.71-1.27.71-2.47v-1.05Z"/>
      <path class="cls-1" d="M292.36,47.23c-.75-.75-1.38-1.16-2.57-1.16-1.49,0-3.13,1.12-3.13,3.59v11.73h-4.85v-19.46h4.74v1.87c.93-1.12,2.8-2.09,4.89-2.09,1.9,0,3.25.49,4.59,1.83l-3.66,3.7Z"/>
      <path class="cls-1" d="M308.36,61.39v-1.83c-1.34,1.49-2.76,2.05-4.81,2.05-1.9,0-3.69-.67-4.78-1.76-1.94-1.94-1.98-5.3-1.98-8.22s.04-6.24,1.98-8.18c1.08-1.08,2.84-1.76,4.74-1.76s3.47.52,4.74,1.94v-8.85h4.85v26.6h-4.74ZM304.93,46.07c-2.91,0-3.28,2.39-3.28,5.57s.37,5.6,3.28,5.6,3.32-2.43,3.32-5.6-.41-5.57-3.32-5.57Z"/>
    </g>
  </g>
</svg>