<?xml version="1.0" encoding="UTF-8"?>
<svg id="_图层_2" data-name="图层 2" xmlns="http://www.w3.org/2000/svg" viewBox="0 0 628.23 178.93">
  <defs>
    <style>
      .cls-1 {
        fill: #242a74;
      }

      .cls-1, .cls-2, .cls-3, .cls-4, .cls-5 {
        stroke-width: 0px;
      }

      .cls-2 {
        fill: #65abff;
      }

      .cls-3 {
        fill: #b74141;
      }

      .cls-4 {
        fill: #6fd1ea;
      }

      .cls-5 {
        fill: #0f41bb;
      }
    </style>
  </defs>
  <g id="_图层_1-2" data-name="图层 1">
    <g>
      <polygon class="cls-4" points="628.23 19.86 372.84 87.99 413.43 93.92 441.62 152.82 464.94 138.03 518.87 178.93 628.23 19.86"/>
      <polygon class="cls-2" points="413.74 92.07 625.99 22.07 451.15 110.52 442.54 149.67 413.74 92.07"/>
      <polygon class="cls-5" points="451.77 115.63 472.71 136.57 442.19 152.05 451.77 115.63"/>
    </g>
    <g>
      <g>
        <path class="cls-1" d="M26.88,78.01l-8.55-15.36-8.49,15.36H0l13.69-22.61L.87,33.91h9.79l7.68,14.25,7.74-14.25h9.72l-12.82,21.49,13.75,22.61h-9.85Z"/>
        <path class="cls-1" d="M48.8,78.38c-4.77,0-8.05-1.24-11.33-4.52l5.7-5.64c1.42,1.42,2.79,2.48,5.64,2.48,4.21,0,6.94-2.48,6.94-7.56v-29.23h8.61v29.61c0,9.72-7.37,14.86-15.55,14.86Z"/>
        <path class="cls-1" d="M90.92,41.59v36.42h-8.61v-36.42h-11.52v-7.68h31.65v7.68h-11.52Z"/>
        <path class="cls-1" d="M109.44,78.01v-44.1h8.61v36.42h20v7.68h-28.61Z"/>
        <path class="cls-1" d="M159.85,78.38c-9.04,0-16.23-6.13-16.23-15.48v-28.99h8.61v28.68c0,5.08,2.97,8.11,7.62,8.11s7.68-3.03,7.68-8.11v-28.68h8.55v28.99c0,9.35-7.18,15.48-16.23,15.48Z"/>
        <path class="cls-1" d="M201.72,82.59V29.32h8.05v53.26h-8.05Z"/>
        <path class="cls-1" d="M267.43,78.01v-25.7l-8.42,16.72h-5.82l-8.48-16.72v25.7h-8.61v-44.1h8.49l11.52,23.85,11.46-23.85h8.49v44.1h-8.61Z"/>
        <path class="cls-1" d="M301.86,78.38c-9.04,0-16.23-6.13-16.23-15.48v-28.99h8.61v28.68c0,5.08,2.97,8.11,7.62,8.11s7.68-3.03,7.68-8.11v-28.68h8.55v28.99c0,9.35-7.18,15.48-16.23,15.48Z"/>
        <path class="cls-1" d="M339.83,78.38c-6.69,0-11.77-1.42-16.1-5.82l5.57-5.57c2.79,2.79,6.57,3.72,10.65,3.72,5.08,0,7.8-1.92,7.8-5.45,0-1.55-.43-2.85-1.36-3.72-.87-.81-1.86-1.24-3.9-1.55l-5.33-.74c-3.78-.56-6.57-1.73-8.55-3.65-2.11-2.11-3.16-4.96-3.16-8.67,0-7.87,5.82-13.38,15.36-13.38,6.07,0,10.47,1.49,14.25,5.14l-5.45,5.39c-2.79-2.66-6.13-3.04-9.04-3.04-4.58,0-6.81,2.54-6.81,5.57,0,1.11.37,2.29,1.3,3.16.87.81,2.29,1.49,4.09,1.73l5.2.74c4.03.56,6.57,1.67,8.42,3.41,2.35,2.23,3.41,5.45,3.41,9.35,0,8.55-7.12,13.38-16.35,13.38Z"/>
        <path class="cls-1" d="M364.29,78.01v-44.1h29.05v7.68h-20.44v10.34h17.4v7.68h-17.4v10.71h20.44v7.68h-29.05Z"/>
        <path class="cls-1" d="M417.31,78.38c-9.04,0-16.23-6.13-16.23-15.48v-28.99h8.61v28.68c0,5.08,2.97,8.11,7.62,8.11s7.68-3.03,7.68-8.11v-28.68h8.55v28.99c0,9.35-7.18,15.48-16.23,15.48Z"/>
        <path class="cls-1" d="M474.47,78.01v-25.7l-8.42,16.72h-5.82l-8.48-16.72v25.7h-8.61v-44.1h8.49l11.52,23.85,11.46-23.85h8.49v44.1h-8.61Z"/>
        <path class="cls-1" d="M79.47,112.4v-8.54h-6.91v8.54h-3.99v-20.41h3.99v8.34h6.91v-8.34h3.99v20.41h-3.99Z"/>
        <path class="cls-1" d="M95.58,112.4v-1.29c-1,1-1.95,1.43-3.67,1.43s-2.92-.43-3.81-1.32c-.8-.83-1.23-2.04-1.23-3.35,0-2.38,1.63-4.33,5.1-4.33h3.53v-.75c0-1.63-.8-2.35-2.78-2.35-1.43,0-2.09.34-2.87,1.23l-2.38-2.32c1.46-1.61,2.9-2.06,5.39-2.06,4.19,0,6.37,1.78,6.37,5.28v9.83h-3.64ZM95.49,106.1h-2.95c-1.35,0-2.09.63-2.09,1.69s.69,1.72,2.15,1.72c1.03,0,1.69-.09,2.35-.72.4-.37.54-.97.54-1.89v-.8Z"/>
        <path class="cls-1" d="M114.21,111.23c-.83.83-2.18,1.35-3.64,1.35s-2.64-.4-3.61-1.49v6.79h-3.73v-20.41h3.61v1.4c1.03-1.15,2.15-1.58,3.73-1.58,1.46,0,2.81.52,3.64,1.35,1.49,1.49,1.52,4.04,1.52,6.28s-.03,4.82-1.52,6.31ZM109.48,100.65c-2.24,0-2.52,1.83-2.52,4.27s.29,4.3,2.52,4.3,2.52-1.86,2.52-4.3-.29-4.27-2.52-4.27Z"/>
        <path class="cls-1" d="M130.26,111.23c-.83.83-2.18,1.35-3.64,1.35s-2.64-.4-3.61-1.49v6.79h-3.73v-20.41h3.61v1.4c1.03-1.15,2.15-1.58,3.73-1.58,1.46,0,2.81.52,3.64,1.35,1.49,1.49,1.52,4.04,1.52,6.28s-.03,4.82-1.52,6.31ZM125.53,100.65c-2.24,0-2.52,1.83-2.52,4.27s.29,4.3,2.52,4.3,2.52-1.86,2.52-4.3-.29-4.27-2.52-4.27Z"/>
        <path class="cls-1" d="M140.9,114.81c-.32.83-.66,1.46-1.12,1.92-.86.86-1.98,1.15-3.21,1.15h-1.46v-3.35h.86c1.06,0,1.49-.26,1.86-1.35l.63-1.83-5.1-13.88h3.93l3.1,9.23,2.98-9.23h3.93l-6.39,17.35Z"/>
        <path class="cls-1" d="M169.02,110.25c-1.63,1.69-3.58,2.32-5.76,2.32s-4.07-.8-5.5-2.24c-2.06-2.06-2.01-4.62-2.01-8.14s-.06-6.08,2.01-8.14c1.43-1.43,3.21-2.24,5.5-2.24,4.73,0,7.14,3.1,7.68,6.54h-4.01c-.46-1.92-1.63-2.98-3.67-2.98-1.09,0-1.98.43-2.55,1.09-.77.86-.97,1.81-.97,5.73s.2,4.9.97,5.76c.57.66,1.46,1.06,2.55,1.06,1.2,0,2.18-.43,2.84-1.15.66-.75.92-1.66.92-2.72v-.77h-3.76v-3.33h7.71v2.98c0,2.95-.52,4.73-1.95,6.22Z"/>
        <path class="cls-1" d="M182.83,101.54c-.57-.57-1.06-.89-1.98-.89-1.15,0-2.41.86-2.41,2.75v9h-3.73v-14.94h3.64v1.43c.72-.86,2.15-1.61,3.76-1.61,1.46,0,2.49.37,3.53,1.4l-2.81,2.84Z"/>
        <path class="cls-1" d="M195.13,112.4v-1.29c-1,1-1.95,1.43-3.67,1.43s-2.92-.43-3.81-1.32c-.8-.83-1.23-2.04-1.23-3.35,0-2.38,1.63-4.33,5.1-4.33h3.53v-.75c0-1.63-.8-2.35-2.78-2.35-1.43,0-2.09.34-2.87,1.23l-2.38-2.32c1.46-1.61,2.9-2.06,5.39-2.06,4.19,0,6.37,1.78,6.37,5.28v9.83h-3.64ZM195.04,106.1h-2.95c-1.35,0-2.09.63-2.09,1.69s.69,1.72,2.15,1.72c1.03,0,1.69-.09,2.35-.72.4-.37.54-.97.54-1.89v-.8Z"/>
        <path class="cls-1" d="M211.04,112.4v-1.4c-1.03,1.15-2.12,1.58-3.7,1.58-1.46,0-2.84-.52-3.67-1.35-1.49-1.49-1.52-4.07-1.52-6.31s.03-4.79,1.52-6.28c.83-.83,2.18-1.35,3.64-1.35s2.67.4,3.64,1.49v-6.8h3.73v20.41h-3.64ZM208.4,100.65c-2.24,0-2.52,1.83-2.52,4.27s.29,4.3,2.52,4.3,2.55-1.86,2.55-4.3-.32-4.27-2.55-4.27Z"/>
        <path class="cls-1" d="M227.46,112.4v-1.38c-.97,1.03-2.35,1.55-3.73,1.55-1.49,0-2.69-.49-3.53-1.32-1.2-1.2-1.52-2.61-1.52-4.24v-9.55h3.73v9.03c0,2.04,1.29,2.72,2.47,2.72s2.49-.69,2.49-2.72v-9.03h3.73v14.94h-3.64Z"/>
        <path class="cls-1" d="M242.94,112.4v-1.29c-1,1-1.95,1.43-3.67,1.43s-2.92-.43-3.81-1.32c-.8-.83-1.23-2.04-1.23-3.35,0-2.38,1.63-4.33,5.1-4.33h3.53v-.75c0-1.63-.8-2.35-2.78-2.35-1.43,0-2.09.34-2.87,1.23l-2.38-2.32c1.46-1.61,2.9-2.06,5.39-2.06,4.19,0,6.37,1.78,6.37,5.28v9.83h-3.64ZM242.86,106.1h-2.95c-1.35,0-2.09.63-2.09,1.69s.69,1.72,2.15,1.72c1.03,0,1.69-.09,2.35-.72.4-.37.54-.97.54-1.89v-.8Z"/>
        <path class="cls-1" d="M255.27,112.4c-3.04,0-4.33-2.15-4.33-4.27v-7.4h-1.58v-2.84h1.58v-4.42h3.73v4.42h2.64v2.84h-2.64v7.17c0,.86.4,1.35,1.29,1.35h1.35v3.15h-2.04Z"/>
        <path class="cls-1" d="M260.63,94.91v-3.04h3.81v3.04h-3.81ZM260.68,112.4v-14.94h3.73v14.94h-3.73Z"/>
        <path class="cls-1" d="M278.89,110.74c-.92.98-2.44,1.83-4.65,1.83s-3.7-.86-4.62-1.83c-1.35-1.4-1.69-3.1-1.69-5.82s.34-4.39,1.69-5.79c.92-.97,2.41-1.83,4.62-1.83s3.73.86,4.65,1.83c1.35,1.4,1.69,3.1,1.69,5.79s-.34,4.42-1.69,5.82ZM275.99,101.31c-.43-.43-1-.66-1.75-.66s-1.29.23-1.72.66c-.77.77-.86,2.06-.86,3.61s.09,2.87.86,3.64c.43.43.97.66,1.72.66s1.32-.23,1.75-.66c.77-.77.86-2.09.86-3.64s-.09-2.84-.86-3.61Z"/>
        <path class="cls-1" d="M292.82,112.4v-9.03c0-2.04-1.29-2.72-2.47-2.72s-2.49.69-2.49,2.72v9.03h-3.73v-14.94h3.64v1.38c.97-1.03,2.35-1.55,3.73-1.55,1.49,0,2.69.49,3.53,1.32,1.2,1.2,1.52,2.61,1.52,4.24v9.55h-3.73Z"/>
        <path class="cls-1" d="M306.81,112.4v-3.35l7.63-8.86c.75-.89,1.06-1.52,1.06-2.47,0-1.52-.89-2.55-2.47-2.55-1.23,0-2.49.63-2.49,2.61h-3.73c0-3.73,2.72-5.96,6.22-5.96s6.19,2.27,6.19,5.94c0,1.98-.77,3.04-2.18,4.67l-5.71,6.62h7.88v3.35h-12.42Z"/>
        <path class="cls-1" d="M328.48,112.58c-3.33,0-6.22-2.18-6.22-6.08v-8.6c0-3.9,2.9-6.08,6.22-6.08s6.19,2.18,6.19,6.08v8.6c0,3.9-2.87,6.08-6.19,6.08ZM330.95,97.95c0-1.72-1-2.78-2.47-2.78s-2.5,1.06-2.5,2.78v8.52c0,1.72,1.03,2.75,2.5,2.75s2.47-1.03,2.47-2.75v-8.52Z"/>
        <path class="cls-1" d="M337.94,112.4v-3.35l7.63-8.86c.75-.89,1.06-1.52,1.06-2.47,0-1.52-.89-2.55-2.47-2.55-1.23,0-2.49.63-2.49,2.61h-3.73c0-3.73,2.72-5.96,6.22-5.96s6.19,2.27,6.19,5.94c0,1.98-.77,3.04-2.18,4.67l-5.71,6.62h7.88v3.35h-12.42Z"/>
        <path class="cls-1" d="M364.63,109.51v2.9h-3.58v-2.9h-8.34v-3.53l7-13.99h4.07l-7,13.99h4.27v-3.81h3.58v3.81h1.86v3.53h-1.86Z"/>
        <path class="cls-1" d="M377.18,114.53v-24.66h3.73v24.66h-3.73Z"/>
        <path class="cls-1" d="M405.87,104v3.7h11.92v1.55h-11.92v6.05h-1.61v-6.05h-11.92v-1.55h11.92v-3.7h1.61ZM395.78,102.4c.13-.19.2-.42.2-.69v-11.95h1.61v4.7h7.05v1.49h-7.05v6.08c2.37-.82,4.74-1.66,7.11-2.52l.12,1.52c-2.47.88-4.91,1.75-7.34,2.61-.57.19-1.12.42-1.63.69l-.72-1.43c.25-.11.47-.28.66-.49ZM407.74,89.7v6.19c1.53-.73,3.04-1.5,4.53-2.32,1.2-.63,2.37-1.33,3.5-2.09l.83,1.4c-1.28.84-2.6,1.6-3.96,2.29-1.61.84-3.24,1.63-4.9,2.38v2.26c-.02.29,0,.57.06.86.06.27.17.52.34.75.17.17.38.3.63.37.29.08.59.1.92.09h3.75c.36.02.72,0,1.06-.09.27-.08.5-.2.69-.37.13-.15.23-.32.29-.52.12-.34.18-.7.2-1.06.04-1.07.08-2.16.11-3.27l1.49.29c-.04,1.22-.1,2.43-.17,3.61-.04.52-.15,1-.34,1.46-.11.27-.28.51-.49.72-.33.25-.68.42-1.06.52-.54.11-1.06.16-1.58.14h-4.7c-.44.02-.86-.03-1.26-.14-.34-.11-.65-.31-.92-.6-.25-.31-.42-.66-.52-1.06-.1-.4-.13-.81-.11-1.23v-10.58h1.61Z"/>
        <path class="cls-1" d="M429.61,111.95v-22.13h1.69v22.13h4.87v-22.13h1.69v22.13h8.66v1.6h-25.6v-1.6h8.69ZM423.42,94.6c1.76,3.88,3.47,7.78,5.13,11.7l-1.61.75c-1.61-3.94-3.29-7.85-5.04-11.75l1.52-.69ZM444.08,94.72l1.58.66c-1.64,3.99-3.4,7.91-5.27,11.75l-1.52-.77c1.89-3.8,3.63-7.68,5.22-11.64Z"/>
        <path class="cls-1" d="M450.56,94.14l1.46.14c-.42,3.44-.95,6.84-1.58,10.21l-1.52-.23c.73-3.33,1.27-6.7,1.63-10.12ZM454.86,89.61v25.51h-1.52v-25.51h1.52ZM456.35,94.09c1.09,1.72,2.18,3.45,3.27,5.19l-1.23.92c-1.05-1.74-2.12-3.47-3.21-5.19l1.17-.92ZM464.49,102.92c0-.27,0-.54.03-.83,0-2.04,0-4.11.03-6.19h-5.36v-1.52h5.36c-.02-1.59-.01-3.17.03-4.76h1.52c0,1.61-.01,3.19-.03,4.76h6.39v8.54h3.04v1.52h-9.12c.67,2.24,1.83,4.18,3.47,5.82.9.82,1.87,1.54,2.92,2.15.88.52,1.8.97,2.75,1.38l-.8,1.43c-2.04-.88-3.89-2.04-5.53-3.5-1.68-1.59-2.93-3.47-3.76-5.65-.55,1.76-1.46,3.32-2.72,4.67-.82.86-1.71,1.63-2.67,2.32-1.15.84-2.33,1.61-3.55,2.32l-.86-1.38c1.26-.69,2.47-1.43,3.64-2.24.96-.71,1.83-1.51,2.61-2.41,1.22-1.43,2.03-3.08,2.41-4.93h-7.22v-1.52h7.42ZM466.07,95.89c-.02,2.04-.03,4.08-.03,6.11-.02.33-.03.63-.03.92h4.9v-7.02h-4.84Z"/>
        <path class="cls-1" d="M484.65,104.69l1.4.89c-2.04,2.98-4.36,5.71-6.94,8.2l-1.29-1.09c2.56-2.41,4.83-5.07,6.82-8ZM481.61,92.17c6.42-.25,12.81-.84,19.18-1.78l.34,1.61c-5.98.86-11.97,1.43-17.97,1.72l-.92,7.4h8.34v-6.36h1.72v6.36h10.49v1.58h-10.49v8.94c0,.52-.07,1.03-.2,1.55-.1.29-.24.53-.43.75-.31.29-.66.47-1.06.54-.57.11-1.15.17-1.72.17h-3.33l-.34-1.6h3.15c.38,0,.77-.03,1.17-.09.19-.06.37-.13.54-.23.19-.13.32-.31.37-.52.08-.32.11-.66.11-1v-8.51h-10.21l1.23-10.52ZM496.8,104.75c2.39,2.62,4.76,5.25,7.11,7.88l-1.38,1.09c-2.31-2.68-4.65-5.32-7.02-7.94l1.29-1.03Z"/>
      </g>
      <path class="cls-3" d="M504.47,22.03s-.38-32.83-23.15-18.34c-12.52,7.97,10.81,48.66,10.81,48.66,0,0,42.7-6.54,42.7-28.39,0-14.58-24.29-10.91-30.36-1.93Z"/>
      <g>
        <path class="cls-1" d="M513.5,45.61v-5.16h-12.56v-4.97h41.52v4.97h-13.23v5.16h11.28v30.34h-4.97v-2.48h-27.81v2.44h-5.02v-30.29h10.8ZM527.4,62.9c-.8-.22-1.48-.6-2.05-1.15-.38-.45-.67-.96-.86-1.53-.29-.99-.42-1.99-.38-3.01v-6.59h-5.54c-.03,1.82-.19,3.6-.48,5.35-.25,1.43-.73,2.8-1.43,4.11-.57.92-1.24,1.78-2.01,2.58-1.31,1.21-2.72,2.25-4.25,3.1l-2.68-2.82v5.49h27.81v-5.21h-4.97c-1.08.03-2.13-.08-3.15-.33ZM510.92,59.27c.54-.57,1.02-1.19,1.43-1.86.45-.92.75-1.88.91-2.87.16-1.31.24-2.61.24-3.92h-5.78v11.13c1.15-.7,2.21-1.53,3.2-2.48ZM518.56,45.61h5.54v-5.16h-5.54v5.16ZM529.36,57.08c.06.29.19.53.38.72.25.26.57.43.96.53.51.1,1.05.13,1.62.1h3.2v-7.79h-6.31v4.97c-.03.51.02,1,.14,1.48Z"/>
        <path class="cls-1" d="M550.43,45.18c2.87,2.13,5.7,4.33,8.5,6.59l-3.25,4.3c-2.74-2.36-5.51-4.65-8.31-6.88l3.06-4.01ZM553.44,76l-5.16-1.77c1.94-5.41,3.77-10.89,5.49-16.44l5.02,1.67c-1.88,5.51-3.66,11.02-5.35,16.53ZM576.8,33.9v5.21h5.83c-1.15-1.08-2.31-2.15-3.49-3.2l3.44-3.06c1.78,1.59,3.55,3.23,5.3,4.92l-1.48,1.34h4.2v4.59h-13.81v3.15h11.71v24.13c0,.86-.11,1.74-.33,2.63-.22.64-.59,1.18-1.1,1.62-.45.32-.92.54-1.43.67-.96.22-1.91.33-2.87.33h-3.87l-.96-4.87h2.68c.48.03.97,0,1.48-.1.25-.03.48-.11.67-.24.22-.19.37-.43.43-.72.1-.41.14-.83.14-1.24v-1.67h-6.55v7.69h-4.83v-7.69h-6.45v8.93h-5.21v-29.48h11.66v-3.15h-11.51v-2.39l-2.72,3.68c-2.67-2.23-5.37-4.41-8.07-6.55l3.06-4.01c2.61,1.94,5.19,3.93,7.74,5.97v-1.29h11.51v-5.21h4.83ZM565.53,54.93h6.45v-3.39h-6.45v3.39ZM565.53,62.86h6.45v-3.44h-6.45v3.44ZM576.8,51.53v3.39h6.55v-3.39h-6.55ZM576.8,62.86h6.55v-3.44h-6.55v3.44Z"/>
      </g>
    </g>
  </g>
</svg>