<?xml version="1.0" encoding="UTF-8"?>
<svg id="_图层_2" data-name="图层 2" xmlns="http://www.w3.org/2000/svg" viewBox="0 0 546.73 115.93">
  <defs>
    <style>
      .cls-1 {
        fill: #242a74;
        stroke-width: 0px;
      }
    </style>
  </defs>
  <g id="_图层_1-2" data-name="图层 1">
    <g>
      <path class="cls-1" d="M66.19,28.51c-2.81,0-5.11-1.01-6.91-2.81-2.59-2.59-2.52-5.79-2.52-10.22s-.07-7.63,2.52-10.22c1.8-1.8,4.1-2.81,6.91-2.81,4.79,0,8.53,2.74,9.43,8.1h-5.08c-.5-2.05-1.8-3.64-4.32-3.64-1.37,0-2.48.5-3.2,1.33-.97,1.08-1.26,2.3-1.26,7.23s.29,6.16,1.26,7.24c.72.83,1.84,1.33,3.2,1.33,2.52,0,3.82-1.58,4.32-3.64h5.08c-.9,5.36-4.68,8.1-9.43,8.1Z"/>
      <path class="cls-1" d="M83.25,20.37c0,2.41,1.48,4.18,4.1,4.18,2.05,0,3.06-.58,4.25-1.76l2.84,2.77c-1.91,1.91-3.74,2.95-7.13,2.95-4.43,0-8.68-2.02-8.68-9.61,0-6.12,3.31-9.57,8.17-9.57,5.22,0,8.17,3.82,8.17,8.96v2.09h-11.73ZM89.95,15.15c-.5-1.12-1.55-1.94-3.13-1.94s-2.63.83-3.13,1.94c-.29.68-.4,1.19-.43,2.02h7.13c-.04-.83-.14-1.33-.43-2.02Z"/>
      <path class="cls-1" d="M110.21,28.29v-11.34c0-2.56-1.62-3.42-3.1-3.42s-3.13.86-3.13,3.42v11.34h-4.68V9.54h4.57v1.73c1.22-1.3,2.95-1.94,4.68-1.94,1.87,0,3.38.61,4.43,1.66,1.51,1.51,1.91,3.28,1.91,5.33v11.99h-4.68Z"/>
      <path class="cls-1" d="M125.8,28.29c-3.82,0-5.44-2.7-5.44-5.36v-9.29h-1.98v-3.56h1.98v-5.54h4.68v5.54h3.31v3.56h-3.31v9c0,1.08.5,1.69,1.62,1.69h1.69v3.96h-2.56Z"/>
      <path class="cls-1" d="M142.79,14.65c-.72-.72-1.33-1.12-2.48-1.12-1.44,0-3.02,1.08-3.02,3.46v11.3h-4.68V9.54h4.57v1.8c.9-1.08,2.7-2.02,4.71-2.02,1.84,0,3.13.47,4.43,1.76l-3.53,3.56Z"/>
      <path class="cls-1" d="M158.24,28.29v-1.62c-1.26,1.26-2.45,1.8-4.61,1.8s-3.67-.54-4.79-1.66c-1.01-1.04-1.55-2.56-1.55-4.21,0-2.99,2.05-5.44,6.41-5.44h4.43v-.94c0-2.05-1.01-2.95-3.49-2.95-1.8,0-2.63.43-3.6,1.55l-2.99-2.92c1.84-2.02,3.64-2.59,6.77-2.59,5.26,0,7.99,2.23,7.99,6.62v12.35h-4.57ZM158.13,20.37h-3.71c-1.69,0-2.63.79-2.63,2.12s.86,2.16,2.7,2.16c1.3,0,2.12-.11,2.95-.9.5-.47.68-1.22.68-2.38v-1.01Z"/>
      <path class="cls-1" d="M173.14,28.29c-3.85,0-5.47-2.7-5.47-5.36V2.66h4.68v19.98c0,1.12.47,1.69,1.66,1.69h1.8v3.96h-2.66Z"/>
      <path class="cls-1" d="M198.99,28.29h-10.73V2.66h10.29c5,0,7.92,2.81,7.92,7.2,0,2.84-1.87,4.68-3.17,5.29,1.55.72,3.53,2.34,3.53,5.76,0,4.79-3.28,7.38-7.85,7.38ZM198.16,7.13h-4.9v5.9h4.9c2.12,0,3.31-1.19,3.31-2.95s-1.19-2.95-3.31-2.95ZM198.48,17.53h-5.22v6.3h5.22c2.27,0,3.35-1.44,3.35-3.17s-1.08-3.13-3.35-3.13Z"/>
      <path class="cls-1" d="M222.39,28.29v-1.73c-1.22,1.3-2.95,1.94-4.68,1.94-1.87,0-3.38-.61-4.43-1.66-1.51-1.51-1.91-3.28-1.91-5.33v-11.99h4.68v11.34c0,2.56,1.62,3.42,3.1,3.42s3.13-.86,3.13-3.42v-11.34h4.68v18.75h-4.57Z"/>
      <path class="cls-1" d="M232.14,6.34v-3.82h4.79v3.82h-4.79ZM232.22,28.29V9.54h4.68v18.75h-4.68Z"/>
      <path class="cls-1" d="M247.41,28.29c-3.85,0-5.47-2.7-5.47-5.36V2.66h4.68v19.98c0,1.12.47,1.69,1.66,1.69h1.8v3.96h-2.66Z"/>
      <path class="cls-1" d="M264.18,28.29v-1.76c-1.3,1.44-2.66,1.98-4.64,1.98-1.84,0-3.56-.65-4.61-1.69-1.87-1.87-1.91-5.11-1.91-7.92s.04-6.01,1.91-7.88c1.04-1.04,2.74-1.69,4.57-1.69s3.35.5,4.57,1.87V2.66h4.68v25.63h-4.57ZM260.87,13.53c-2.81,0-3.17,2.3-3.17,5.36s.36,5.4,3.17,5.4,3.2-2.34,3.2-5.4-.4-5.36-3.2-5.36Z"/>
      <path class="cls-1" d="M273.94,6.34v-3.82h4.79v3.82h-4.79ZM274.01,28.29V9.54h4.68v18.75h-4.68Z"/>
      <path class="cls-1" d="M294.82,28.29v-11.34c0-2.56-1.62-3.42-3.1-3.42s-3.13.86-3.13,3.42v11.34h-4.68V9.54h4.57v1.73c1.22-1.3,2.95-1.94,4.68-1.94,1.87,0,3.38.61,4.43,1.66,1.51,1.51,1.91,3.28,1.91,5.33v11.99h-4.68Z"/>
      <path class="cls-1" d="M311.02,35.38c-2.88,0-4.86-.58-6.8-2.45l2.92-2.95c1.04,1.01,2.09,1.44,3.67,1.44,2.81,0,3.78-1.98,3.78-3.89v-1.91c-1.22,1.37-2.63,1.87-4.46,1.87s-3.42-.61-4.46-1.66c-1.76-1.76-1.91-4.18-1.91-7.45s.14-5.65,1.91-7.42c1.04-1.04,2.66-1.66,4.5-1.66,1.98,0,3.28.54,4.57,1.98v-1.76h4.54v18.07c0,4.5-3.2,7.78-8.24,7.78ZM311.49,13.53c-2.77,0-3.06,2.38-3.06,4.86s.29,4.9,3.06,4.9,3.1-2.41,3.1-4.9-.32-4.86-3.1-4.86Z"/>
      <path class="cls-1" d="M334.2,30.96V0h4.68v30.96h-4.68Z"/>
      <path class="cls-1" d="M372.4,28.29v-14.94l-4.89,9.72h-3.38l-4.93-9.72v14.94h-5V2.66h4.93l6.7,13.86,6.66-13.86h4.93v25.63h-5Z"/>
      <path class="cls-1" d="M393.82,28.29v-1.73c-1.22,1.3-2.95,1.94-4.68,1.94-1.87,0-3.38-.61-4.43-1.66-1.51-1.51-1.91-3.28-1.91-5.33v-11.99h4.68v11.34c0,2.56,1.62,3.42,3.09,3.42s3.13-.86,3.13-3.42v-11.34h4.68v18.75h-4.57Z"/>
      <path class="cls-1" d="M409.8,28.51c-2.95,0-5.62-.32-7.99-2.7l3.06-3.06c1.55,1.55,3.56,1.76,5,1.76,1.62,0,3.31-.54,3.31-1.94,0-.94-.5-1.58-1.98-1.73l-2.95-.29c-3.38-.32-5.47-1.8-5.47-5.25,0-3.89,3.42-5.98,7.24-5.98,2.92,0,5.36.5,7.16,2.2l-2.88,2.92c-1.08-.97-2.74-1.26-4.36-1.26-1.87,0-2.66.86-2.66,1.8,0,.68.29,1.48,1.94,1.62l2.95.29c3.71.36,5.58,2.34,5.58,5.51,0,4.14-3.53,6.12-7.96,6.12Z"/>
      <path class="cls-1" d="M425.35,20.37c0,2.41,1.48,4.18,4.1,4.18,2.05,0,3.06-.58,4.25-1.76l2.84,2.77c-1.91,1.91-3.74,2.95-7.13,2.95-4.43,0-8.68-2.02-8.68-9.61,0-6.12,3.31-9.57,8.17-9.57,5.22,0,8.17,3.82,8.17,8.96v2.09h-11.73ZM432.05,15.15c-.5-1.12-1.55-1.94-3.13-1.94s-2.63.83-3.13,1.94c-.29.68-.4,1.19-.43,2.02h7.13c-.04-.83-.14-1.33-.43-2.02Z"/>
      <path class="cls-1" d="M452.21,28.29v-1.73c-1.22,1.3-2.95,1.94-4.68,1.94-1.87,0-3.38-.61-4.43-1.66-1.51-1.51-1.91-3.28-1.91-5.33v-11.99h4.68v11.34c0,2.56,1.62,3.42,3.1,3.42s3.13-.86,3.13-3.42v-11.34h4.68v18.75h-4.57Z"/>
      <path class="cls-1" d="M483.85,28.29v-11.34c0-2.56-1.62-3.42-3.1-3.42s-3.13.86-3.13,3.31v11.45h-4.68v-11.34c0-2.56-1.62-3.42-3.1-3.42s-3.13.86-3.13,3.42v11.34h-4.68V9.54h4.57v1.73c1.22-1.26,2.95-1.94,4.68-1.94,2.09,0,3.78.76,4.97,2.38,1.58-1.66,3.28-2.38,5.62-2.38,1.87,0,3.56.61,4.61,1.66,1.51,1.51,2.05,3.28,2.05,5.33v11.99h-4.68Z"/>
    </g>
    <g>
      <path class="cls-1" d="M198.03,42.71v4.15h8.23v11.26h-2.74v-1.06h-5.5v6.94h-2.76v-6.94h-5.42v1.1h-2.76v-11.3h8.18v-4.15h2.76ZM189.85,54.47h5.42v-4.97h-5.42v4.97ZM198.03,49.5v4.97h5.5v-4.97h-5.5Z"/>
      <path class="cls-1" d="M212.05,49.45l2.78.58c-.72,3.18-1.67,6.28-2.86,9.29l-2.64-.86c1.1-2.93,2.01-5.93,2.71-9ZM218.14,47.48v11.9c-.02.29,0,.56.07.82.05.14.12.27.22.38.14.14.32.23.53.26.29.06.58.09.89.07h2.59c.34.02.68,0,1.03-.05.16-.05.31-.11.46-.19.18-.13.29-.29.34-.48.08-.29.13-.58.14-.86.06-1.14.1-2.29.1-3.46l2.83.62-.19,3.82c-.03.58-.14,1.13-.34,1.66-.13.32-.31.6-.55.84-.38.3-.82.52-1.3.65-.66.13-1.31.19-1.97.19h-3.77c-.64,0-1.27-.07-1.9-.22-.46-.13-.87-.36-1.22-.7-.24-.29-.42-.6-.53-.94-.18-.62-.26-1.26-.24-1.92v-12.41h2.81ZM219.63,42.54c1.81,2.24,3.58,4.51,5.3,6.82l-2.35,1.7c-1.63-2.35-3.32-4.66-5.06-6.94l2.11-1.58ZM228.1,48.92c1.38,2.93,2.7,5.86,3.98,8.81l-2.54,1.1c-1.26-2.94-2.57-5.88-3.91-8.81l2.47-1.1Z"/>
      <path class="cls-1" d="M243.44,42.99c.9,1.06,1.78,2.12,2.66,3.19l-1.44,1.1h2.16v-4.58h2.4v4.58h1.99l-1.3-1.1c.94-.99,1.84-2.03,2.69-3.12l1.75,1.25c-.82,1.04-1.66,2.03-2.52,2.98h3.12v2.11h-4.63c.78.67,1.63,1.24,2.54,1.7.94.5,1.93.9,2.95,1.22l-.89,2.21c-1.18-.45-2.32-.98-3.41-1.61-.83-.5-1.6-1.07-2.3-1.73v2.3h-2.4v-2.18c-1.41,1.31-2.98,2.36-4.73,3.14l-.48-.98-1.42,1.3-1.25-1.44v10.85h-2.28v-9.46c-.58,1.46-1.27,2.85-2.09,4.18l-1.34-2.23c.62-.99,1.18-2.03,1.66-3.12.62-1.39,1.18-2.82,1.68-4.3h-2.42v-2.4h2.52v-4.13h2.28v4.13h2.06v2.4h-2.06v2.26l.6-.55c.59.64,1.18,1.28,1.78,1.92l-.31-.67c1.74-.67,3.34-1.61,4.8-2.81h-4.2v-2.11h2.59c-.77-1.01-1.55-2-2.35-2.98l1.58-1.32ZM243.37,57.23h-2.66v-2.21h3.94c.29-.54.56-1.11.82-1.7l2.35.58-.46,1.13h8.09v2.21h-2.57c-.5,1.14-1.16,2.14-1.99,3.02,1.49.58,2.98,1.17,4.46,1.78l-1.08,2.06c-1.82-.82-3.65-1.59-5.47-2.33-.99.51-2.02.93-3.07,1.25-1.66.5-3.34.91-5.04,1.25l-.77-2.16c1.23-.22,2.46-.47,3.7-.74.8-.18,1.59-.4,2.38-.67l-3.91-1.51c.45-.62.88-1.27,1.3-1.94ZM250.16,57.23h-3.98c-.21.35-.42.7-.65,1.03l3.02,1.1c.69-.58,1.22-1.29,1.61-2.14Z"/>
      <path class="cls-1" d="M269.96,44.46v23.11h-2.88v-23.11h2.88Z"/>
      <path class="cls-1" d="M283.73,48.08v-5.28h2.35v5.28h1.8v2.59h-1.8v13.42h-2.35v-13.42h-2.14v-2.59h2.14ZM296.33,42.75v2.09h2.54c-.18-.21-.35-.42-.53-.62-.3-.34-.57-.7-.79-1.08l1.75-.86c.3.46.63.9.98,1.3.32.34.6.69.84,1.06l-.43.22h2.18v1.97h-6.55v1.13h5.54v8.57h-1.68v.7h3v2.11h-3v1.97c0,.46-.06.92-.17,1.37-.11.34-.31.62-.6.84-.24.14-.5.26-.77.34-.54.1-1.08.14-1.61.14h-2.59l-.43-2.18h2.3c.27,0,.55-.02.84-.07.13-.02.25-.06.36-.12.13-.1.21-.22.24-.38.05-.19.07-.4.07-.62v-1.27h-6c.8.59,1.6,1.18,2.4,1.78l-1.44,1.7c-1.06-.9-2.14-1.74-3.26-2.54l.79-.94h-3.12v-2.11h10.63v-.96h1.66v-.7h-3.17v.84h-2.23v-.84h-3.26v.96h-2.33v-8.57h5.59v-1.13h-6v-1.97h6v-2.09h2.23ZM290.84,50.87h3.26v-1.1h-3.26v1.1ZM290.84,53.75h3.26v-1.1h-3.26v1.1ZM296.33,49.76v1.1h3.17v-1.1h-3.17ZM296.33,53.75h3.17v-1.1h-3.17v1.1Z"/>
      <path class="cls-1" d="M306.2,44.63l2.14.14-.19,2.26h1.15v-4.32h2.14v4.32h1.92v2.4c1.38-2.14,2.43-4.45,3.17-6.91l2.23.6c-.34,1.01-.7,1.99-1.1,2.95h8.78c-.18,4.7-.36,9.39-.55,14.06-.05.56-.16,1.1-.34,1.63-.13.3-.3.58-.53.84-.3.3-.67.53-1.1.67-.53.14-1.06.22-1.61.22h-2.88l-.46-2.47h2.64c.34.02.67-.02,1.01-.1.24-.05.45-.16.62-.34.11-.16.19-.33.24-.5.1-.34.15-.68.17-1.03.16-3.5.32-7.02.48-10.56h-.89c-.22,1.63-.54,3.25-.94,4.85-.37,1.41-.86,2.77-1.49,4.08-.67,1.31-1.47,2.54-2.4,3.67-.82.93-1.67,1.82-2.57,2.69l-1.68-1.87c.82-.74,1.59-1.52,2.33-2.35.86-1.02,1.62-2.13,2.26-3.31.61-1.17,1.1-2.38,1.49-3.65.38-1.34.7-2.71.94-4.1h-1.25c-.24,1.15-.54,2.29-.91,3.41-.37,1.02-.82,2.01-1.34,2.95-1.04,1.78-2.3,3.38-3.77,4.82l-1.63-1.92c1.31-1.17,2.44-2.5,3.38-3.98,1.01-1.63,1.72-3.39,2.14-5.28h-1.3c-.66,1.26-1.39,2.46-2.21,3.6l-1.75-1.54c.26-.34.51-.69.77-1.06h-1.87v3.84l2.18-.86.14,1.49.12.98-2.45.98v8.11h-2.28v-7.2c-1.07.43-2.14.86-3.19,1.3l-.7-2.54c1.3-.42,2.59-.88,3.89-1.39v-4.7h-1.25c-.16,1.39-.37,2.76-.62,4.1l-2.23-.36c.58-2.83.96-5.7,1.15-8.62Z"/>
      <path class="cls-1" d="M331.76,60.08v-8.83l-.94,2.09-1.82-1.66c1.3-2.82,2.26-5.75,2.88-8.81l2.35.34c-.21.91-.43,1.81-.67,2.69h3.26v2.45l-1.2,3.6-1.46-.55v8.04c.7-.54,1.42-1.09,2.14-1.63l.74,2.54c-1.07.74-2.11,1.48-3.12,2.23-.51.34-1,.7-1.46,1.08l-1.39-1.97c.51-.4.74-.94.7-1.61ZM331.95,50.75h2.02l.96-2.42h-2.09c-.27.83-.57,1.64-.89,2.42ZM342.75,44.96c-.29-.64-.57-1.29-.84-1.94l2.66-.5c.35.82.69,1.63,1.01,2.45h5.23v3.98h-1.49v6.22h-8.54v1.39h9.07v7.46h-2.47v-.89h-6.6v.98h-2.47v-15.17h-.94v-3.98h5.38ZM339.87,48.9h8.4v-1.66h-8.4v1.66ZM340.78,53h6.07v-1.92h-6.07v1.92ZM340.78,58.74v2.23h6.6v-2.23h-6.6Z"/>
    </g>
    <g>
      <path class="cls-1" d="M13.68,109.05v-10.73H5v10.73H0v-25.63h5v10.47h8.68v-10.47h5v25.63h-5Z"/>
      <path class="cls-1" d="M33.91,109.05v-1.62c-1.26,1.26-2.45,1.8-4.61,1.8s-3.67-.54-4.79-1.66c-1.01-1.04-1.55-2.56-1.55-4.21,0-2.99,2.05-5.44,6.41-5.44h4.43v-.94c0-2.05-1.01-2.95-3.49-2.95-1.8,0-2.63.43-3.6,1.55l-2.99-2.92c1.84-2.02,3.64-2.59,6.77-2.59,5.26,0,7.99,2.23,7.99,6.62v12.35h-4.57ZM33.8,101.13h-3.71c-1.69,0-2.63.79-2.63,2.12s.86,2.16,2.7,2.16c1.3,0,2.12-.11,2.95-.9.5-.47.69-1.22.69-2.38v-1.01Z"/>
      <path class="cls-1" d="M57.31,107.58c-1.04,1.04-2.73,1.69-4.57,1.69s-3.31-.5-4.54-1.87v8.53h-4.68v-25.63h4.54v1.76c1.29-1.44,2.7-1.98,4.68-1.98,1.84,0,3.53.65,4.57,1.69,1.87,1.87,1.91,5.08,1.91,7.88s-.04,6.05-1.91,7.92ZM51.37,94.29c-2.81,0-3.17,2.3-3.17,5.36s.36,5.4,3.17,5.4,3.17-2.34,3.17-5.4-.36-5.36-3.17-5.36Z"/>
      <path class="cls-1" d="M77.47,107.58c-1.04,1.04-2.73,1.69-4.57,1.69s-3.31-.5-4.54-1.87v8.53h-4.68v-25.63h4.54v1.76c1.29-1.44,2.7-1.98,4.68-1.98,1.84,0,3.53.65,4.57,1.69,1.87,1.87,1.91,5.08,1.91,7.88s-.04,6.05-1.91,7.92ZM71.53,94.29c-2.81,0-3.17,2.3-3.17,5.36s.36,5.4,3.17,5.4,3.17-2.34,3.17-5.4-.36-5.36-3.17-5.36Z"/>
      <path class="cls-1" d="M90.83,112.08c-.39,1.04-.83,1.84-1.4,2.41-1.08,1.08-2.48,1.44-4.03,1.44h-1.84v-4.21h1.08c1.33,0,1.87-.32,2.34-1.69l.79-2.3-6.41-17.42h4.93l3.89,11.59,3.74-11.59h4.93l-8.03,21.78Z"/>
      <path class="cls-1" d="M126.14,106.35c-2.05,2.12-4.5,2.92-7.24,2.92s-5.11-1.01-6.91-2.81c-2.59-2.59-2.52-5.79-2.52-10.22s-.07-7.63,2.52-10.22c1.8-1.8,4.03-2.81,6.91-2.81,5.94,0,8.96,3.89,9.65,8.21h-5.04c-.58-2.41-2.05-3.74-4.61-3.74-1.37,0-2.48.54-3.2,1.37-.97,1.08-1.22,2.27-1.22,7.2s.25,6.16,1.22,7.24c.72.83,1.84,1.33,3.2,1.33,1.51,0,2.74-.54,3.56-1.44.83-.94,1.15-2.09,1.15-3.42v-.97h-4.71v-4.18h9.68v3.74c0,3.71-.65,5.94-2.45,7.81Z"/>
      <path class="cls-1" d="M143.49,95.41c-.72-.72-1.33-1.12-2.48-1.12-1.44,0-3.03,1.08-3.03,3.46v11.3h-4.68v-18.75h4.57v1.8c.9-1.08,2.7-2.02,4.71-2.02,1.84,0,3.13.47,4.43,1.76l-3.53,3.56Z"/>
      <path class="cls-1" d="M158.94,109.05v-1.62c-1.26,1.26-2.45,1.8-4.61,1.8s-3.67-.54-4.79-1.66c-1.01-1.04-1.55-2.56-1.55-4.21,0-2.99,2.05-5.44,6.41-5.44h4.43v-.94c0-2.05-1.01-2.95-3.49-2.95-1.8,0-2.63.43-3.6,1.55l-2.99-2.92c1.84-2.02,3.63-2.59,6.77-2.59,5.25,0,7.99,2.23,7.99,6.62v12.35h-4.57ZM158.83,101.13h-3.71c-1.69,0-2.63.79-2.63,2.12s.87,2.16,2.7,2.16c1.29,0,2.12-.11,2.95-.9.5-.47.68-1.22.68-2.38v-1.01Z"/>
      <path class="cls-1" d="M178.92,109.05v-1.76c-1.3,1.44-2.66,1.98-4.64,1.98-1.83,0-3.56-.65-4.61-1.69-1.87-1.87-1.91-5.11-1.91-7.92s.04-6.01,1.91-7.88c1.04-1.04,2.74-1.69,4.57-1.69s3.35.5,4.57,1.87v-8.53h4.68v25.63h-4.57ZM175.61,94.29c-2.81,0-3.17,2.3-3.17,5.36s.36,5.4,3.17,5.4,3.21-2.34,3.21-5.4-.4-5.36-3.21-5.36Z"/>
      <path class="cls-1" d="M199.55,109.05v-1.73c-1.22,1.3-2.95,1.94-4.68,1.94-1.87,0-3.38-.61-4.43-1.66-1.51-1.51-1.91-3.28-1.91-5.33v-11.99h4.68v11.34c0,2.56,1.62,3.42,3.1,3.42s3.13-.86,3.13-3.42v-11.34h4.68v18.75h-4.57Z"/>
      <path class="cls-1" d="M218.99,109.05v-1.62c-1.26,1.26-2.45,1.8-4.61,1.8s-3.67-.54-4.79-1.66c-1.01-1.04-1.55-2.56-1.55-4.21,0-2.99,2.05-5.44,6.41-5.44h4.43v-.94c0-2.05-1.01-2.95-3.49-2.95-1.8,0-2.63.43-3.6,1.55l-2.99-2.92c1.84-2.02,3.64-2.59,6.77-2.59,5.26,0,7.99,2.23,7.99,6.62v12.35h-4.57ZM218.88,101.13h-3.71c-1.69,0-2.63.79-2.63,2.12s.86,2.16,2.7,2.16c1.3,0,2.12-.11,2.95-.9.5-.47.69-1.22.69-2.38v-1.01Z"/>
      <path class="cls-1" d="M234.47,109.05c-3.82,0-5.44-2.7-5.44-5.36v-9.29h-1.98v-3.56h1.98v-5.54h4.68v5.54h3.31v3.56h-3.31v9c0,1.08.5,1.69,1.62,1.69h1.69v3.96h-2.55Z"/>
      <path class="cls-1" d="M241.2,87.1v-3.82h4.79v3.82h-4.79ZM241.27,109.05v-18.75h4.68v18.75h-4.68Z"/>
      <path class="cls-1" d="M264.13,106.96c-1.15,1.22-3.06,2.3-5.83,2.3s-4.64-1.08-5.79-2.3c-1.69-1.76-2.12-3.89-2.12-7.31s.43-5.51,2.12-7.27c1.15-1.22,3.02-2.3,5.79-2.3s4.68,1.08,5.83,2.3c1.69,1.76,2.12,3.89,2.12,7.27s-.43,5.54-2.12,7.31ZM260.49,95.12c-.54-.54-1.26-.83-2.2-.83s-1.62.29-2.16.83c-.97.97-1.08,2.59-1.08,4.54s.11,3.6,1.08,4.57c.54.54,1.22.83,2.16.83s1.66-.29,2.2-.83c.97-.97,1.08-2.63,1.08-4.57s-.11-3.56-1.08-4.54Z"/>
      <path class="cls-1" d="M281.62,109.05v-11.34c0-2.56-1.62-3.42-3.1-3.42s-3.13.86-3.13,3.42v11.34h-4.68v-18.75h4.57v1.73c1.22-1.3,2.95-1.94,4.68-1.94,1.87,0,3.38.61,4.43,1.66,1.51,1.51,1.91,3.28,1.91,5.33v11.99h-4.68Z"/>
      <path class="cls-1" d="M299.19,109.05v-4.21l9.57-11.12c.94-1.12,1.33-1.91,1.33-3.1,0-1.91-1.12-3.2-3.1-3.2-1.55,0-3.13.79-3.13,3.28h-4.68c0-4.68,3.42-7.49,7.81-7.49s7.78,2.84,7.78,7.45c0,2.48-.97,3.82-2.73,5.87l-7.16,8.31h9.9v4.21h-15.59Z"/>
      <path class="cls-1" d="M326.41,109.27c-4.18,0-7.81-2.74-7.81-7.63v-10.8c0-4.9,3.63-7.63,7.81-7.63s7.78,2.74,7.78,7.63v10.8c0,4.9-3.6,7.63-7.78,7.63ZM329.5,90.91c0-2.16-1.26-3.49-3.1-3.49s-3.13,1.33-3.13,3.49v10.69c0,2.16,1.29,3.46,3.13,3.46s3.1-1.3,3.1-3.46v-10.69Z"/>
      <path class="cls-1" d="M338.29,109.05v-4.21l9.57-11.12c.94-1.12,1.33-1.91,1.33-3.1,0-1.91-1.12-3.2-3.1-3.2-1.55,0-3.13.79-3.13,3.28h-4.68c0-4.68,3.42-7.49,7.81-7.49s7.78,2.84,7.78,7.45c0,2.48-.97,3.82-2.74,5.87l-7.16,8.31h9.9v4.21h-15.59Z"/>
      <path class="cls-1" d="M371.8,105.42v3.64h-4.5v-3.64h-10.47v-4.43l8.78-17.57h5.11l-8.78,17.57h5.36v-4.79h4.5v4.79h2.34v4.43h-2.34Z"/>
      <path class="cls-1" d="M387.57,111.72v-30.96h4.68v30.96h-4.68Z"/>
      <path class="cls-1" d="M423.61,98.5v4.64h14.97v1.94h-14.97v7.6h-2.02v-7.6h-14.98v-1.94h14.98v-4.64h2.02ZM410.94,96.49c.17-.24.25-.53.25-.86v-15.01h2.02v5.9h8.86v1.87h-8.86v7.63c2.97-1.03,5.95-2.09,8.93-3.17l.14,1.91c-3.1,1.1-6.17,2.2-9.22,3.28-.72.24-1.4.53-2.05.86l-.9-1.8c.31-.14.59-.35.83-.61ZM425.95,80.54v7.78c1.92-.91,3.82-1.88,5.69-2.92,1.51-.79,2.98-1.67,4.39-2.63l1.04,1.76c-1.61,1.06-3.26,2.02-4.97,2.88-2.02,1.06-4.07,2.05-6.16,2.99v2.84c-.03.36,0,.72.07,1.08.07.34.21.65.43.94.21.22.48.37.79.47.36.1.74.13,1.15.11h4.72c.46.02.9-.01,1.33-.11.34-.1.62-.25.86-.47.17-.19.29-.41.36-.65.14-.43.23-.88.25-1.33.05-1.34.09-2.71.14-4.1l1.87.36c-.05,1.54-.12,3.05-.22,4.54-.05.65-.19,1.26-.43,1.84-.14.34-.35.64-.61.9-.41.31-.85.53-1.33.65-.67.14-1.33.2-1.98.18h-5.9c-.55.02-1.08-.04-1.58-.18-.43-.14-.82-.4-1.15-.76-.31-.38-.53-.83-.65-1.33-.12-.5-.17-1.02-.14-1.55v-13.28h2.02Z"/>
      <path class="cls-1" d="M453.42,108.48v-27.79h2.12v27.79h6.12v-27.79h2.12v27.79h10.87v2.02h-32.15v-2.02h10.91ZM445.64,86.7c2.21,4.87,4.36,9.77,6.44,14.69l-2.02.94c-2.02-4.94-4.13-9.86-6.34-14.76l1.91-.86ZM471.6,86.84l1.98.83c-2.06,5.02-4.27,9.94-6.62,14.76l-1.91-.97c2.38-4.78,4.56-9.65,6.55-14.62Z"/>
      <path class="cls-1" d="M479.73,86.12l1.84.18c-.53,4.32-1.19,8.59-1.98,12.82l-1.91-.29c.91-4.18,1.6-8.41,2.05-12.71ZM485.13,80.43v32.04h-1.91v-32.04h1.91ZM487.01,86.05c1.37,2.16,2.73,4.33,4.1,6.52l-1.55,1.15c-1.32-2.18-2.66-4.36-4.03-6.52l1.48-1.15ZM497.23,97.14c0-.34.01-.68.04-1.04,0-2.57.01-5.16.04-7.78h-6.73v-1.91h6.73c-.02-1.99-.01-3.98.04-5.98h1.91c0,2.02-.01,4.01-.04,5.98h8.03v10.73h3.82v1.91h-11.45c.84,2.81,2.29,5.24,4.36,7.31,1.13,1.03,2.35,1.93,3.67,2.7,1.1.65,2.26,1.22,3.46,1.73l-1.01,1.8c-2.57-1.1-4.88-2.57-6.95-4.39-2.11-1.99-3.68-4.36-4.72-7.09-.7,2.21-1.84,4.16-3.42,5.87-1.03,1.08-2.15,2.05-3.35,2.92-1.44,1.06-2.93,2.03-4.46,2.92l-1.08-1.73c1.58-.86,3.11-1.8,4.57-2.81,1.2-.89,2.29-1.9,3.28-3.02,1.54-1.8,2.54-3.86,3.02-6.19h-9.07v-1.91h9.32ZM499.21,88.32c-.02,2.57-.04,5.12-.04,7.67-.03.41-.04.79-.04,1.15h6.16v-8.82h-6.08Z"/>
      <path class="cls-1" d="M522.54,99.37l1.76,1.12c-2.57,3.74-5.47,7.18-8.71,10.3l-1.62-1.37c3.22-3.02,6.07-6.37,8.57-10.04ZM518.72,83.64c8.06-.31,16.09-1.06,24.08-2.23l.43,2.02c-7.51,1.08-15.04,1.8-22.57,2.16l-1.15,9.29h10.47v-7.99h2.16v7.99h13.18v1.98h-13.18v11.23c0,.65-.08,1.3-.25,1.94-.12.36-.3.67-.54.94-.38.36-.83.59-1.33.68-.72.14-1.44.22-2.16.22h-4.18l-.43-2.02h3.96c.48,0,.97-.04,1.48-.11.24-.07.47-.17.68-.29.24-.17.4-.38.47-.65.1-.41.14-.83.14-1.26v-10.69h-12.81l1.55-13.21ZM537.8,99.44c3,3.29,5.98,6.59,8.93,9.9l-1.73,1.37c-2.9-3.36-5.84-6.68-8.82-9.97l1.62-1.3Z"/>
    </g>
  </g>
</svg>