<?xml version="1.0" encoding="UTF-8"?>
<svg id="_图层_2" data-name="图层 2" xmlns="http://www.w3.org/2000/svg" viewBox="0 0 668.98 115.64">
  <defs>
    <style>
      .cls-1 {
        fill: #242a74;
        stroke-width: 0px;
      }
    </style>
  </defs>
  <g id="_图层_1-2" data-name="图层 1">
    <g>
      <path class="cls-1" d="M0,8.21V3.78L4.9,0v8.21H0Z"/>
      <path class="cls-1" d="M24.05,29.41v-10.73h-8.67v10.73h-5V3.78h5v10.47h8.67V3.78h5v25.63h-5Z"/>
      <path class="cls-1" d="M47.63,27.32c-1.15,1.22-3.06,2.3-5.83,2.3s-4.64-1.08-5.8-2.3c-1.69-1.76-2.12-3.89-2.12-7.31s.43-5.51,2.12-7.27c1.15-1.22,3.02-2.3,5.8-2.3s4.68,1.08,5.83,2.3c1.69,1.76,2.12,3.89,2.12,7.27s-.43,5.54-2.12,7.31ZM43.99,15.48c-.54-.54-1.26-.83-2.2-.83s-1.62.29-2.16.83c-.97.97-1.08,2.59-1.08,4.54s.11,3.6,1.08,4.57c.54.54,1.22.83,2.16.83s1.66-.29,2.2-.83c.97-.97,1.08-2.63,1.08-4.57s-.11-3.56-1.08-4.54Z"/>
      <path class="cls-1" d="M72.75,29.41h-3.85l-3.92-11.77-3.92,11.77h-3.85l-5.76-18.75h4.97l3.02,11.59,3.82-11.59h3.42l3.85,11.59,3.02-11.59h4.93l-5.72,18.75Z"/>
      <path class="cls-1" d="M94.86,14.76v14.65h-4.68v-14.65h-1.94v-3.56h1.94v-2.34c0-2.66,1.66-5.36,5.47-5.36h2.66v3.96h-1.83c-1.12,0-1.62.61-1.62,1.69v2.05h3.46v3.56h-3.46Z"/>
      <path class="cls-1" d="M110.95,29.41v-1.62c-1.26,1.26-2.45,1.8-4.61,1.8s-3.67-.54-4.79-1.66c-1.01-1.04-1.55-2.56-1.55-4.21,0-2.99,2.05-5.44,6.41-5.44h4.43v-.94c0-2.05-1.01-2.95-3.49-2.95-1.8,0-2.63.43-3.6,1.55l-2.99-2.92c1.84-2.02,3.64-2.59,6.77-2.59,5.26,0,7.99,2.23,7.99,6.62v12.35h-4.57ZM110.84,21.49h-3.71c-1.69,0-2.63.79-2.63,2.12s.86,2.16,2.7,2.16c1.3,0,2.12-.11,2.95-.9.5-.47.68-1.22.68-2.38v-1.01Z"/>
      <path class="cls-1" d="M130.75,15.77c-.72-.72-1.33-1.12-2.48-1.12-1.44,0-3.02,1.08-3.02,3.46v11.3h-4.68V10.65h4.57v1.8c.9-1.08,2.7-2.02,4.72-2.02,1.84,0,3.13.47,4.43,1.76l-3.53,3.56Z"/>
      <path class="cls-1" d="M154.91,29.41v-1.62c-1.26,1.26-2.45,1.8-4.61,1.8s-3.67-.54-4.79-1.66c-1.01-1.04-1.55-2.56-1.55-4.21,0-2.99,2.05-5.44,6.41-5.44h4.43v-.94c0-2.05-1.01-2.95-3.49-2.95-1.8,0-2.63.43-3.6,1.55l-2.99-2.92c1.84-2.02,3.64-2.59,6.77-2.59,5.26,0,7.99,2.23,7.99,6.62v12.35h-4.57ZM154.8,21.49h-3.71c-1.69,0-2.63.79-2.63,2.12s.86,2.16,2.7,2.16c1.3,0,2.12-.11,2.95-.9.5-.47.68-1.22.68-2.38v-1.01Z"/>
      <path class="cls-1" d="M183.34,29.41h-3.85l-3.92-11.77-3.92,11.77h-3.85l-5.76-18.75h4.97l3.02,11.59,3.82-11.59h3.42l3.85,11.59,3.02-11.59h4.93l-5.72,18.75Z"/>
      <path class="cls-1" d="M201.45,29.41v-1.62c-1.26,1.26-2.45,1.8-4.61,1.8s-3.67-.54-4.79-1.66c-1.01-1.04-1.55-2.56-1.55-4.21,0-2.99,2.05-5.44,6.41-5.44h4.43v-.94c0-2.05-1.01-2.95-3.49-2.95-1.8,0-2.63.43-3.6,1.55l-2.99-2.92c1.84-2.02,3.63-2.59,6.77-2.59,5.25,0,7.99,2.23,7.99,6.62v12.35h-4.57ZM201.34,21.49h-3.71c-1.69,0-2.63.79-2.63,2.12s.86,2.16,2.7,2.16c1.29,0,2.12-.11,2.95-.9.5-.47.68-1.22.68-2.38v-1.01Z"/>
      <path class="cls-1" d="M218.05,32.43c-.4,1.04-.83,1.84-1.4,2.41-1.08,1.08-2.48,1.44-4.03,1.44h-1.83v-4.21h1.08c1.33,0,1.87-.32,2.34-1.69l.79-2.3-6.41-17.42h4.93l3.89,11.59,3.74-11.59h4.93l-8.03,21.78Z"/>
      <path class="cls-1" d="M237.13,7.45v-3.82h4.79v3.82h-4.79ZM237.2,29.41V10.65h4.68v18.75h-4.68Z"/>
      <path class="cls-1" d="M253.26,29.62c-2.95,0-5.62-.32-7.99-2.7l3.06-3.06c1.55,1.55,3.56,1.76,5,1.76,1.62,0,3.31-.54,3.31-1.94,0-.94-.5-1.58-1.98-1.73l-2.95-.29c-3.38-.32-5.47-1.8-5.47-5.25,0-3.89,3.42-5.98,7.23-5.98,2.92,0,5.36.5,7.16,2.2l-2.88,2.92c-1.08-.97-2.73-1.26-4.36-1.26-1.87,0-2.66.86-2.66,1.8,0,.68.29,1.48,1.94,1.62l2.95.29c3.71.36,5.58,2.34,5.58,5.51,0,4.14-3.53,6.12-7.96,6.12Z"/>
      <path class="cls-1" d="M295.3,29.41v-11.34c0-2.56-1.62-3.42-3.1-3.42s-3.13.86-3.13,3.31v11.45h-4.68v-11.34c0-2.56-1.62-3.42-3.1-3.42s-3.13.86-3.13,3.42v11.34h-4.68V10.65h4.57v1.73c1.22-1.26,2.95-1.94,4.68-1.94,2.09,0,3.78.76,4.97,2.38,1.58-1.66,3.28-2.38,5.62-2.38,1.87,0,3.56.61,4.61,1.66,1.51,1.51,2.05,3.28,2.05,5.33v11.99h-4.68Z"/>
      <path class="cls-1" d="M312.01,32.43c-.4,1.04-.83,1.84-1.4,2.41-1.08,1.08-2.48,1.44-4.03,1.44h-1.83v-4.21h1.08c1.33,0,1.87-.32,2.34-1.69l.79-2.3-6.41-17.42h4.93l3.89,11.59,3.74-11.59h4.93l-8.03,21.78Z"/>
      <path class="cls-1" d="M338.61,29.62c-3.74,0-8.39-2.02-8.39-9.61s4.64-9.57,8.39-9.57c2.59,0,4.54.79,6.19,2.52l-3.17,3.17c-.97-1.04-1.8-1.48-3.02-1.48-1.12,0-1.98.4-2.66,1.22-.72.9-1.04,2.16-1.04,4.14s.32,3.28,1.04,4.18c.68.83,1.55,1.22,2.66,1.22,1.22,0,2.05-.43,3.02-1.48l3.17,3.13c-1.66,1.73-3.6,2.56-6.19,2.56Z"/>
      <path class="cls-1" d="M360.75,27.32c-1.15,1.22-3.06,2.3-5.83,2.3s-4.64-1.08-5.79-2.3c-1.69-1.76-2.12-3.89-2.12-7.31s.43-5.51,2.12-7.27c1.15-1.22,3.02-2.3,5.79-2.3s4.68,1.08,5.83,2.3c1.69,1.76,2.12,3.89,2.12,7.27s-.43,5.54-2.12,7.31ZM357.11,15.48c-.54-.54-1.26-.83-2.2-.83s-1.62.29-2.16.83c-.97.97-1.08,2.59-1.08,4.54s.11,3.6,1.08,4.57c.54.54,1.22.83,2.16.83s1.66-.29,2.2-.83c.97-.97,1.08-2.63,1.08-4.57s-.11-3.56-1.08-4.54Z"/>
      <path class="cls-1" d="M378.14,29.41v-1.73c-1.22,1.3-2.95,1.94-4.68,1.94-1.87,0-3.38-.61-4.43-1.66-1.51-1.51-1.91-3.28-1.91-5.33v-11.99h4.68v11.34c0,2.56,1.62,3.42,3.09,3.42s3.13-.86,3.13-3.42v-11.34h4.68v18.75h-4.57Z"/>
      <path class="cls-1" d="M398.87,29.41v-11.34c0-2.56-1.62-3.42-3.1-3.42s-3.13.86-3.13,3.42v11.34h-4.68V10.65h4.57v1.73c1.22-1.3,2.95-1.94,4.68-1.94,1.87,0,3.38.61,4.43,1.66,1.51,1.51,1.91,3.28,1.91,5.33v11.99h-4.68Z"/>
      <path class="cls-1" d="M414.46,29.41c-3.82,0-5.44-2.7-5.44-5.36v-9.29h-1.98v-3.56h1.98v-5.54h4.68v5.54h3.31v3.56h-3.31v9c0,1.08.5,1.69,1.62,1.69h1.69v3.96h-2.56Z"/>
      <path class="cls-1" d="M431.45,15.77c-.72-.72-1.33-1.12-2.48-1.12-1.44,0-3.02,1.08-3.02,3.46v11.3h-4.68V10.65h4.57v1.8c.9-1.08,2.7-2.02,4.71-2.02,1.84,0,3.13.47,4.43,1.76l-3.53,3.56Z"/>
      <path class="cls-1" d="M444.63,32.43c-.4,1.04-.83,1.84-1.4,2.41-1.08,1.08-2.48,1.44-4.03,1.44h-1.84v-4.21h1.08c1.33,0,1.87-.32,2.34-1.69l.79-2.3-6.41-17.42h4.93l3.89,11.59,3.74-11.59h4.93l-8.03,21.78Z"/>
      <path class="cls-1" d="M469.04,14.76v14.65h-4.68v-14.65h-1.94v-3.56h1.94v-2.34c0-2.66,1.66-5.36,5.47-5.36h2.66v3.96h-1.84c-1.12,0-1.62.61-1.62,1.69v2.05h3.46v3.56h-3.46Z"/>
      <path class="cls-1" d="M486.28,15.77c-.72-.72-1.33-1.12-2.48-1.12-1.44,0-3.02,1.08-3.02,3.46v11.3h-4.68V10.65h4.57v1.8c.9-1.08,2.7-2.02,4.72-2.02,1.84,0,3.13.47,4.43,1.76l-3.53,3.56Z"/>
      <path class="cls-1" d="M504.32,27.32c-1.15,1.22-3.06,2.3-5.83,2.3s-4.64-1.08-5.8-2.3c-1.69-1.76-2.12-3.89-2.12-7.31s.43-5.51,2.12-7.27c1.15-1.22,3.02-2.3,5.8-2.3s4.68,1.08,5.83,2.3c1.69,1.76,2.12,3.89,2.12,7.27s-.43,5.54-2.12,7.31ZM500.68,15.48c-.54-.54-1.26-.83-2.2-.83s-1.62.29-2.16.83c-.97.97-1.08,2.59-1.08,4.54s.11,3.6,1.08,4.57c.54.54,1.22.83,2.16.83s1.66-.29,2.2-.83c.97-.97,1.08-2.63,1.08-4.57s-.11-3.56-1.08-4.54Z"/>
      <path class="cls-1" d="M532.72,29.41v-11.34c0-2.56-1.62-3.42-3.1-3.42s-3.13.86-3.13,3.31v11.45h-4.68v-11.34c0-2.56-1.62-3.42-3.1-3.42s-3.13.86-3.13,3.42v11.34h-4.68V10.65h4.57v1.73c1.22-1.26,2.95-1.94,4.68-1.94,2.09,0,3.78.76,4.97,2.38,1.58-1.66,3.28-2.38,5.62-2.38,1.87,0,3.56.61,4.61,1.66,1.51,1.51,2.05,3.28,2.05,5.33v11.99h-4.68Z"/>
      <path class="cls-1" d="M572.32,29.41l-4.97-8.93-4.93,8.93h-5.72l7.95-13.14-7.45-12.49h5.69l4.46,8.28,4.5-8.28h5.65l-7.45,12.49,7.99,13.14h-5.72Z"/>
      <path class="cls-1" d="M585.06,29.62c-2.77,0-4.68-.72-6.59-2.63l3.31-3.28c.83.83,1.62,1.44,3.28,1.44,2.45,0,4.03-1.44,4.03-4.39V3.78h5v17.21c0,5.65-4.28,8.64-9.03,8.64Z"/>
      <path class="cls-1" d="M609.54,8.24v21.17h-5V8.24h-6.7V3.78h18.39v4.46h-6.7Z"/>
      <path class="cls-1" d="M620.31,29.41V3.78h5v21.17h11.63v4.46h-16.63Z"/>
      <path class="cls-1" d="M649.61,29.62c-5.25,0-9.43-3.56-9.43-9V3.78h5v16.67c0,2.95,1.73,4.72,4.43,4.72s4.46-1.76,4.46-4.72V3.78h4.97v16.85c0,5.44-4.18,9-9.43,9Z"/>
      <path class="cls-1" d="M664.08,11.95V3.78h4.89v4.46l-4.89,3.71Z"/>
      <path class="cls-1" d="M258.02,39.92v20.66h-2.69v-.98h-14.4v.96h-2.64v-20.64h19.73ZM240.93,57.18h14.4v-14.86h-14.4v14.86ZM246.81,48.22v-2.26h-4.54v-2.21h11.71v2.21h-4.75v2.26h4.51v2.21h-1.92c.59.74,1.18,1.46,1.78,2.18l-1.1.91h1.99v2.23h-12.74v-2.23h5.06v-3.1h-4.2v-2.21h4.2ZM251.23,50.43h-1.99v3.1h2.62l-1.73-2.23,1.1-.86Z"/>
      <path class="cls-1" d="M269.47,40.26v2.5l-1.85,5.09c.61.91,1.1,1.89,1.46,2.93.26.82.38,1.65.38,2.5,0,.64-.08,1.26-.24,1.87-.1.34-.25.64-.46.91-.29.3-.64.52-1.06.65-.51.13-1.03.18-1.56.17h-1.13l-.48-2.45h.74c.22.02.45,0,.67-.05.22-.06.42-.17.6-.31.14-.18.25-.37.31-.58.06-.29.1-.58.1-.86-.02-.75-.17-1.47-.46-2.16-.37-.82-.82-1.58-1.34-2.28l1.85-5.42h-2.62v17.93h-2.35v-20.42h7.42ZM269.85,54.32c.58-1.31,1.1-2.66,1.56-4.03l2.33.77c-.91,2.72-2.06,5.32-3.46,7.8l-2.18-1.15c.66-1.09,1.24-2.22,1.75-3.38ZM273.38,58.23c.26,0,.5-.02.74-.05.13-.03.24-.09.34-.17.11-.1.18-.22.21-.36.05-.21.07-.42.07-.62v-8.18h-5.3v-2.64h13.49v2.64h-5.69v9.22c0,.46-.06.91-.19,1.34-.1.26-.23.48-.41.67-.27.24-.58.41-.94.5-.46.1-.94.14-1.42.14h-2.38l-.53-2.5h1.99ZM281.95,40.64v2.62h-11.35v-2.62h11.35ZM279.93,50.22c1.3,2.46,2.5,4.97,3.62,7.51l-2.38,1.13c-1.07-2.56-2.21-5.09-3.43-7.58l2.18-1.06Z"/>
      <path class="cls-1" d="M289.53,46.09v-2.28h-3.29v-2.16h3.29v-2.38h2.35v2.38h2.66v1.44c.43-.8.84-1.63,1.22-2.5l2.28.96c-.75,1.6-1.62,3.11-2.62,4.54h2.26v2.21h-4.1c-.54.58-1.1,1.11-1.68,1.61h4.54v9.46h-6.79v.96h-2.28v-7.1l-1.49.91-1.15-2.14c1.92-1.06,3.73-2.29,5.42-3.7h-4.7v-2.21h4.08ZM289.65,53.6h4.54v-1.56h-4.54v1.56ZM294.19,57.25v-1.61h-4.54v1.61h4.54ZM294.09,43.81h-2.21v2.28h.5c.62-.7,1.19-1.46,1.7-2.28ZM306.74,40.14v2.52l-2.04,5.69c.69.93,1.27,1.91,1.75,2.95.38.91.58,1.86.58,2.83,0,.66-.09,1.29-.26,1.9-.14.35-.34.67-.58.96-.37.35-.8.6-1.3.74-.66.16-1.32.23-1.99.22h-1.25l-.55-2.5h1.39c.34.02.68,0,1.03-.07.18-.03.34-.1.5-.19.16-.14.27-.32.34-.53.08-.27.12-.56.12-.86-.02-.8-.21-1.56-.58-2.28-.51-.98-1.14-1.87-1.87-2.69l2.18-6.34h-3.31v18.02h-2.47v-20.38h8.3Z"/>
      <path class="cls-1" d="M320.64,38.72l1.32,2.98h8.62v2.45h-9.17v2.52h7.56v8.42c0,.56-.06,1.1-.19,1.63-.1.3-.24.57-.43.79-.3.29-.66.49-1.06.6-.56.1-1.13.14-1.7.14h-2.62l-.5-2.62h2.5c.25.02.52,0,.79-.05.11-.02.22-.06.34-.14.11-.11.18-.25.19-.41.03-.26.05-.52.05-.79v-5.06h-4.92v11.35h-2.62v-11.35h-4.95v9.19h-2.59v-11.71h7.54v-2.52h-9.19v-2.45h9.43c-.3-.77-.63-1.53-.98-2.28l2.59-.7Z"/>
      <path class="cls-1" d="M342.05,40.02v7.85h-1.82v2.95h2.45v2.28h-2.45v3.41l2.42-.38.07,1.25.07,1.13c-3.17.43-6.31.92-9.43,1.46l-.41-2.38,1.13-.14v-8.09h2.35v7.73l1.42-.19v-9.02h-3.38v-7.85h7.58ZM336.89,45.66h2.78v-3.43h-2.78v3.43ZM354.45,40.26v2.5h-8.74v2.71h7.92v8.74h-7.92v3.24h8.98v2.45h-11.45v-19.63h11.21ZM345.72,47.94v3.79h5.47v-3.79h-5.47Z"/>
      <path class="cls-1" d="M363.67,43.16h-6v-2.18h9.29c-.29-.54-.58-1.09-.89-1.63l2.64-.74c.42.8.83,1.59,1.25,2.38h8.57v2.18h-6.19l.77,1.39c-.83.38-1.67.74-2.52,1.06.93.37,1.87.72,2.83,1.06l-.74,1.49h1.39v-4.25h2.57v6.41h-7.37c-.21.43-.42.86-.62,1.27h9v6.05c0,.46-.06.93-.19,1.39-.11.35-.31.65-.6.89-.24.16-.5.28-.77.36-.51.11-1.03.17-1.56.17h-2.69l-.48-1.92h.72l-.72-.96c-2.11.13-4.21.26-6.29.38-.67.05-1.33.12-1.97.22l-.55-2.14c.45-.14.82-.41,1.13-.79.37-.46.71-.95,1.03-1.46h-3.5v6.7h-2.64v-8.88h7.34c.21-.4.4-.82.58-1.27h-6.94v-6.41h2.59v4.25h1.32l-.65-1.61c.99-.27,1.98-.6,2.98-.98-.93-.34-1.86-.66-2.78-.98l.67-1.42ZM363.45,48.15h9c-1.41-.56-2.81-1.11-4.2-1.66-1.58.61-3.18,1.16-4.8,1.66ZM372.02,43.16h-8.04l4.22,1.56c1.28-.46,2.55-.98,3.82-1.56ZM370.32,53.77h-2.88c-.45.74-.93,1.43-1.44,2.09,1.3-.05,2.6-.12,3.91-.22l-.84-1.08,1.25-.79ZM371.35,53.77c.91,1.17,1.84,2.32,2.78,3.46l-1.92,1.3h1.22c.22-.02.44-.04.65-.07.21-.05.4-.13.58-.24.13-.14.22-.31.26-.5.05-.24.07-.49.07-.74v-3.19h-3.65Z"/>
      <path class="cls-1" d="M385.68,55.04h-4.37v-2.33h14.9v-1.58h2.64v1.58h3.96v2.33h-3.96v2.38c0,.53-.06,1.06-.19,1.58-.1.27-.24.52-.43.74-.3.27-.66.46-1.06.55-.58.11-1.14.17-1.7.17h-2.93l-.48-2.35h2.59c.29.02.58,0,.86-.05.14-.05.27-.11.38-.19.13-.11.21-.26.24-.43.05-.22.07-.46.07-.72v-1.68h-8.81c1.18.78,2.37,1.58,3.55,2.38l-1.46,1.92c-1.54-1.1-3.09-2.18-4.66-3.24l.84-1.06ZM400.15,39.9v6.55l2.09.48-.1,1.37c-.05.45-.16.87-.34,1.27-.16.34-.39.6-.7.79-.27.14-.56.26-.86.34-.58.1-1.14.14-1.7.12h-11.88c-.59.02-1.18-.03-1.75-.14-.42-.1-.78-.28-1.1-.55-.21-.22-.36-.49-.46-.79-.14-.51-.21-1.05-.19-1.61v-7.82h16.99ZM399.38,46.47h-13.58v.7c-.02.27,0,.54.05.79.05.18.14.33.29.46.11.08.25.14.41.17.29.06.58.09.89.07h9.98c.37.02.74,0,1.1-.05.16-.03.31-.1.46-.19.16-.11.26-.26.31-.43.05-.24.07-.49.07-.74.02-.24.02-.5.02-.77ZM385.8,44.22h11.64v-1.94h-11.64v1.94Z"/>
      <path class="cls-1" d="M425.4,40.06v13.51h-2.45v-11.02h-6.55v11.06h-2.45v-2.11l-1.3,1.63c-.74-.66-1.47-1.3-2.21-1.94v9.31h-2.42v-8.18c-.7.75-1.42,1.46-2.16,2.14l-1.18-2.5c2.18-1.78,3.91-3.92,5.21-6.43h-4.3v-2.57h7.13v2.57c-.53,1.06-1.11,2.06-1.75,3.02l2.98,2.42v-10.92h11.45ZM409.7,38.84c.46,1.15.9,2.3,1.3,3.46l-2.47.55c-.37-1.14-.78-2.26-1.22-3.38l2.4-.62ZM414.81,56.5c.64-.54,1.2-1.15,1.68-1.82.59-.88,1.01-1.83,1.25-2.86.26-1.22.42-2.45.48-3.7.05-1.5.08-3.02.1-4.56h2.54c-.02,1.63-.04,3.26-.07,4.87-.02,1.15-.13,2.29-.34,3.41h1.13v4.8c-.02.22,0,.43.05.62.02.11.05.21.12.29.11.1.24.16.38.19.21.03.42.04.65.02h.55c.22.02.44,0,.65-.02.14-.03.27-.09.38-.17.06-.08.11-.18.14-.29.05-.19.08-.4.1-.62.02-1.01.02-2.02.02-3.05l2.38.55c-.06,1.14-.11,2.26-.14,3.38-.02.46-.09.93-.22,1.39-.1.24-.23.46-.41.67-.26.24-.56.41-.91.5-.5.1-.99.14-1.49.14h-2.09c-.45,0-.88-.06-1.29-.17-.32-.1-.59-.27-.82-.53-.16-.21-.28-.44-.36-.7-.11-.43-.16-.87-.14-1.32v-2.18c-.62,1.04-1.38,1.97-2.26,2.78-1.22,1.1-2.54,2.09-3.96,2.95l-1.63-2.21c1.25-.69,2.42-1.49,3.53-2.4Z"/>
    </g>
    <g>
      <path class="cls-1" d="M84.42,108.77v-10.73h-8.67v10.73h-5v-25.63h5v10.47h8.67v-10.47h5v25.63h-5Z"/>
      <path class="cls-1" d="M104.65,108.77v-1.62c-1.26,1.26-2.45,1.8-4.61,1.8s-3.67-.54-4.79-1.66c-1.01-1.04-1.55-2.56-1.55-4.21,0-2.99,2.05-5.44,6.41-5.44h4.43v-.94c0-2.05-1.01-2.95-3.49-2.95-1.8,0-2.63.43-3.6,1.55l-2.99-2.92c1.84-2.02,3.64-2.59,6.77-2.59,5.25,0,7.99,2.23,7.99,6.62v12.35h-4.57ZM104.55,100.85h-3.71c-1.69,0-2.63.79-2.63,2.12s.86,2.16,2.7,2.16c1.3,0,2.12-.11,2.95-.9.5-.47.68-1.22.68-2.38v-1.01Z"/>
      <path class="cls-1" d="M128.05,107.29c-1.04,1.04-2.74,1.69-4.57,1.69s-3.31-.5-4.54-1.87v8.53h-4.68v-25.63h4.54v1.76c1.3-1.44,2.7-1.98,4.68-1.98,1.84,0,3.53.65,4.57,1.69,1.87,1.87,1.91,5.08,1.91,7.88s-.04,6.05-1.91,7.92ZM122.11,94.01c-2.81,0-3.17,2.3-3.17,5.36s.36,5.4,3.17,5.4,3.17-2.34,3.17-5.4-.36-5.36-3.17-5.36Z"/>
      <path class="cls-1" d="M148.21,107.29c-1.04,1.04-2.74,1.69-4.57,1.69s-3.31-.5-4.54-1.87v8.53h-4.68v-25.63h4.54v1.76c1.3-1.44,2.7-1.98,4.68-1.98,1.84,0,3.53.65,4.57,1.69,1.87,1.87,1.91,5.08,1.91,7.88s-.04,6.05-1.91,7.92ZM142.27,94.01c-2.81,0-3.17,2.3-3.17,5.36s.36,5.4,3.17,5.4,3.17-2.34,3.17-5.4-.36-5.36-3.17-5.36Z"/>
      <path class="cls-1" d="M161.57,111.79c-.4,1.04-.83,1.84-1.4,2.41-1.08,1.08-2.48,1.44-4.03,1.44h-1.84v-4.21h1.08c1.33,0,1.87-.32,2.34-1.69l.79-2.3-6.41-17.42h4.93l3.89,11.59,3.74-11.59h4.93l-8.03,21.78Z"/>
      <path class="cls-1" d="M196.88,106.07c-2.05,2.12-4.5,2.92-7.24,2.92s-5.11-1.01-6.91-2.81c-2.59-2.59-2.52-5.79-2.52-10.22s-.07-7.63,2.52-10.22c1.8-1.8,4.03-2.81,6.91-2.81,5.94,0,8.96,3.89,9.65,8.21h-5.04c-.58-2.41-2.05-3.74-4.61-3.74-1.37,0-2.48.54-3.2,1.37-.97,1.08-1.22,2.27-1.22,7.2s.25,6.16,1.22,7.24c.72.83,1.84,1.33,3.2,1.33,1.51,0,2.74-.54,3.56-1.44.83-.94,1.15-2.09,1.15-3.42v-.97h-4.71v-4.18h9.68v3.74c0,3.71-.65,5.94-2.45,7.81Z"/>
      <path class="cls-1" d="M214.24,95.12c-.72-.72-1.33-1.12-2.48-1.12-1.44,0-3.02,1.08-3.02,3.46v11.3h-4.68v-18.75h4.57v1.8c.9-1.08,2.7-2.02,4.71-2.02,1.84,0,3.13.47,4.43,1.76l-3.53,3.56Z"/>
      <path class="cls-1" d="M229.68,108.77v-1.62c-1.26,1.26-2.45,1.8-4.61,1.8s-3.67-.54-4.79-1.66c-1.01-1.04-1.55-2.56-1.55-4.21,0-2.99,2.05-5.44,6.41-5.44h4.43v-.94c0-2.05-1.01-2.95-3.49-2.95-1.8,0-2.63.43-3.6,1.55l-2.99-2.92c1.84-2.02,3.64-2.59,6.77-2.59,5.25,0,7.99,2.23,7.99,6.62v12.35h-4.57ZM229.57,100.85h-3.71c-1.69,0-2.63.79-2.63,2.12s.86,2.16,2.7,2.16c1.3,0,2.12-.11,2.95-.9.5-.47.68-1.22.68-2.38v-1.01Z"/>
      <path class="cls-1" d="M249.66,108.77v-1.76c-1.3,1.44-2.66,1.98-4.64,1.98-1.83,0-3.56-.65-4.61-1.69-1.87-1.87-1.91-5.11-1.91-7.92s.04-6.01,1.91-7.88c1.04-1.04,2.74-1.69,4.57-1.69s3.35.5,4.57,1.87v-8.53h4.68v25.63h-4.57ZM246.35,94.01c-2.81,0-3.17,2.3-3.17,5.36s.36,5.4,3.17,5.4,3.2-2.34,3.2-5.4-.4-5.36-3.2-5.36Z"/>
      <path class="cls-1" d="M270.29,108.77v-1.73c-1.22,1.3-2.95,1.94-4.68,1.94-1.87,0-3.38-.61-4.43-1.66-1.51-1.51-1.91-3.28-1.91-5.33v-11.99h4.68v11.34c0,2.56,1.62,3.42,3.1,3.42s3.13-.86,3.13-3.42v-11.34h4.68v18.75h-4.57Z"/>
      <path class="cls-1" d="M289.73,108.77v-1.62c-1.26,1.26-2.45,1.8-4.61,1.8s-3.67-.54-4.79-1.66c-1.01-1.04-1.55-2.56-1.55-4.21,0-2.99,2.05-5.44,6.41-5.44h4.43v-.94c0-2.05-1.01-2.95-3.49-2.95-1.8,0-2.63.43-3.6,1.55l-2.99-2.92c1.84-2.02,3.64-2.59,6.77-2.59,5.25,0,7.99,2.23,7.99,6.62v12.35h-4.57ZM289.62,100.85h-3.71c-1.69,0-2.63.79-2.63,2.12s.86,2.16,2.7,2.16c1.3,0,2.12-.11,2.95-.9.5-.47.68-1.22.68-2.38v-1.01Z"/>
      <path class="cls-1" d="M305.21,108.77c-3.82,0-5.44-2.7-5.44-5.36v-9.29h-1.98v-3.56h1.98v-5.54h4.68v5.54h3.31v3.56h-3.31v9c0,1.08.5,1.69,1.62,1.69h1.69v3.96h-2.56Z"/>
      <path class="cls-1" d="M311.94,86.81v-3.82h4.79v3.82h-4.79ZM312.01,108.77v-18.75h4.68v18.75h-4.68Z"/>
      <path class="cls-1" d="M334.87,106.68c-1.15,1.22-3.06,2.3-5.83,2.3s-4.64-1.08-5.79-2.3c-1.69-1.76-2.12-3.89-2.12-7.31s.43-5.51,2.12-7.27c1.15-1.22,3.02-2.3,5.79-2.3s4.68,1.08,5.83,2.3c1.69,1.76,2.12,3.89,2.12,7.27s-.43,5.54-2.12,7.31ZM331.23,94.84c-.54-.54-1.26-.83-2.2-.83s-1.62.29-2.16.83c-.97.97-1.08,2.59-1.08,4.54s.11,3.6,1.08,4.57c.54.54,1.22.83,2.16.83s1.66-.29,2.2-.83c.97-.97,1.08-2.63,1.08-4.57s-.11-3.56-1.08-4.54Z"/>
      <path class="cls-1" d="M352.37,108.77v-11.34c0-2.56-1.62-3.42-3.1-3.42s-3.13.86-3.13,3.42v11.34h-4.68v-18.75h4.57v1.73c1.22-1.3,2.95-1.94,4.68-1.94,1.87,0,3.38.61,4.43,1.66,1.51,1.51,1.91,3.28,1.91,5.33v11.99h-4.68Z"/>
      <path class="cls-1" d="M369.94,108.77v-4.21l9.57-11.12c.94-1.12,1.33-1.91,1.33-3.1,0-1.91-1.12-3.2-3.1-3.2-1.55,0-3.13.79-3.13,3.28h-4.68c0-4.68,3.42-7.49,7.81-7.49s7.78,2.84,7.78,7.45c0,2.48-.97,3.82-2.74,5.87l-7.16,8.31h9.9v4.21h-15.59Z"/>
      <path class="cls-1" d="M397.15,108.98c-4.18,0-7.81-2.74-7.81-7.63v-10.8c0-4.9,3.64-7.63,7.81-7.63s7.77,2.74,7.77,7.63v10.8c0,4.9-3.6,7.63-7.77,7.63ZM400.25,90.62c0-2.16-1.26-3.49-3.1-3.49s-3.13,1.33-3.13,3.49v10.69c0,2.16,1.3,3.46,3.13,3.46s3.1-1.3,3.1-3.46v-10.69Z"/>
      <path class="cls-1" d="M409.03,108.77v-4.21l9.57-11.12c.94-1.12,1.33-1.91,1.33-3.1,0-1.91-1.12-3.2-3.1-3.2-1.55,0-3.13.79-3.13,3.28h-4.68c0-4.68,3.42-7.49,7.81-7.49s7.78,2.84,7.78,7.45c0,2.48-.97,3.82-2.74,5.87l-7.16,8.31h9.9v4.21h-15.59Z"/>
      <path class="cls-1" d="M442.55,105.13v3.64h-4.5v-3.64h-10.47v-4.43l8.78-17.57h5.11l-8.78,17.57h5.36v-4.79h4.5v4.79h2.34v4.43h-2.34Z"/>
      <path class="cls-1" d="M458.32,111.43v-30.96h4.68v30.96h-4.68Z"/>
      <path class="cls-1" d="M494.35,98.22v4.64h14.98v1.94h-14.98v7.6h-2.02v-7.6h-14.98v-1.94h14.98v-4.64h2.02ZM481.68,96.2c.17-.24.25-.53.25-.86v-15.01h2.02v5.9h8.86v1.87h-8.86v7.63c2.98-1.03,5.95-2.09,8.93-3.17l.14,1.91c-3.1,1.1-6.17,2.2-9.22,3.28-.72.24-1.4.53-2.05.86l-.9-1.8c.31-.14.59-.35.83-.61ZM496.69,80.25v7.78c1.92-.91,3.82-1.88,5.69-2.92,1.51-.79,2.98-1.67,4.39-2.63l1.04,1.76c-1.61,1.06-3.26,2.02-4.97,2.88-2.02,1.06-4.07,2.05-6.16,2.99v2.84c-.02.36,0,.72.07,1.08.07.34.22.65.43.94.22.22.48.37.79.47.36.1.74.13,1.15.11h4.72c.46.02.9-.01,1.33-.11.34-.1.62-.25.86-.47.17-.19.29-.41.36-.65.14-.43.23-.88.25-1.33.05-1.34.09-2.71.14-4.1l1.87.36c-.05,1.54-.12,3.05-.22,4.54-.05.65-.19,1.26-.43,1.84-.14.34-.35.64-.61.9-.41.31-.85.53-1.33.65-.67.14-1.33.2-1.98.18h-5.9c-.55.02-1.08-.04-1.58-.18-.43-.14-.82-.4-1.15-.76-.31-.38-.53-.83-.65-1.33-.12-.5-.17-1.02-.14-1.55v-13.28h2.02Z"/>
      <path class="cls-1" d="M524.16,108.19v-27.79h2.12v27.79h6.12v-27.79h2.12v27.79h10.87v2.02h-32.15v-2.02h10.91ZM516.38,86.41c2.21,4.87,4.36,9.77,6.44,14.69l-2.02.94c-2.02-4.94-4.13-9.86-6.34-14.76l1.91-.86ZM542.34,86.55l1.98.83c-2.06,5.02-4.27,9.94-6.62,14.76l-1.91-.97c2.38-4.78,4.56-9.65,6.55-14.62Z"/>
      <path class="cls-1" d="M550.47,85.83l1.84.18c-.53,4.32-1.19,8.59-1.98,12.82l-1.91-.29c.91-4.18,1.6-8.41,2.05-12.71ZM555.88,80.15v32.04h-1.91v-32.04h1.91ZM557.75,85.76c1.37,2.16,2.74,4.33,4.1,6.52l-1.55,1.15c-1.32-2.18-2.66-4.36-4.03-6.52l1.48-1.15ZM567.97,96.85c0-.34.01-.68.04-1.04,0-2.57.01-5.16.04-7.78h-6.73v-1.91h6.73c-.02-1.99-.01-3.98.04-5.98h1.91c0,2.02-.01,4.01-.04,5.98h8.03v10.73h3.82v1.91h-11.45c.84,2.81,2.29,5.24,4.36,7.31,1.13,1.03,2.35,1.93,3.67,2.7,1.1.65,2.25,1.22,3.46,1.73l-1.01,1.8c-2.57-1.1-4.88-2.57-6.95-4.39-2.11-1.99-3.68-4.36-4.72-7.09-.7,2.21-1.84,4.16-3.42,5.87-1.03,1.08-2.15,2.05-3.35,2.92-1.44,1.06-2.93,2.03-4.46,2.92l-1.08-1.73c1.58-.86,3.11-1.8,4.57-2.81,1.2-.89,2.29-1.9,3.28-3.02,1.54-1.8,2.54-3.86,3.02-6.19h-9.07v-1.91h9.32ZM569.95,88.03c-.02,2.57-.04,5.12-.04,7.67-.02.41-.04.79-.04,1.15h6.16v-8.82h-6.08Z"/>
      <path class="cls-1" d="M593.28,99.08l1.76,1.12c-2.57,3.74-5.47,7.18-8.71,10.3l-1.62-1.37c3.22-3.02,6.07-6.37,8.57-10.04ZM589.46,83.35c8.06-.31,16.09-1.06,24.08-2.23l.43,2.02c-7.51,1.08-15.04,1.8-22.57,2.16l-1.15,9.29h10.48v-7.99h2.16v7.99h13.18v1.98h-13.18v11.23c0,.65-.08,1.3-.25,1.94-.12.36-.3.67-.54.94-.38.36-.83.59-1.33.68-.72.14-1.44.22-2.16.22h-4.18l-.43-2.02h3.96c.48,0,.97-.04,1.48-.11.24-.07.47-.17.68-.29.24-.17.4-.38.47-.65.1-.41.14-.83.14-1.26v-10.69h-12.82l1.55-13.21ZM608.54,99.15c3,3.29,5.98,6.59,8.93,9.9l-1.73,1.37c-2.9-3.36-5.84-6.68-8.82-9.97l1.62-1.3Z"/>
    </g>
  </g>
</svg>