<?xml version="1.0" encoding="UTF-8"?>
<svg id="_图层_2" data-name="图层 2" xmlns="http://www.w3.org/2000/svg" viewBox="0 0 955.16 46.91">
  <defs>
    <style>
      .cls-1 {
        fill: #242a74;
        stroke-width: 0px;
      }
    </style>
  </defs>
  <g id="_图层_1-2" data-name="图层 1">
    <g>
      <path class="cls-1" d="M16.7,6.58v30.21h-7.14V6.58H0V.21h26.25v6.37h-9.56Z"/>
      <path class="cls-1" d="M46.91,36.79v-16.34c0-3.54-2.26-4.73-4.37-4.73s-4.32,1.23-4.32,4.73v16.34h-6.68V.21h6.68v12.28c1.8-1.85,4.06-2.77,6.42-2.77,5.86,0,8.94,4.11,8.94,9.76v17.31h-6.68Z"/>
      <path class="cls-1" d="M66.02,25.48c0,3.44,2.11,5.96,5.86,5.96,2.93,0,4.37-.82,6.06-2.52l4.06,3.96c-2.72,2.72-5.34,4.21-10.17,4.21-6.32,0-12.38-2.88-12.38-13.72,0-8.73,4.73-13.67,11.66-13.67,7.45,0,11.66,5.45,11.66,12.79v2.98h-16.75ZM75.58,18.03c-.72-1.59-2.21-2.77-4.47-2.77s-3.75,1.18-4.47,2.77c-.41.98-.57,1.7-.62,2.88h10.17c-.05-1.18-.21-1.9-.62-2.88Z"/>
      <path class="cls-1" d="M116.27,36.79v-2.47c-1.75,1.85-4.21,2.77-6.68,2.77-2.67,0-4.83-.87-6.32-2.36-2.16-2.16-2.72-4.68-2.72-7.6V10.02h6.68v16.18c0,3.65,2.31,4.88,4.42,4.88s4.47-1.23,4.47-4.88V10.02h6.68v26.77h-6.53Z"/>
      <path class="cls-1" d="M145.87,36.79v-16.18c0-3.65-2.31-4.88-4.42-4.88s-4.47,1.23-4.47,4.88v16.18h-6.68V10.02h6.53v2.47c1.75-1.85,4.21-2.77,6.68-2.77,2.67,0,4.83.87,6.32,2.36,2.16,2.16,2.72,4.68,2.72,7.6v17.11h-6.68Z"/>
      <path class="cls-1" d="M159.64,5.45V0h6.83v5.45h-6.83ZM159.74,36.79V10.02h6.68v26.77h-6.68Z"/>
      <path class="cls-1" d="M188.51,46.6v-12.18c-1.75,1.95-3.8,2.67-6.52,2.67s-5.04-.92-6.53-2.41c-2.67-2.67-2.72-7.3-2.72-11.3s.05-8.58,2.72-11.25c1.49-1.49,3.96-2.41,6.58-2.41,2.83,0,4.78.77,6.63,2.83v-2.52h6.52v36.58h-6.68ZM183.94,15.72c-4.01,0-4.52,3.29-4.52,7.66s.51,7.71,4.52,7.71,4.57-3.34,4.57-7.71-.57-7.66-4.57-7.66Z"/>
      <path class="cls-1" d="M218.11,36.79v-2.47c-1.75,1.85-4.21,2.77-6.68,2.77-2.67,0-4.83-.87-6.32-2.36-2.16-2.16-2.72-4.68-2.72-7.6V10.02h6.68v16.18c0,3.65,2.31,4.88,4.42,4.88s4.47-1.23,4.47-4.88V10.02h6.68v26.77h-6.53Z"/>
      <path class="cls-1" d="M237.38,25.48c0,3.44,2.11,5.96,5.86,5.96,2.93,0,4.37-.82,6.06-2.52l4.06,3.96c-2.72,2.72-5.34,4.21-10.17,4.21-6.32,0-12.38-2.88-12.38-13.72,0-8.73,4.73-13.67,11.66-13.67,7.45,0,11.66,5.45,11.66,12.79v2.98h-16.75ZM246.93,18.03c-.72-1.59-2.21-2.77-4.47-2.77s-3.75,1.18-4.47,2.77c-.41.98-.57,1.7-.62,2.88h10.17c-.05-1.18-.21-1.9-.62-2.88Z"/>
      <path class="cls-1" d="M287.78,36.79v-16.18c0-3.65-2.31-4.88-4.42-4.88s-4.47,1.23-4.47,4.88v16.18h-6.68V10.02h6.53v2.47c1.75-1.85,4.21-2.77,6.68-2.77,2.67,0,4.83.87,6.32,2.36,2.16,2.16,2.72,4.68,2.72,7.6v17.11h-6.68Z"/>
      <path class="cls-1" d="M317.07,36.79v-2.47c-1.75,1.85-4.21,2.77-6.68,2.77-2.67,0-4.83-.87-6.32-2.36-2.16-2.16-2.72-4.68-2.72-7.6V10.02h6.68v16.18c0,3.65,2.31,4.88,4.42,4.88s4.47-1.23,4.47-4.88V10.02h6.68v26.77h-6.53Z"/>
      <path class="cls-1" d="M362.23,36.79v-16.18c0-3.65-2.31-4.88-4.42-4.88s-4.47,1.23-4.47,4.73v16.34h-6.68v-16.18c0-3.65-2.31-4.88-4.42-4.88s-4.47,1.23-4.47,4.88v16.18h-6.68V10.02h6.53v2.47c1.75-1.8,4.21-2.77,6.68-2.77,2.98,0,5.39,1.08,7.09,3.39,2.26-2.36,4.68-3.39,8.01-3.39,2.67,0,5.09.87,6.58,2.36,2.16,2.16,2.93,4.68,2.93,7.6v17.11h-6.68Z"/>
      <path class="cls-1" d="M395.78,34.68c-1.49,1.49-3.9,2.41-6.53,2.41-2.83,0-4.83-.77-6.68-2.83v2.52h-6.47V.21h6.68v12.18c1.75-1.95,3.75-2.67,6.47-2.67s5.04.92,6.53,2.41c2.67,2.67,2.72,7.24,2.72,11.25s-.05,8.63-2.72,11.3ZM387.31,15.72c-4.01,0-4.52,3.29-4.52,7.66s.51,7.71,4.52,7.71,4.52-3.34,4.52-7.71-.51-7.66-4.52-7.66Z"/>
      <path class="cls-1" d="M410.12,25.48c0,3.44,2.11,5.96,5.86,5.96,2.93,0,4.37-.82,6.06-2.52l4.06,3.96c-2.72,2.72-5.34,4.21-10.17,4.21-6.32,0-12.38-2.88-12.38-13.72,0-8.73,4.73-13.67,11.66-13.67,7.45,0,11.66,5.45,11.66,12.79v2.98h-16.75ZM419.68,18.03c-.72-1.59-2.21-2.77-4.47-2.77s-3.75,1.18-4.47,2.77c-.41.98-.57,1.7-.62,2.88h10.17c-.05-1.18-.21-1.9-.62-2.88Z"/>
      <path class="cls-1" d="M447.58,17.31c-1.03-1.03-1.9-1.59-3.54-1.59-2.05,0-4.32,1.54-4.32,4.93v16.13h-6.68V10.02h6.53v2.57c1.28-1.54,3.85-2.88,6.73-2.88,2.62,0,4.47.67,6.32,2.52l-5.04,5.09Z"/>
      <path class="cls-1" d="M478.3,41.1c-.57,1.49-1.18,2.62-2,3.44-1.54,1.54-3.54,2.06-5.75,2.06h-2.62v-6.01h1.54c1.9,0,2.67-.46,3.34-2.41l1.13-3.29-9.15-24.87h7.04l5.55,16.54,5.34-16.54h7.04l-11.46,31.08Z"/>
      <path class="cls-1" d="M511.7,33.81c-1.64,1.75-4.37,3.29-8.32,3.29s-6.63-1.54-8.27-3.29c-2.42-2.52-3.03-5.55-3.03-10.43s.62-7.86,3.03-10.38c1.64-1.75,4.32-3.29,8.27-3.29s6.68,1.54,8.32,3.29c2.41,2.52,3.03,5.55,3.03,10.38s-.62,7.91-3.03,10.43ZM506.51,16.9c-.77-.77-1.8-1.18-3.13-1.18s-2.31.41-3.08,1.18c-1.39,1.39-1.54,3.7-1.54,6.47s.15,5.14,1.54,6.52c.77.77,1.75,1.18,3.08,1.18s2.36-.41,3.13-1.18c1.39-1.39,1.54-3.75,1.54-6.52s-.15-5.09-1.54-6.47Z"/>
      <path class="cls-1" d="M536.52,36.79v-2.47c-1.75,1.85-4.21,2.77-6.68,2.77-2.67,0-4.83-.87-6.32-2.36-2.16-2.16-2.72-4.68-2.72-7.6V10.02h6.68v16.18c0,3.65,2.31,4.88,4.42,4.88s4.47-1.23,4.47-4.88V10.02h6.68v26.77h-6.53Z"/>
      <path class="cls-1" d="M571.71,46.91c-4.11,0-6.94-.82-9.71-3.49l4.16-4.21c1.49,1.44,2.98,2.06,5.24,2.06,4.01,0,5.39-2.83,5.39-5.55v-2.72c-1.75,1.95-3.75,2.67-6.37,2.67s-4.88-.87-6.37-2.36c-2.52-2.52-2.72-5.96-2.72-10.63s.21-8.07,2.72-10.58c1.49-1.49,3.8-2.36,6.42-2.36,2.83,0,4.67.77,6.52,2.83v-2.52h6.47v25.79c0,6.42-4.57,11.1-11.77,11.1ZM572.38,15.72c-3.96,0-4.37,3.39-4.37,6.94s.41,6.99,4.37,6.99,4.42-3.44,4.42-6.99-.46-6.94-4.42-6.94Z"/>
      <path class="cls-1" d="M596.22,25.48c0,3.44,2.11,5.96,5.86,5.96,2.93,0,4.37-.82,6.06-2.52l4.06,3.96c-2.72,2.72-5.34,4.21-10.17,4.21-6.32,0-12.38-2.88-12.38-13.72,0-8.73,4.73-13.67,11.66-13.67,7.45,0,11.66,5.45,11.66,12.79v2.98h-16.75ZM605.78,18.03c-.72-1.59-2.21-2.77-4.47-2.77s-3.75,1.18-4.47,2.77c-.41.98-.57,1.7-.62,2.88h10.17c-.05-1.18-.21-1.9-.62-2.88Z"/>
      <path class="cls-1" d="M627.51,36.79c-5.45,0-7.76-3.85-7.76-7.66v-13.25h-2.83v-5.09h2.83V2.88h6.68v7.91h4.73v5.09h-4.73v12.84c0,1.54.72,2.41,2.31,2.41h2.42v5.65h-3.65Z"/>
      <path class="cls-1" d="M649.04,5.45V0h6.83v5.45h-6.83ZM649.14,36.79V10.02h6.68v26.77h-6.68Z"/>
      <path class="cls-1" d="M672.06,37.09c-4.21,0-8.01-.46-11.41-3.85l4.37-4.37c2.21,2.21,5.09,2.52,7.14,2.52,2.31,0,4.73-.77,4.73-2.77,0-1.34-.72-2.26-2.83-2.47l-4.21-.41c-4.83-.46-7.81-2.57-7.81-7.5,0-5.55,4.88-8.53,10.33-8.53,4.16,0,7.66.72,10.22,3.13l-4.11,4.16c-1.54-1.39-3.9-1.8-6.22-1.8-2.67,0-3.8,1.23-3.8,2.57,0,.98.41,2.11,2.77,2.31l4.21.41c5.29.51,7.96,3.34,7.96,7.86,0,5.91-5.03,8.73-11.35,8.73Z"/>
      <path class="cls-1" d="M702.87,16.84c1.27-2.69,2.34-5.46,3.2-8.32l2.02.5c-.82,2.52-1.75,4.98-2.81,7.38v23.72h-1.94v-19.84c-1.13,2.04-2.39,3.98-3.78,5.83l-1.22-1.55c1.73-2.45,3.24-5.03,4.54-7.74ZM713.13,23.68l1.8.54c-1.61,4.51-3.7,8.78-6.26,12.82l-1.84-.79c2.57-3.94,4.67-8.12,6.3-12.56ZM714.93,8.2l2.02.43c-.55,1.61-1.18,3.17-1.87,4.68h15.34v1.87l-3.2,5.98-1.87-.68,2.88-5.29h-14.08c-1.3,2.59-2.77,5.05-4.43,7.38l-1.69-1.08c2.98-4.06,5.28-8.48,6.91-13.28ZM716.26,37.65c.46,0,.9-.04,1.33-.11.31-.07.59-.2.83-.4.17-.14.29-.31.36-.5.1-.34.14-.7.14-1.08v-17.24h1.94v17.89c0,.55-.08,1.1-.25,1.66-.14.41-.38.76-.72,1.04-.31.22-.65.37-1.01.47-.65.14-1.3.22-1.94.22h-3.74l-.4-1.94h3.46ZM725.55,23.75c2.11,4.15,4.22,8.29,6.34,12.42l-1.8.83c-2.04-4.18-4.13-8.33-6.26-12.46l1.73-.79Z"/>
      <path class="cls-1" d="M740.64,13.85c.65-1.97,1.19-3.97,1.62-6.01l2.09.36c-.43,1.92-.94,3.8-1.51,5.65h6.05v24.08h-10.15v2.52h-1.94V13.85h3.85ZM738.73,24.76h8.21v-8.93h-8.21v8.93ZM746.94,35.96v-9.18h-8.21v9.18h8.21ZM752.7,14.39c.96-2.21,1.74-4.48,2.34-6.8l1.94.47c-.53,1.99-1.16,3.94-1.91,5.83h10.62l-.68,21.06c-.05.77-.19,1.49-.43,2.16-.14.41-.37.77-.68,1.08-.46.38-.98.65-1.58.79-.84.17-1.68.25-2.52.25h-4.54l-.4-2.02h4.32c.62,0,1.26-.06,1.91-.18.43-.07.83-.24,1.19-.5.22-.22.37-.48.47-.79.17-.55.26-1.12.29-1.69.19-6.02.4-12.06.61-18.11h-9.43c-.84,1.92-1.82,3.73-2.95,5.44l-1.76-1.12c1.25-1.85,2.32-3.8,3.2-5.87ZM753.52,20.44c2.04,2.57,4.04,5.16,6.01,7.78l-1.73,1.19c-1.87-2.64-3.8-5.23-5.8-7.78l1.51-1.19Z"/>
      <path class="cls-1" d="M793.92,7.95c1.17,1.68,2.34,3.37,3.49,5.08l-1.55.9h7.2v1.8h-7.34v5.33h6.66v1.8h-6.66v5.26h6.66v1.76h-6.66v5.72h7.81v1.8h-16.67v2.88h-1.91v-21.31c-.86,1.58-1.81,3.08-2.84,4.5l-1.12-.9v11.2h-6.44v3.38h-1.8V12.38h8.24v9.29c1.32-1.85,2.46-3.82,3.42-5.9,1.15-2.5,2.09-5.06,2.81-7.7l1.91.36c-.53,1.87-1.14,3.71-1.84,5.51h8.5c-1.1-1.68-2.23-3.35-3.38-5l1.51-.97ZM774.55,31.93h4.61V14.21h-4.61v17.71ZM786.86,21.05h6.98v-5.33h-6.98v5.33ZM786.86,28.11h6.98v-5.26h-6.98v5.26ZM786.86,35.6h6.98v-5.72h-6.98v5.72Z"/>
      <path class="cls-1" d="M839.64,22.03v2.27h-32.94v-2.27h32.94Z"/>
      <path class="cls-1" d="M845.11,26.71c1.34-2.02,2.62-4.1,3.82-6.26l-4.57.25c-.43.07-.85.16-1.26.25l-.43-1.84c.41-.12.74-.37,1.01-.76.96-1.49,1.82-3.04,2.59-4.64.82-1.7,1.56-3.43,2.23-5.18l1.73.72c-1.34,3.41-2.99,6.64-4.93,9.68,1.51-.1,3.05-.18,4.61-.25.82-1.49,1.6-3.02,2.34-4.61l1.51.79c-.86,1.99-1.84,3.92-2.92,5.8-1.25,2.26-2.57,4.44-3.96,6.55l6.19-1.01.07,1.84-7.34,1.12c-.55.1-1.09.22-1.62.36l-.47-1.91c.58-.12,1.04-.42,1.4-.9ZM843.13,36.28l-.32-1.91c3.19-.7,6.38-1.45,9.58-2.27l.22,1.87c-3.17.74-6.32,1.51-9.47,2.3ZM863.47,7.55c.74,1.22,1.52,2.44,2.34,3.64l-1.76.72h9.25v7.78h-16.85c0,2.16-.1,4.31-.29,6.44-.17,1.85-.46,3.7-.86,5.54-.6,2.78-1.67,5.36-3.2,7.74l-1.51-1.01c1.51-2.23,2.57-4.68,3.17-7.34.38-1.73.65-3.49.79-5.29.17-2.18.25-4.38.25-6.59v-7.27h9.14c-.72-1.2-1.45-2.39-2.2-3.56l1.73-.79ZM856.45,17.96h15.08v-4.36h-15.08v4.36ZM857.02,23.47h16.67v13.14c0,.5-.07,1.01-.22,1.51-.1.26-.23.5-.4.72-.29.29-.62.48-1.01.58-.53.12-1.04.18-1.55.18h-1.33l-.36-1.69h1.37c.34,0,.66-.04.97-.11.17-.02.32-.08.47-.18.14-.14.24-.31.29-.5.07-.26.11-.55.11-.86v-4.21h-3.42v6.16h-1.55v-6.16h-3.42v6.16h-1.55v-6.16h-3.42v7.88h-1.66v-16.45ZM858.68,30.41h3.42v-5.29h-3.42v5.29ZM863.65,30.41h3.42v-5.29h-3.42v5.29ZM868.62,25.12v5.29h3.42v-5.29h-3.42Z"/>
      <path class="cls-1" d="M885.86,24.37h-7.02v-1.76h32.72v1.76h-23.47l-.9,4.18h18.61c-.17,2.06-.35,4.1-.54,6.12-.1.89-.29,1.74-.58,2.56-.19.46-.47.85-.83,1.19-.58.43-1.22.71-1.94.83-1.06.17-2.12.25-3.2.25h-7.56l-.4-1.94h7.38c.82,0,1.63-.05,2.45-.14.53-.07,1.01-.26,1.44-.58.26-.19.47-.44.61-.76.19-.6.32-1.21.4-1.84.12-1.3.24-2.6.36-3.92h-18.86l1.33-5.94ZM906.34,10v8.93h-22.36v-8.93h22.36ZM886.15,17.17h18.07v-5.4h-18.07v5.4Z"/>
      <path class="cls-1" d="M918.48,34.88c.62-.94,1.15-1.92,1.58-2.95.43-1.15.78-2.33,1.04-3.53l1.98.36c-.29,1.25-.65,2.46-1.08,3.64.79,1.39,1.85,2.54,3.17,3.46,1.51.86,3.14,1.38,4.9,1.55v-10.26h-15.19v-1.69h31.5v1.69h-14.26v4.14h11.59v1.69h-11.59v4.57c.31.02.65.04,1.01.04h14.11l-.36,1.76h-13.72c-1.39,0-2.77-.1-4.14-.29-1.15-.14-2.27-.44-3.35-.9-1.87-.84-3.38-2.11-4.54-3.82-.62,1.15-1.34,2.21-2.16,3.17-1.06,1.2-2.21,2.29-3.46,3.28l-1.48-1.44c1.7-1.27,3.18-2.76,4.43-4.46ZM941.48,9.93v12.1h-21.67v-12.1h21.67ZM921.86,15.11h17.57v-3.56h-17.57v3.56ZM939.43,20.37v-3.6h-17.57v3.6h17.57Z"/>
      <path class="cls-1" d="M955.16,19.61v4.86h-3.06v-4.86h3.06ZM955.16,33.19v4.79h-3.06v-4.79h3.06Z"/>
    </g>
  </g>
</svg>