<?xml version="1.0" encoding="UTF-8"?>
<svg id="_图层_2" data-name="图层 2" xmlns="http://www.w3.org/2000/svg" viewBox="0 0 632.04 109.79">
  <defs>
    <style>
      .cls-1 {
        fill: #242a74;
        stroke-width: 0px;
      }
    </style>
  </defs>
  <g id="_图层_1-2" data-name="图层 1">
    <g>
      <path class="cls-1" d="M16.02,23.47c-1.69,1.69-4.1,2.45-6.77,2.45H0V.29h9.25c2.66,0,5.08.76,6.77,2.45,2.88,2.88,2.59,6.41,2.59,10.26s.29,7.6-2.59,10.47ZM12.53,6.34c-.86-1.04-2.02-1.58-3.74-1.58h-3.78v16.7h3.78c1.73,0,2.88-.54,3.74-1.58.94-1.15,1.08-2.99,1.08-6.88s-.14-5.51-1.08-6.66Z"/>
      <path class="cls-1" d="M23.29,3.96V.14h4.79v3.82h-4.79ZM23.36,25.92V7.16h4.68v18.75h-4.68Z"/>
      <path class="cls-1" d="M42.87,25.92v-1.62c-1.26,1.26-2.45,1.8-4.61,1.8s-3.67-.54-4.79-1.66c-1.01-1.04-1.55-2.56-1.55-4.21,0-2.99,2.05-5.44,6.41-5.44h4.43v-.94c0-2.05-1.01-2.95-3.49-2.95-1.8,0-2.63.43-3.6,1.55l-2.99-2.92c1.84-2.02,3.64-2.59,6.77-2.59,5.25,0,7.99,2.23,7.99,6.62v12.35h-4.57ZM42.77,18h-3.71c-1.69,0-2.63.79-2.63,2.12s.86,2.16,2.7,2.16c1.3,0,2.12-.11,2.95-.9.5-.47.68-1.22.68-2.38v-1.01Z"/>
      <path class="cls-1" d="M57.78,25.92c-3.85,0-5.47-2.7-5.47-5.36V.29h4.68v19.98c0,1.12.47,1.69,1.66,1.69h1.8v3.96h-2.66Z"/>
      <path class="cls-1" d="M76.43,23.83c-1.15,1.22-3.06,2.3-5.83,2.3s-4.64-1.08-5.8-2.3c-1.69-1.76-2.12-3.89-2.12-7.31s.43-5.51,2.12-7.27c1.15-1.22,3.02-2.3,5.8-2.3s4.68,1.08,5.83,2.3c1.69,1.76,2.12,3.89,2.12,7.27s-.43,5.54-2.12,7.31ZM72.79,11.99c-.54-.54-1.26-.83-2.2-.83s-1.62.29-2.16.83c-.97.97-1.08,2.59-1.08,4.54s.11,3.6,1.08,4.57c.54.54,1.22.83,2.16.83s1.66-.29,2.2-.83c.97-.97,1.08-2.63,1.08-4.57s-.11-3.56-1.08-4.54Z"/>
      <path class="cls-1" d="M89.5,33.01c-2.88,0-4.86-.58-6.8-2.45l2.92-2.95c1.04,1.01,2.09,1.44,3.67,1.44,2.81,0,3.78-1.98,3.78-3.89v-1.91c-1.22,1.37-2.63,1.87-4.46,1.87s-3.42-.61-4.46-1.66c-1.76-1.76-1.91-4.18-1.91-7.45s.14-5.65,1.91-7.42c1.04-1.04,2.66-1.66,4.5-1.66,1.98,0,3.28.54,4.57,1.98v-1.76h4.54v18.07c0,4.5-3.2,7.78-8.24,7.78ZM89.96,11.16c-2.77,0-3.06,2.38-3.06,4.86s.29,4.9,3.06,4.9,3.1-2.41,3.1-4.9-.32-4.86-3.1-4.86Z"/>
      <path class="cls-1" d="M113.79,25.92v-1.73c-1.22,1.3-2.95,1.94-4.68,1.94-1.87,0-3.38-.61-4.43-1.66-1.51-1.51-1.91-3.28-1.91-5.33V7.16h4.68v11.34c0,2.56,1.62,3.42,3.1,3.42s3.13-.86,3.13-3.42V7.16h4.68v18.75h-4.57Z"/>
      <path class="cls-1" d="M127.29,18c0,2.41,1.48,4.18,4.1,4.18,2.05,0,3.06-.58,4.25-1.76l2.84,2.77c-1.91,1.91-3.74,2.95-7.13,2.95-4.43,0-8.67-2.02-8.67-9.61,0-6.12,3.31-9.57,8.17-9.57,5.22,0,8.17,3.82,8.17,8.96v2.09h-11.73ZM133.99,12.78c-.5-1.12-1.55-1.94-3.13-1.94s-2.63.83-3.13,1.94c-.29.68-.4,1.19-.43,2.02h7.13c-.04-.83-.14-1.33-.43-2.02Z"/>
      <path class="cls-1" d="M164.66,23.83c-1.15,1.22-3.06,2.3-5.83,2.3s-4.64-1.08-5.79-2.3c-1.69-1.76-2.12-3.89-2.12-7.31s.43-5.51,2.12-7.27c1.15-1.22,3.02-2.3,5.79-2.3s4.68,1.08,5.83,2.3c1.69,1.76,2.12,3.89,2.12,7.27s-.43,5.54-2.12,7.31ZM161.03,11.99c-.54-.54-1.26-.83-2.2-.83s-1.62.29-2.16.83c-.97.97-1.08,2.59-1.08,4.54s.11,3.6,1.08,4.57c.54.54,1.22.83,2.16.83s1.66-.29,2.2-.83c.97-.97,1.08-2.63,1.08-4.57s-.11-3.56-1.08-4.54Z"/>
      <path class="cls-1" d="M176.51,11.27v14.65h-4.68v-14.65h-1.94v-3.56h1.94v-2.34c0-2.66,1.66-5.36,5.47-5.36h2.66v3.96h-1.83c-1.12,0-1.62.61-1.62,1.69v2.05h3.46v3.56h-3.46Z"/>
      <path class="cls-1" d="M197.78,25.92c-3.82,0-5.44-2.7-5.44-5.36v-9.29h-1.98v-3.56h1.98V2.16h4.68v5.54h3.31v3.56h-3.31v9c0,1.08.5,1.69,1.62,1.69h1.69v3.96h-2.56Z"/>
      <path class="cls-1" d="M215.35,25.92v-11.45c0-2.48-1.58-3.31-3.06-3.31s-3.02.86-3.02,3.31v11.45h-4.68V.29h4.68v8.6c1.26-1.3,2.84-1.94,4.5-1.94,4.1,0,6.26,2.88,6.26,6.84v12.13h-4.68Z"/>
      <path class="cls-1" d="M228.74,18c0,2.41,1.48,4.18,4.1,4.18,2.05,0,3.06-.58,4.25-1.76l2.84,2.77c-1.91,1.91-3.74,2.95-7.13,2.95-4.43,0-8.67-2.02-8.67-9.61,0-6.12,3.31-9.57,8.17-9.57,5.22,0,8.17,3.82,8.17,8.96v2.09h-11.73ZM235.44,12.78c-.5-1.12-1.55-1.94-3.13-1.94s-2.63.83-3.13,1.94c-.29.68-.4,1.19-.43,2.02h7.13c-.04-.83-.14-1.33-.43-2.02Z"/>
      <path class="cls-1" d="M263.44,16.27h-4.93v9.65h-5V.29h9.93c5.29,0,8.46,3.64,8.46,7.99s-3.17,7.99-8.46,7.99ZM263.19,4.75h-4.68v7.02h4.68c2.27,0,3.71-1.4,3.71-3.49s-1.44-3.53-3.71-3.53Z"/>
      <path class="cls-1" d="M286.52,25.92v-11.45c0-2.48-1.58-3.31-3.06-3.31s-3.02.86-3.02,3.31v11.45h-4.68V.29h4.68v8.6c1.26-1.3,2.84-1.94,4.5-1.94,4.1,0,6.26,2.88,6.26,6.84v12.13h-4.68Z"/>
      <path class="cls-1" d="M296.17,3.96V.14h4.79v3.82h-4.79ZM296.24,25.92V7.16h4.68v18.75h-4.68Z"/>
      <path class="cls-1" d="M311.43,25.92c-3.85,0-5.47-2.7-5.47-5.36V.29h4.68v19.98c0,1.12.47,1.69,1.66,1.69h1.8v3.96h-2.66Z"/>
      <path class="cls-1" d="M330.08,23.83c-1.15,1.22-3.06,2.3-5.83,2.3s-4.64-1.08-5.8-2.3c-1.69-1.76-2.12-3.89-2.12-7.31s.43-5.51,2.12-7.27c1.15-1.22,3.02-2.3,5.8-2.3s4.68,1.08,5.83,2.3c1.69,1.76,2.12,3.89,2.12,7.27s-.43,5.54-2.12,7.31ZM326.44,11.99c-.54-.54-1.26-.83-2.2-.83s-1.62.29-2.16.83c-.97.97-1.08,2.59-1.08,4.54s.11,3.6,1.08,4.57c.54.54,1.22.83,2.16.83s1.66-.29,2.2-.83c.97-.97,1.08-2.63,1.08-4.57s-.11-3.56-1.08-4.54Z"/>
      <path class="cls-1" d="M342.82,26.13c-2.95,0-5.62-.32-7.99-2.7l3.06-3.06c1.55,1.55,3.56,1.76,5,1.76,1.62,0,3.31-.54,3.31-1.94,0-.94-.5-1.58-1.98-1.73l-2.95-.29c-3.38-.32-5.47-1.8-5.47-5.25,0-3.89,3.42-5.98,7.23-5.98,2.92,0,5.36.5,7.16,2.2l-2.88,2.92c-1.08-.97-2.73-1.26-4.36-1.26-1.87,0-2.66.86-2.66,1.8,0,.68.29,1.48,1.94,1.62l2.95.29c3.71.36,5.58,2.34,5.58,5.51,0,4.14-3.53,6.12-7.96,6.12Z"/>
      <path class="cls-1" d="M367.66,23.83c-1.15,1.22-3.06,2.3-5.83,2.3s-4.64-1.08-5.8-2.3c-1.69-1.76-2.12-3.89-2.12-7.31s.43-5.51,2.12-7.27c1.15-1.22,3.02-2.3,5.8-2.3s4.68,1.08,5.83,2.3c1.69,1.76,2.12,3.89,2.12,7.27s-.43,5.54-2.12,7.31ZM364.03,11.99c-.54-.54-1.26-.83-2.2-.83s-1.62.29-2.16.83c-.97.97-1.08,2.59-1.08,4.54s.11,3.6,1.08,4.57c.54.54,1.22.83,2.16.83s1.66-.29,2.2-.83c.97-.97,1.08-2.63,1.08-4.57s-.11-3.56-1.08-4.54Z"/>
      <path class="cls-1" d="M388.04,24.44c-1.04,1.04-2.74,1.69-4.57,1.69s-3.31-.5-4.54-1.87v8.53h-4.68V7.16h4.54v1.76c1.3-1.44,2.7-1.98,4.68-1.98,1.84,0,3.53.65,4.57,1.69,1.87,1.87,1.91,5.08,1.91,7.88s-.04,6.05-1.91,7.92ZM382.1,11.16c-2.81,0-3.17,2.3-3.17,5.36s.36,5.4,3.17,5.4,3.17-2.34,3.17-5.4-.36-5.36-3.17-5.36Z"/>
      <path class="cls-1" d="M405.17,25.92v-11.45c0-2.48-1.58-3.31-3.06-3.31s-3.02.86-3.02,3.31v11.45h-4.68V.29h4.68v8.6c1.26-1.3,2.84-1.94,4.5-1.94,4.1,0,6.26,2.88,6.26,6.84v12.13h-4.68Z"/>
      <path class="cls-1" d="M418.57,18c0,2.41,1.48,4.18,4.1,4.18,2.05,0,3.06-.58,4.25-1.76l2.84,2.77c-1.91,1.91-3.74,2.95-7.13,2.95-4.43,0-8.68-2.02-8.68-9.61,0-6.12,3.31-9.57,8.17-9.57,5.22,0,8.17,3.82,8.17,8.96v2.09h-11.73ZM425.26,12.78c-.5-1.12-1.55-1.94-3.13-1.94s-2.63.83-3.13,1.94c-.29.68-.4,1.19-.43,2.02h7.13c-.04-.83-.14-1.33-.43-2.02Z"/>
      <path class="cls-1" d="M444.81,12.27c-.72-.72-1.33-1.12-2.48-1.12-1.44,0-3.02,1.08-3.02,3.46v11.3h-4.68V7.16h4.57v1.8c.9-1.08,2.7-2.02,4.72-2.02,1.84,0,3.13.47,4.43,1.76l-3.53,3.56Z"/>
      <path class="cls-1" d="M456.8,26.13c-2.95,0-5.62-.32-7.99-2.7l3.06-3.06c1.55,1.55,3.56,1.76,5,1.76,1.62,0,3.31-.54,3.31-1.94,0-.94-.5-1.58-1.98-1.73l-2.95-.29c-3.38-.32-5.47-1.8-5.47-5.25,0-3.89,3.42-5.98,7.24-5.98,2.92,0,5.36.5,7.16,2.2l-2.88,2.92c-1.08-.97-2.74-1.26-4.36-1.26-1.87,0-2.66.86-2.66,1.8,0,.68.29,1.48,1.94,1.62l2.95.29c3.71.36,5.58,2.34,5.58,5.51,0,4.14-3.53,6.12-7.96,6.12Z"/>
      <path class="cls-1" d="M484.45,26.13c-3.89,0-6.84-.83-9.36-3.38l3.24-3.24c1.62,1.62,3.82,2.16,6.19,2.16,2.95,0,4.54-1.12,4.54-3.17,0-.9-.25-1.66-.79-2.16-.5-.47-1.08-.72-2.27-.9l-3.09-.43c-2.2-.32-3.82-1.01-4.97-2.12-1.22-1.22-1.84-2.88-1.84-5.04,0-4.57,3.38-7.77,8.93-7.77,3.53,0,6.08.86,8.28,2.99l-3.17,3.13c-1.62-1.55-3.56-1.76-5.26-1.76-2.66,0-3.96,1.48-3.96,3.24,0,.65.21,1.33.76,1.84.5.47,1.33.86,2.38,1.01l3.02.43c2.34.32,3.82.97,4.9,1.98,1.37,1.3,1.98,3.17,1.98,5.44,0,4.97-4.14,7.77-9.5,7.77Z"/>
      <path class="cls-1" d="M505.76,26.13c-3.74,0-8.39-2.02-8.39-9.61s4.64-9.57,8.39-9.57c2.59,0,4.54.79,6.19,2.52l-3.17,3.17c-.97-1.04-1.8-1.48-3.02-1.48-1.12,0-1.98.4-2.66,1.22-.72.9-1.04,2.16-1.04,4.14s.32,3.28,1.04,4.18c.68.83,1.55,1.22,2.66,1.22,1.22,0,2.05-.43,3.02-1.48l3.17,3.13c-1.66,1.73-3.6,2.56-6.19,2.56Z"/>
      <path class="cls-1" d="M526.38,25.92v-1.73c-1.22,1.3-2.95,1.94-4.68,1.94-1.87,0-3.38-.61-4.43-1.66-1.51-1.51-1.91-3.28-1.91-5.33V7.16h4.68v11.34c0,2.56,1.62,3.42,3.1,3.42s3.13-.86,3.13-3.42V7.16h4.68v18.75h-4.57Z"/>
      <path class="cls-1" d="M541.5,25.92c-3.85,0-5.47-2.7-5.47-5.36V.29h4.68v19.98c0,1.12.47,1.69,1.66,1.69h1.8v3.96h-2.66Z"/>
      <path class="cls-1" d="M561.7,24.44c-1.04,1.04-2.74,1.69-4.57,1.69s-3.31-.5-4.54-1.87v8.53h-4.68V7.16h4.54v1.76c1.29-1.44,2.7-1.98,4.68-1.98,1.84,0,3.53.65,4.57,1.69,1.87,1.87,1.91,5.08,1.91,7.88s-.04,6.05-1.91,7.92ZM555.76,11.16c-2.81,0-3.17,2.3-3.17,5.36s.36,5.4,3.17,5.4,3.17-2.34,3.17-5.4-.36-5.36-3.17-5.36Z"/>
      <path class="cls-1" d="M573.94,25.92c-3.82,0-5.44-2.7-5.44-5.36v-9.29h-1.98v-3.56h1.98V2.16h4.68v5.54h3.31v3.56h-3.31v9c0,1.08.5,1.69,1.62,1.69h1.69v3.96h-2.56Z"/>
      <path class="cls-1" d="M591.54,25.92v-1.73c-1.22,1.3-2.95,1.94-4.68,1.94-1.87,0-3.38-.61-4.43-1.66-1.51-1.51-1.91-3.28-1.91-5.33V7.16h4.68v11.34c0,2.56,1.62,3.42,3.09,3.42s3.13-.86,3.13-3.42V7.16h4.68v18.75h-4.57Z"/>
      <path class="cls-1" d="M611.56,12.27c-.72-.72-1.33-1.12-2.48-1.12-1.44,0-3.02,1.08-3.02,3.46v11.3h-4.68V7.16h4.57v1.8c.9-1.08,2.7-2.02,4.72-2.02,1.84,0,3.13.47,4.43,1.76l-3.53,3.56Z"/>
      <path class="cls-1" d="M620.31,18c0,2.41,1.47,4.18,4.1,4.18,2.05,0,3.06-.58,4.25-1.76l2.84,2.77c-1.91,1.91-3.74,2.95-7.13,2.95-4.43,0-8.67-2.02-8.67-9.61,0-6.12,3.31-9.57,8.17-9.57,5.22,0,8.17,3.82,8.17,8.96v2.09h-11.73ZM627,12.78c-.5-1.12-1.55-1.94-3.13-1.94s-2.63.83-3.13,1.94c-.29.68-.4,1.19-.43,2.02h7.13c-.04-.83-.14-1.33-.43-2.02Z"/>
      <path class="cls-1" d="M257.12,53.49c.7-.43,1.32-.97,1.85-1.61.32-.46.58-.96.77-1.49.24-.86.38-1.74.43-2.64v-.17h-6.17v-2.47h2.9l-2.3-1.15c.77-1.04,1.42-2.14,1.97-3.31.66-1.39,1.21-2.82,1.66-4.3l2.62.6c-.22.75-.47,1.48-.74,2.18h3.58v-3.43h2.64v3.43h7.68v2.47h-7.68v3.5h8.81v2.47h-6.46v5.26c-.02.24,0,.46.07.67.05.16.13.3.24.41.11.08.23.14.36.17.24.06.48.09.72.07h1.08c.29.02.58,0,.87-.07.14-.03.28-.09.41-.17.13-.11.22-.25.29-.41.06-.21.1-.42.12-.65.03-.86.05-1.74.05-2.64l2.54.53c-.05,1.01-.1,2-.14,2.98-.03.54-.14,1.06-.31,1.56-.11.29-.27.54-.48.74-.34.27-.72.45-1.15.53-.59.1-1.19.14-1.8.14h-2.42c-.54,0-1.07-.06-1.58-.17-.38-.1-.71-.28-.96-.55-.19-.22-.33-.48-.41-.77-.11-.5-.16-1.02-.14-1.56v-6.07h-3.1v.19c-.08,1.18-.29,2.34-.62,3.48-.24.7-.55,1.38-.94,2.02-.61.86-1.33,1.6-2.16,2.21-1.1.77-2.25,1.46-3.43,2.06l-1.66-2.54c1.04-.43,2.05-.94,3.02-1.51ZM257.1,45.12h6.58v-3.5h-4.63c-.59,1.22-1.24,2.38-1.94,3.5Z"/>
      <path class="cls-1" d="M280.69,46.17c.22.02.45,0,.67-.02.11-.03.22-.08.31-.14.11-.08.18-.19.21-.34.03-.19.05-.39.05-.6v-.82l-3.72.53-.1-2.3c1.26-.11,2.54-.26,3.82-.43v-1.85h-3.34v-2.14h3.34v-2.3h2.52v2.3h2.88v2.14h-2.88v1.54c.93-.11,1.86-.25,2.78-.41v1.06l.02,1.15-2.81.38v1.94c0,.43-.06.86-.17,1.27-.08.22-.19.42-.34.6-.24.24-.53.4-.86.48-.45.1-.9.14-1.34.12h-2.54l-.22-2.16h1.7ZM296.62,49.05v8.06h-2.69v-.98h-10.7v.98h-2.66v-8.06h16.06ZM283.23,54h10.7v-2.81h-10.7v2.81ZM286.95,46.03c.24-.3.45-.62.62-.96.19-.5.32-1.01.38-1.54.06-.74.1-1.48.1-2.23v-4.08c3.2-.14,6.37-.58,9.5-1.32l.65,2.28c-2.5.58-5.02.97-7.56,1.18v2.04h8.66v2.28h-3v4.63h-2.54v-4.63h-3.19c-.08,1.02-.38,1.98-.89,2.88-.56.9-1.26,1.67-2.09,2.33l-2.06-1.42c.5-.45.97-.93,1.42-1.44Z"/>
      <path class="cls-1" d="M305.29,38.83c.35-1.14.64-2.3.86-3.5l2.76.48c-.24,1.02-.5,2.03-.79,3.02h3.6v3.77c1.38-2.32,2.39-4.8,3.05-7.44l2.57.6c-.29,1.07-.62,2.12-.98,3.14h6.46c-.16,4.91-.32,9.81-.48,14.69-.02.56-.11,1.09-.29,1.58-.13.29-.3.55-.53.79-.35.29-.75.49-1.2.6-.59.13-1.19.19-1.8.19h-3.14l-.5-2.64h2.78c.35.02.71,0,1.08-.07.24-.03.46-.13.65-.29.11-.13.2-.28.26-.46.08-.32.13-.65.14-.98l.31-10.78h-4.85c-.48,1.07-1.03,2.1-1.63,3.07l-1.9-1.2v12.5h-6.53v1.1h-2.54v-18.19h2.64ZM305.19,45.98h3.98v-4.54h-3.98v4.54ZM309.18,53.28v-4.7h-3.98v4.7h3.98ZM314.89,43.75c1.28,1.65,2.54,3.3,3.79,4.97l-2.23,1.44c-1.12-1.66-2.29-3.3-3.5-4.9l1.94-1.51Z"/>
      <path class="cls-1" d="M328.14,41.49c1.04,1.36,2.07,2.72,3.1,4.08.64-1.65,1.12-3.35,1.44-5.11h-6.48v-2.57h9.12v2.59c-.48,2.59-1.24,5.09-2.28,7.49l3.6,4.94-2.21,1.66c-.91-1.31-1.83-2.63-2.76-3.96-1.31,2.19-2.82,4.22-4.54,6.1l-1.87-2.04c1.84-1.92,3.42-4.06,4.73-6.41-1.28-1.78-2.58-3.55-3.89-5.33l2.04-1.44ZM337.52,43.7c1.26,1.79,2.5,3.6,3.72,5.42l-2.16,1.37c-1.19-1.84-2.38-3.66-3.6-5.47l2.04-1.32ZM340.59,54.31c.29.02.58,0,.86-.05.14-.03.28-.09.41-.17.13-.11.22-.26.26-.43.05-.27.07-.54.07-.82v-10.22h-6.34v-2.57h6.34v-4.27h2.71v4.27h2.54v2.57h-2.54v10.97c0,.58-.07,1.12-.22,1.63-.14.42-.38.77-.72,1.06-.29.21-.6.36-.94.46-.59.14-1.2.22-1.82.22h-2.95l-.55-2.64h2.88Z"/>
      <path class="cls-1" d="M354.85,43.1v9c.66-.59,1.34-1.18,2.04-1.75l.89,2.74c-1.25.94-2.46,1.93-3.62,2.95-.29.24-.55.5-.79.77l-1.75-2.02c.43-.43.63-.96.6-1.58v-7.58h-2.4v-2.52h5.04ZM352.69,35.97c1.22,1.34,2.38,2.73,3.48,4.15l-2.21,1.54c-1.04-1.39-2.14-2.74-3.29-4.03l2.02-1.66ZM362.46,47.66v-2.69h-6v-2.57h6v-2.78c-1.7.14-3.39.24-5.09.29l-.19-2.5c2.38-.06,4.77-.21,7.15-.43,1.86-.14,3.71-.36,5.57-.65l.43,2.45c-1.71.27-3.42.48-5.14.62v3h6.1v2.57h-6.1v2.69h4.66v9.43h-2.69v-.89h-6.65v.89h-2.69v-9.43h4.63ZM360.51,53.68h6.65v-3.48h-6.65v3.48Z"/>
    </g>
    <g>
      <path class="cls-1" d="M60.44,102.91v-10.73h-8.67v10.73h-5v-25.63h5v10.47h8.67v-10.47h5v25.63h-5Z"/>
      <path class="cls-1" d="M80.67,102.91v-1.62c-1.26,1.26-2.45,1.8-4.61,1.8s-3.67-.54-4.79-1.66c-1.01-1.04-1.55-2.56-1.55-4.21,0-2.99,2.05-5.44,6.41-5.44h4.43v-.94c0-2.05-1.01-2.95-3.49-2.95-1.8,0-2.63.43-3.6,1.55l-2.99-2.92c1.84-2.02,3.64-2.59,6.77-2.59,5.25,0,7.99,2.23,7.99,6.62v12.35h-4.57ZM80.57,94.99h-3.71c-1.69,0-2.63.79-2.63,2.12s.86,2.16,2.7,2.16c1.3,0,2.12-.11,2.95-.9.5-.47.68-1.22.68-2.38v-1.01Z"/>
      <path class="cls-1" d="M104.07,101.44c-1.04,1.04-2.74,1.69-4.57,1.69s-3.31-.5-4.54-1.87v8.53h-4.68v-25.63h4.54v1.76c1.3-1.44,2.7-1.98,4.68-1.98,1.84,0,3.53.65,4.57,1.69,1.87,1.87,1.91,5.08,1.91,7.88s-.04,6.05-1.91,7.92ZM98.13,88.15c-2.81,0-3.17,2.3-3.17,5.36s.36,5.4,3.17,5.4,3.17-2.34,3.17-5.4-.36-5.36-3.17-5.36Z"/>
      <path class="cls-1" d="M124.23,101.44c-1.04,1.04-2.74,1.69-4.57,1.69s-3.31-.5-4.54-1.87v8.53h-4.68v-25.63h4.54v1.76c1.3-1.44,2.7-1.98,4.68-1.98,1.84,0,3.53.65,4.57,1.69,1.87,1.87,1.91,5.08,1.91,7.88s-.04,6.05-1.91,7.92ZM118.29,88.15c-2.81,0-3.17,2.3-3.17,5.36s.36,5.4,3.17,5.4,3.17-2.34,3.17-5.4-.36-5.36-3.17-5.36Z"/>
      <path class="cls-1" d="M137.59,105.93c-.4,1.04-.83,1.84-1.4,2.41-1.08,1.08-2.48,1.44-4.03,1.44h-1.84v-4.21h1.08c1.33,0,1.87-.32,2.34-1.69l.79-2.3-6.41-17.42h4.93l3.89,11.59,3.74-11.59h4.93l-8.03,21.78Z"/>
      <path class="cls-1" d="M172.9,100.21c-2.05,2.12-4.5,2.92-7.24,2.92s-5.11-1.01-6.91-2.81c-2.59-2.59-2.52-5.79-2.52-10.22s-.07-7.63,2.52-10.22c1.8-1.8,4.03-2.81,6.91-2.81,5.94,0,8.96,3.89,9.65,8.21h-5.04c-.58-2.41-2.05-3.74-4.61-3.74-1.37,0-2.48.54-3.2,1.37-.97,1.08-1.22,2.27-1.22,7.2s.25,6.16,1.22,7.24c.72.83,1.84,1.33,3.2,1.33,1.51,0,2.74-.54,3.56-1.44.83-.94,1.15-2.09,1.15-3.42v-.97h-4.71v-4.18h9.68v3.74c0,3.71-.65,5.94-2.45,7.81Z"/>
      <path class="cls-1" d="M190.26,89.27c-.72-.72-1.33-1.12-2.48-1.12-1.44,0-3.02,1.08-3.02,3.46v11.3h-4.68v-18.75h4.57v1.8c.9-1.08,2.7-2.02,4.71-2.02,1.84,0,3.13.47,4.43,1.76l-3.53,3.56Z"/>
      <path class="cls-1" d="M205.7,102.91v-1.62c-1.26,1.26-2.45,1.8-4.61,1.8s-3.67-.54-4.79-1.66c-1.01-1.04-1.55-2.56-1.55-4.21,0-2.99,2.05-5.44,6.41-5.44h4.43v-.94c0-2.05-1.01-2.95-3.49-2.95-1.8,0-2.63.43-3.6,1.55l-2.99-2.92c1.84-2.02,3.64-2.59,6.77-2.59,5.25,0,7.99,2.23,7.99,6.62v12.35h-4.57ZM205.59,94.99h-3.71c-1.69,0-2.63.79-2.63,2.12s.86,2.16,2.7,2.16c1.3,0,2.12-.11,2.95-.9.5-.47.68-1.22.68-2.38v-1.01Z"/>
      <path class="cls-1" d="M225.68,102.91v-1.76c-1.3,1.44-2.66,1.98-4.64,1.98-1.83,0-3.56-.65-4.61-1.69-1.87-1.87-1.91-5.11-1.91-7.92s.04-6.01,1.91-7.88c1.04-1.04,2.74-1.69,4.57-1.69s3.35.5,4.57,1.87v-8.53h4.68v25.63h-4.57ZM222.37,88.15c-2.81,0-3.17,2.3-3.17,5.36s.36,5.4,3.17,5.4,3.2-2.34,3.2-5.4-.4-5.36-3.2-5.36Z"/>
      <path class="cls-1" d="M246.31,102.91v-1.73c-1.22,1.3-2.95,1.94-4.68,1.94-1.87,0-3.38-.61-4.43-1.66-1.51-1.51-1.91-3.28-1.91-5.33v-11.99h4.68v11.34c0,2.56,1.62,3.42,3.1,3.42s3.13-.86,3.13-3.42v-11.34h4.68v18.75h-4.57Z"/>
      <path class="cls-1" d="M265.75,102.91v-1.62c-1.26,1.26-2.45,1.8-4.61,1.8s-3.67-.54-4.79-1.66c-1.01-1.04-1.55-2.56-1.55-4.21,0-2.99,2.05-5.44,6.41-5.44h4.43v-.94c0-2.05-1.01-2.95-3.49-2.95-1.8,0-2.63.43-3.6,1.55l-2.99-2.92c1.84-2.02,3.64-2.59,6.77-2.59,5.25,0,7.99,2.23,7.99,6.62v12.35h-4.57ZM265.64,94.99h-3.71c-1.69,0-2.63.79-2.63,2.12s.86,2.16,2.7,2.16c1.3,0,2.12-.11,2.95-.9.5-.47.68-1.22.68-2.38v-1.01Z"/>
      <path class="cls-1" d="M281.23,102.91c-3.82,0-5.44-2.7-5.44-5.36v-9.29h-1.98v-3.56h1.98v-5.54h4.68v5.54h3.31v3.56h-3.31v9c0,1.08.5,1.69,1.62,1.69h1.69v3.96h-2.56Z"/>
      <path class="cls-1" d="M287.96,80.95v-3.82h4.79v3.82h-4.79ZM288.03,102.91v-18.75h4.68v18.75h-4.68Z"/>
      <path class="cls-1" d="M310.89,100.82c-1.15,1.22-3.06,2.3-5.83,2.3s-4.64-1.08-5.79-2.3c-1.69-1.76-2.12-3.89-2.12-7.31s.43-5.51,2.12-7.27c1.15-1.22,3.02-2.3,5.79-2.3s4.68,1.08,5.83,2.3c1.69,1.76,2.12,3.89,2.12,7.27s-.43,5.54-2.12,7.31ZM307.25,88.98c-.54-.54-1.26-.83-2.2-.83s-1.62.29-2.16.83c-.97.97-1.08,2.59-1.08,4.54s.11,3.6,1.08,4.57c.54.54,1.22.83,2.16.83s1.66-.29,2.2-.83c.97-.97,1.08-2.63,1.08-4.57s-.11-3.56-1.08-4.54Z"/>
      <path class="cls-1" d="M328.39,102.91v-11.34c0-2.56-1.62-3.42-3.1-3.42s-3.13.86-3.13,3.42v11.34h-4.68v-18.75h4.57v1.73c1.22-1.3,2.95-1.94,4.68-1.94,1.87,0,3.38.61,4.43,1.66,1.51,1.51,1.91,3.28,1.91,5.33v11.99h-4.68Z"/>
      <path class="cls-1" d="M345.96,102.91v-4.21l9.57-11.12c.94-1.12,1.33-1.91,1.33-3.1,0-1.91-1.12-3.2-3.1-3.2-1.55,0-3.13.79-3.13,3.28h-4.68c0-4.68,3.42-7.49,7.81-7.49s7.78,2.84,7.78,7.45c0,2.48-.97,3.82-2.74,5.87l-7.16,8.31h9.9v4.21h-15.59Z"/>
      <path class="cls-1" d="M373.17,103.13c-4.18,0-7.81-2.74-7.81-7.63v-10.8c0-4.9,3.64-7.63,7.81-7.63s7.77,2.74,7.77,7.63v10.8c0,4.9-3.6,7.63-7.77,7.63ZM376.27,84.77c0-2.16-1.26-3.49-3.1-3.49s-3.13,1.33-3.13,3.49v10.69c0,2.16,1.3,3.46,3.13,3.46s3.1-1.3,3.1-3.46v-10.69Z"/>
      <path class="cls-1" d="M385.05,102.91v-4.21l9.57-11.12c.94-1.12,1.33-1.91,1.33-3.1,0-1.91-1.12-3.2-3.1-3.2-1.55,0-3.13.79-3.13,3.28h-4.68c0-4.68,3.42-7.49,7.81-7.49s7.78,2.84,7.78,7.45c0,2.48-.97,3.82-2.74,5.87l-7.16,8.31h9.9v4.21h-15.59Z"/>
      <path class="cls-1" d="M418.57,99.28v3.64h-4.5v-3.64h-10.47v-4.43l8.78-17.57h5.11l-8.78,17.57h5.36v-4.79h4.5v4.79h2.34v4.43h-2.34Z"/>
      <path class="cls-1" d="M434.33,105.57v-30.96h4.68v30.96h-4.68Z"/>
      <path class="cls-1" d="M470.37,92.36v4.64h14.98v1.94h-14.98v7.6h-2.02v-7.6h-14.98v-1.94h14.98v-4.64h2.02ZM457.7,90.35c.17-.24.25-.53.25-.86v-15.01h2.02v5.9h8.86v1.87h-8.86v7.63c2.98-1.03,5.95-2.09,8.93-3.17l.14,1.91c-3.1,1.1-6.17,2.2-9.22,3.28-.72.24-1.4.53-2.05.86l-.9-1.8c.31-.14.59-.35.83-.61ZM472.71,74.4v7.78c1.92-.91,3.82-1.88,5.69-2.92,1.51-.79,2.98-1.67,4.39-2.63l1.04,1.76c-1.61,1.06-3.26,2.02-4.97,2.88-2.02,1.06-4.07,2.05-6.16,2.99v2.84c-.02.36,0,.72.07,1.08.07.34.22.65.43.94.22.22.48.37.79.47.36.1.74.13,1.15.11h4.72c.46.02.9-.01,1.33-.11.34-.1.62-.25.86-.47.17-.19.29-.41.36-.65.14-.43.23-.88.25-1.33.05-1.34.09-2.71.14-4.1l1.87.36c-.05,1.54-.12,3.05-.22,4.54-.05.65-.19,1.26-.43,1.84-.14.34-.35.64-.61.9-.41.31-.85.53-1.33.65-.67.14-1.33.2-1.98.18h-5.9c-.55.02-1.08-.04-1.58-.18-.43-.14-.82-.4-1.15-.76-.31-.38-.53-.83-.65-1.33-.12-.5-.17-1.02-.14-1.55v-13.28h2.02Z"/>
      <path class="cls-1" d="M500.18,102.33v-27.79h2.12v27.79h6.12v-27.79h2.12v27.79h10.87v2.02h-32.15v-2.02h10.91ZM492.4,80.56c2.21,4.87,4.36,9.77,6.44,14.69l-2.02.94c-2.02-4.94-4.13-9.86-6.34-14.76l1.91-.86ZM518.36,80.7l1.98.83c-2.06,5.02-4.27,9.94-6.62,14.76l-1.91-.97c2.38-4.78,4.56-9.65,6.55-14.62Z"/>
      <path class="cls-1" d="M526.49,79.98l1.84.18c-.53,4.32-1.19,8.59-1.98,12.82l-1.91-.29c.91-4.18,1.6-8.41,2.05-12.71ZM531.89,74.29v32.04h-1.91v-32.04h1.91ZM533.77,79.91c1.37,2.16,2.74,4.33,4.1,6.52l-1.55,1.15c-1.32-2.18-2.66-4.36-4.03-6.52l1.48-1.15ZM543.99,91c0-.34.01-.68.04-1.04,0-2.57.01-5.16.04-7.78h-6.73v-1.91h6.73c-.02-1.99-.01-3.98.04-5.98h1.91c0,2.02-.01,4.01-.04,5.98h8.03v10.73h3.82v1.91h-11.45c.84,2.81,2.29,5.24,4.36,7.31,1.13,1.03,2.35,1.93,3.67,2.7,1.1.65,2.25,1.22,3.46,1.73l-1.01,1.8c-2.57-1.1-4.88-2.57-6.95-4.39-2.11-1.99-3.68-4.36-4.72-7.09-.7,2.21-1.84,4.16-3.42,5.87-1.03,1.08-2.15,2.05-3.35,2.92-1.44,1.06-2.93,2.03-4.46,2.92l-1.08-1.73c1.58-.86,3.11-1.8,4.57-2.81,1.2-.89,2.29-1.9,3.28-3.02,1.54-1.8,2.54-3.86,3.02-6.19h-9.07v-1.91h9.32ZM545.97,82.18c-.02,2.57-.04,5.12-.04,7.67-.02.41-.04.79-.04,1.15h6.16v-8.82h-6.08Z"/>
      <path class="cls-1" d="M569.3,93.23l1.76,1.12c-2.57,3.74-5.47,7.18-8.71,10.3l-1.62-1.37c3.22-3.02,6.07-6.37,8.57-10.04ZM565.48,77.5c8.06-.31,16.09-1.06,24.08-2.23l.43,2.02c-7.51,1.08-15.04,1.8-22.57,2.16l-1.15,9.29h10.48v-7.99h2.16v7.99h13.18v1.98h-13.18v11.23c0,.65-.08,1.3-.25,1.94-.12.36-.3.67-.54.94-.38.36-.83.59-1.33.68-.72.14-1.44.22-2.16.22h-4.18l-.43-2.02h3.96c.48,0,.97-.04,1.48-.11.24-.07.47-.17.68-.29.24-.17.4-.38.47-.65.1-.41.14-.83.14-1.26v-10.69h-12.82l1.55-13.21ZM584.56,93.3c3,3.29,5.98,6.59,8.93,9.9l-1.73,1.37c-2.9-3.36-5.84-6.68-8.82-9.97l1.62-1.3Z"/>
    </g>
  </g>
</svg>