<?xml version="1.0" encoding="UTF-8"?>
<svg id="_图层_2" data-name="图层 2" xmlns="http://www.w3.org/2000/svg" viewBox="0 0 546.73 95.8">
  <defs>
    <style>
      .cls-1 {
        fill: #242a74;
        stroke-width: 0px;
      }
    </style>
  </defs>
  <g id="_图层_1-2" data-name="图层 1">
    <g>
      <path class="cls-1" d="M162.55,38.58c-3.42,3.54-7.5,4.86-12.06,4.86s-8.52-1.68-11.52-4.68c-4.32-4.32-4.2-9.66-4.2-17.04s-.12-12.72,4.2-17.04c3-3,6.72-4.68,11.52-4.68,9.9,0,14.94,6.48,16.08,13.68h-8.4c-.96-4.02-3.42-6.24-7.68-6.24-2.28,0-4.14.9-5.34,2.28-1.62,1.8-2.04,3.78-2.04,12s.42,10.26,2.04,12.06c1.2,1.38,3.06,2.22,5.34,2.22,2.52,0,4.56-.9,5.94-2.4,1.38-1.56,1.92-3.48,1.92-5.7v-1.62h-7.86v-6.96h16.14v6.24c0,6.18-1.08,9.9-4.08,13.02Z"/>
      <path class="cls-1" d="M186.13,48.12c-.66,1.74-1.38,3.06-2.34,4.02-1.8,1.8-4.14,2.4-6.72,2.4h-3.06v-7.02h1.8c2.22,0,3.12-.54,3.9-2.82l1.32-3.84-10.68-29.04h8.22l6.48,19.32,6.24-19.32h8.22l-13.38,36.3Z"/>
      <path class="cls-1" d="M240.48,43.08v-18.9c0-4.26-2.7-5.7-5.16-5.7s-5.22,1.44-5.22,5.52v19.08h-7.8v-18.9c0-4.26-2.7-5.7-5.16-5.7s-5.22,1.44-5.22,5.7v18.9h-7.8V11.82h7.62v2.88c2.04-2.1,4.92-3.24,7.8-3.24,3.48,0,6.3,1.26,8.28,3.96,2.64-2.76,5.46-3.96,9.36-3.96,3.12,0,5.94,1.02,7.68,2.76,2.52,2.52,3.42,5.46,3.42,8.88v19.98h-7.8Z"/>
      <path class="cls-1" d="M296.75,35.54v-12.29c-1.41,3.26-3.12,6.32-5.14,9.17-2.02,2.78-4.24,5.39-6.67,7.82l-2.3-3.26v10.51h-5.04v-21.26c-1.15,1.76-2.37,3.46-3.65,5.09l-2.3-5.66c2.18-3.14,4.06-6.45,5.66-9.94,1.63-3.46,2.99-7.02,4.08-10.7l5.28.96c-1.12,3.74-2.46,7.38-4.03,10.9v17.86c5.22-4.83,9.2-10.56,11.95-17.18h-9.46v-5.18h11.62v-7.2h5.09v7.2h13.01v5.18h-10.94c3.2,7.04,7.74,13.06,13.63,18.05l-3.7,4.8c-2.4-2.24-4.54-4.69-6.43-7.34-2.18-3.07-4.03-6.34-5.57-9.79v12.29h7.25v4.85h-7.25v7.3h-5.09v-7.3h-7.34v-4.85h7.34Z"/>
      <path class="cls-1" d="M326.22,16.25c.13-.06.27-.13.43-.19,1.86-.83,3.66-1.82,5.42-2.98h-11.14v-4.56h19.01l-1.44-3.41,5.18-1.2,1.92,4.61h18.19v4.56h-10.46l8.88,6.34-3.22,3.98-3.31-2.54c-8.61.16-17.18.37-25.73.62-1.89.1-3.76.22-5.62.38l-.86-4.7c.96-.16,1.87-.46,2.74-.91ZM358.53,23.45v18.43c0,.96-.13,1.92-.38,2.88-.26.74-.69,1.34-1.3,1.82-.54.32-1.12.56-1.73.72-1.12.22-2.26.34-3.41.34h-6.34l-.82-4.42h6.72c.45,0,.9-.03,1.34-.1.22-.03.42-.08.58-.14.16-.19.26-.42.29-.67.03-.42.05-.83.05-1.25v-.34h-22.37v7.01h-4.99v-24.29h32.35ZM331.17,30.07h22.37v-2.59h-22.37v2.59ZM331.17,36.65h22.37v-2.64h-22.37v2.64ZM347.97,13.08h-8.35c-2.05,1.5-4.16,2.86-6.34,4.08l17.04-.29-3.5-2.5,1.15-1.3Z"/>
      <path class="cls-1" d="M373.12,39.81v-17.66l-1.87,4.18-3.65-3.31c2.59-5.63,4.51-11.5,5.76-17.62l4.7.67c-.42,1.82-.86,3.62-1.34,5.38h6.53v4.9l-2.4,7.2-2.93-1.1v16.08c1.41-1.09,2.83-2.18,4.27-3.26l1.49,5.09c-2.14,1.47-4.22,2.96-6.24,4.46-1.02.67-2,1.39-2.93,2.16l-2.78-3.94c1.02-.8,1.49-1.87,1.39-3.22ZM373.5,21.14h4.03l1.92-4.85h-4.18c-.54,1.66-1.14,3.28-1.78,4.85ZM395.1,9.57c-.58-1.28-1.14-2.58-1.68-3.89l5.33-1.01c.7,1.63,1.38,3.26,2.02,4.9h10.46v7.97h-2.98v12.43h-17.09v2.78h18.14v14.93h-4.94v-1.78h-13.2v1.97h-4.94v-30.34h-1.87v-7.97h10.75ZM389.34,17.45h16.8v-3.31h-16.8v3.31ZM391.17,25.65h12.14v-3.84h-12.14v3.84ZM391.17,37.13v4.46h13.2v-4.46h-13.2Z"/>
    </g>
    <g>
      <path class="cls-1" d="M13.68,88.92v-10.73H5v10.73H0v-25.63h5v10.47h8.67v-10.47h5v25.63h-5Z"/>
      <path class="cls-1" d="M33.91,88.92v-1.62c-1.26,1.26-2.45,1.8-4.61,1.8s-3.67-.54-4.79-1.66c-1.01-1.04-1.55-2.56-1.55-4.21,0-2.99,2.05-5.44,6.41-5.44h4.43v-.94c0-2.05-1.01-2.95-3.49-2.95-1.8,0-2.63.43-3.6,1.55l-2.99-2.92c1.84-2.02,3.64-2.59,6.77-2.59,5.25,0,7.99,2.23,7.99,6.62v12.35h-4.57ZM33.8,81h-3.71c-1.69,0-2.63.79-2.63,2.12s.86,2.16,2.7,2.16c1.3,0,2.12-.11,2.95-.9.5-.47.68-1.22.68-2.38v-1.01Z"/>
      <path class="cls-1" d="M57.31,87.45c-1.04,1.04-2.74,1.69-4.57,1.69s-3.31-.5-4.54-1.87v8.53h-4.68v-25.63h4.54v1.76c1.3-1.44,2.7-1.98,4.68-1.98,1.84,0,3.53.65,4.57,1.69,1.87,1.87,1.91,5.08,1.91,7.88s-.04,6.05-1.91,7.92ZM51.37,74.17c-2.81,0-3.17,2.3-3.17,5.36s.36,5.4,3.17,5.4,3.17-2.34,3.17-5.4-.36-5.36-3.17-5.36Z"/>
      <path class="cls-1" d="M77.47,87.45c-1.04,1.04-2.74,1.69-4.57,1.69s-3.31-.5-4.54-1.87v8.53h-4.68v-25.63h4.54v1.76c1.3-1.44,2.7-1.98,4.68-1.98,1.84,0,3.53.65,4.57,1.69,1.87,1.87,1.91,5.08,1.91,7.88s-.04,6.05-1.91,7.92ZM71.53,74.17c-2.81,0-3.17,2.3-3.17,5.36s.36,5.4,3.17,5.4,3.17-2.34,3.17-5.4-.36-5.36-3.17-5.36Z"/>
      <path class="cls-1" d="M90.83,91.95c-.4,1.04-.83,1.84-1.4,2.41-1.08,1.08-2.48,1.44-4.03,1.44h-1.84v-4.21h1.08c1.33,0,1.87-.32,2.34-1.69l.79-2.3-6.41-17.42h4.93l3.89,11.59,3.74-11.59h4.93l-8.03,21.78Z"/>
      <path class="cls-1" d="M126.14,86.22c-2.05,2.12-4.5,2.92-7.24,2.92s-5.11-1.01-6.91-2.81c-2.59-2.59-2.52-5.79-2.52-10.22s-.07-7.63,2.52-10.22c1.8-1.8,4.03-2.81,6.91-2.81,5.94,0,8.96,3.89,9.65,8.21h-5.04c-.58-2.41-2.05-3.74-4.61-3.74-1.37,0-2.48.54-3.2,1.37-.97,1.08-1.22,2.27-1.22,7.2s.25,6.16,1.22,7.24c.72.83,1.84,1.33,3.2,1.33,1.51,0,2.74-.54,3.56-1.44.83-.94,1.15-2.09,1.15-3.42v-.97h-4.71v-4.18h9.68v3.74c0,3.71-.65,5.94-2.45,7.81Z"/>
      <path class="cls-1" d="M143.49,75.28c-.72-.72-1.33-1.12-2.48-1.12-1.44,0-3.02,1.08-3.02,3.46v11.3h-4.68v-18.75h4.57v1.8c.9-1.08,2.7-2.02,4.71-2.02,1.84,0,3.13.47,4.43,1.76l-3.53,3.56Z"/>
      <path class="cls-1" d="M158.94,88.92v-1.62c-1.26,1.26-2.45,1.8-4.61,1.8s-3.67-.54-4.79-1.66c-1.01-1.04-1.55-2.56-1.55-4.21,0-2.99,2.05-5.44,6.41-5.44h4.43v-.94c0-2.05-1.01-2.95-3.49-2.95-1.8,0-2.63.43-3.6,1.55l-2.99-2.92c1.84-2.02,3.64-2.59,6.77-2.59,5.25,0,7.99,2.23,7.99,6.62v12.35h-4.57ZM158.83,81h-3.71c-1.69,0-2.63.79-2.63,2.12s.86,2.16,2.7,2.16c1.3,0,2.12-.11,2.95-.9.5-.47.68-1.22.68-2.38v-1.01Z"/>
      <path class="cls-1" d="M178.92,88.92v-1.76c-1.3,1.44-2.66,1.98-4.64,1.98-1.83,0-3.56-.65-4.61-1.69-1.87-1.87-1.91-5.11-1.91-7.92s.04-6.01,1.91-7.88c1.04-1.04,2.74-1.69,4.57-1.69s3.35.5,4.57,1.87v-8.53h4.68v25.63h-4.57ZM175.61,74.17c-2.81,0-3.17,2.3-3.17,5.36s.36,5.4,3.17,5.4,3.2-2.34,3.2-5.4-.4-5.36-3.2-5.36Z"/>
      <path class="cls-1" d="M199.55,88.92v-1.73c-1.22,1.3-2.95,1.94-4.68,1.94-1.87,0-3.38-.61-4.43-1.66-1.51-1.51-1.91-3.28-1.91-5.33v-11.99h4.68v11.34c0,2.56,1.62,3.42,3.1,3.42s3.13-.86,3.13-3.42v-11.34h4.68v18.75h-4.57Z"/>
      <path class="cls-1" d="M218.99,88.92v-1.62c-1.26,1.26-2.45,1.8-4.61,1.8s-3.67-.54-4.79-1.66c-1.01-1.04-1.55-2.56-1.55-4.21,0-2.99,2.05-5.44,6.41-5.44h4.43v-.94c0-2.05-1.01-2.95-3.49-2.95-1.8,0-2.63.43-3.6,1.55l-2.99-2.92c1.84-2.02,3.64-2.59,6.77-2.59,5.25,0,7.99,2.23,7.99,6.62v12.35h-4.57ZM218.88,81h-3.71c-1.69,0-2.63.79-2.63,2.12s.86,2.16,2.7,2.16c1.3,0,2.12-.11,2.95-.9.5-.47.68-1.22.68-2.38v-1.01Z"/>
      <path class="cls-1" d="M234.47,88.92c-3.82,0-5.44-2.7-5.44-5.36v-9.29h-1.98v-3.56h1.98v-5.54h4.68v5.54h3.31v3.56h-3.31v9c0,1.08.5,1.69,1.62,1.69h1.69v3.96h-2.56Z"/>
      <path class="cls-1" d="M241.2,66.97v-3.82h4.79v3.82h-4.79ZM241.27,88.92v-18.75h4.68v18.75h-4.68Z"/>
      <path class="cls-1" d="M264.13,86.84c-1.15,1.22-3.06,2.3-5.83,2.3s-4.64-1.08-5.79-2.3c-1.69-1.76-2.12-3.89-2.12-7.31s.43-5.51,2.12-7.27c1.15-1.22,3.02-2.3,5.79-2.3s4.68,1.08,5.83,2.3c1.69,1.76,2.12,3.89,2.12,7.27s-.43,5.54-2.12,7.31ZM260.49,74.99c-.54-.54-1.26-.83-2.2-.83s-1.62.29-2.16.83c-.97.97-1.08,2.59-1.08,4.54s.11,3.6,1.08,4.57c.54.54,1.22.83,2.16.83s1.66-.29,2.2-.83c.97-.97,1.08-2.63,1.08-4.57s-.11-3.56-1.08-4.54Z"/>
      <path class="cls-1" d="M281.62,88.92v-11.34c0-2.56-1.62-3.42-3.1-3.42s-3.13.86-3.13,3.42v11.34h-4.68v-18.75h4.57v1.73c1.22-1.3,2.95-1.94,4.68-1.94,1.87,0,3.38.61,4.43,1.66,1.51,1.51,1.91,3.28,1.91,5.33v11.99h-4.68Z"/>
      <path class="cls-1" d="M299.19,88.92v-4.21l9.57-11.12c.94-1.12,1.33-1.91,1.33-3.1,0-1.91-1.12-3.2-3.1-3.2-1.55,0-3.13.79-3.13,3.28h-4.68c0-4.68,3.42-7.49,7.81-7.49s7.78,2.84,7.78,7.45c0,2.48-.97,3.82-2.74,5.87l-7.16,8.31h9.9v4.21h-15.59Z"/>
      <path class="cls-1" d="M326.41,89.14c-4.18,0-7.81-2.74-7.81-7.63v-10.8c0-4.9,3.64-7.63,7.81-7.63s7.77,2.74,7.77,7.63v10.8c0,4.9-3.6,7.63-7.77,7.63ZM329.5,70.78c0-2.16-1.26-3.49-3.1-3.49s-3.13,1.33-3.13,3.49v10.69c0,2.16,1.3,3.46,3.13,3.46s3.1-1.3,3.1-3.46v-10.69Z"/>
      <path class="cls-1" d="M338.29,88.92v-4.21l9.57-11.12c.94-1.12,1.33-1.91,1.33-3.1,0-1.91-1.12-3.2-3.1-3.2-1.55,0-3.13.79-3.13,3.28h-4.68c0-4.68,3.42-7.49,7.81-7.49s7.78,2.84,7.78,7.45c0,2.48-.97,3.82-2.74,5.87l-7.16,8.31h9.9v4.21h-15.59Z"/>
      <path class="cls-1" d="M371.8,85.29v3.64h-4.5v-3.64h-10.47v-4.43l8.78-17.57h5.11l-8.78,17.57h5.36v-4.79h4.5v4.79h2.34v4.43h-2.34Z"/>
      <path class="cls-1" d="M387.57,91.59v-30.96h4.68v30.96h-4.68Z"/>
      <path class="cls-1" d="M423.61,78.38v4.64h14.98v1.94h-14.98v7.6h-2.02v-7.6h-14.98v-1.94h14.98v-4.64h2.02ZM410.94,76.36c.17-.24.25-.53.25-.86v-15.01h2.02v5.9h8.86v1.87h-8.86v7.63c2.98-1.03,5.95-2.09,8.93-3.17l.14,1.91c-3.1,1.1-6.17,2.2-9.22,3.28-.72.24-1.4.53-2.05.86l-.9-1.8c.31-.14.59-.35.83-.61ZM425.95,60.41v7.78c1.92-.91,3.82-1.88,5.69-2.92,1.51-.79,2.98-1.67,4.39-2.63l1.04,1.76c-1.61,1.06-3.26,2.02-4.97,2.88-2.02,1.06-4.07,2.05-6.16,2.99v2.84c-.02.36,0,.72.07,1.08.07.34.22.65.43.94.22.22.48.37.79.47.36.1.74.13,1.15.11h4.72c.46.02.9-.01,1.33-.11.34-.1.62-.25.86-.47.17-.19.29-.41.36-.65.14-.43.23-.88.25-1.33.05-1.34.09-2.71.14-4.1l1.87.36c-.05,1.54-.12,3.05-.22,4.54-.05.65-.19,1.26-.43,1.84-.14.34-.35.64-.61.9-.41.31-.85.53-1.33.65-.67.14-1.33.2-1.98.18h-5.9c-.55.02-1.08-.04-1.58-.18-.43-.14-.82-.4-1.15-.76-.31-.38-.53-.83-.65-1.33-.12-.5-.17-1.02-.14-1.55v-13.28h2.02Z"/>
      <path class="cls-1" d="M453.42,88.35v-27.79h2.12v27.79h6.12v-27.79h2.12v27.79h10.87v2.02h-32.15v-2.02h10.91ZM445.64,66.57c2.21,4.87,4.36,9.77,6.44,14.69l-2.02.94c-2.02-4.94-4.13-9.86-6.34-14.76l1.91-.86ZM471.6,66.71l1.98.83c-2.06,5.02-4.27,9.94-6.62,14.76l-1.91-.97c2.38-4.78,4.56-9.65,6.55-14.62Z"/>
      <path class="cls-1" d="M479.73,65.99l1.84.18c-.53,4.32-1.19,8.59-1.98,12.82l-1.91-.29c.91-4.18,1.6-8.41,2.05-12.71ZM485.13,60.3v32.04h-1.91v-32.04h1.91ZM487,65.92c1.37,2.16,2.74,4.33,4.1,6.52l-1.55,1.15c-1.32-2.18-2.66-4.36-4.03-6.52l1.48-1.15ZM497.23,77.01c0-.34.01-.68.04-1.04,0-2.57.01-5.16.04-7.78h-6.73v-1.91h6.73c-.02-1.99-.01-3.98.04-5.98h1.91c0,2.02-.01,4.01-.04,5.98h8.03v10.73h3.82v1.91h-11.45c.84,2.81,2.29,5.24,4.36,7.31,1.13,1.03,2.35,1.93,3.67,2.7,1.1.65,2.25,1.22,3.46,1.73l-1.01,1.8c-2.57-1.1-4.88-2.57-6.95-4.39-2.11-1.99-3.68-4.36-4.72-7.09-.7,2.21-1.84,4.16-3.42,5.87-1.03,1.08-2.15,2.05-3.35,2.92-1.44,1.06-2.93,2.03-4.46,2.92l-1.08-1.73c1.58-.86,3.11-1.8,4.57-2.81,1.2-.89,2.29-1.9,3.28-3.02,1.54-1.8,2.54-3.86,3.02-6.19h-9.07v-1.91h9.32ZM499.21,68.19c-.02,2.57-.04,5.12-.04,7.67-.02.41-.04.79-.04,1.15h6.16v-8.82h-6.08Z"/>
      <path class="cls-1" d="M522.54,79.24l1.76,1.12c-2.57,3.74-5.47,7.18-8.71,10.3l-1.62-1.37c3.22-3.02,6.07-6.37,8.57-10.04ZM518.72,63.51c8.06-.31,16.09-1.06,24.08-2.23l.43,2.02c-7.51,1.08-15.04,1.8-22.57,2.16l-1.15,9.29h10.48v-7.99h2.16v7.99h13.18v1.98h-13.18v11.23c0,.65-.08,1.3-.25,1.94-.12.36-.3.67-.54.94-.38.36-.83.59-1.33.68-.72.14-1.44.22-2.16.22h-4.18l-.43-2.02h3.96c.48,0,.97-.04,1.48-.11.24-.07.47-.17.68-.29.24-.17.4-.38.47-.65.1-.41.14-.83.14-1.26v-10.69h-12.82l1.55-13.21ZM537.8,79.31c3,3.29,5.98,6.59,8.93,9.9l-1.73,1.37c-2.9-3.36-5.84-6.68-8.82-9.97l1.62-1.3Z"/>
    </g>
  </g>
</svg>