<?xml version="1.0" encoding="UTF-8"?>
<svg id="_图层_2" data-name="图层 2" xmlns="http://www.w3.org/2000/svg" viewBox="0 0 743.28 100.05">
  <defs>
    <style>
      .cls-1 {
        fill: #242a74;
        stroke-width: 0px;
      }
    </style>
  </defs>
  <g id="_图层_1-2" data-name="图层 1">
    <g>
      <g>
        <path class="cls-1" d="M19.5,7.92v35.28h-8.34V7.92H0V.48h30.66v7.44h-11.16Z"/>
        <path class="cls-1" d="M54.78,43.2v-19.08c0-4.14-2.64-5.52-5.1-5.52s-5.04,1.44-5.04,5.52v19.08h-7.8V.48h7.8v14.34c2.1-2.16,4.74-3.24,7.5-3.24,6.84,0,10.44,4.8,10.44,11.4v20.22h-7.8Z"/>
        <path class="cls-1" d="M77.1,30c0,4.02,2.46,6.96,6.84,6.96,3.42,0,5.1-.96,7.08-2.94l4.74,4.62c-3.18,3.18-6.24,4.92-11.88,4.92-7.38,0-14.46-3.36-14.46-16.02,0-10.2,5.52-15.96,13.62-15.96,8.7,0,13.62,6.36,13.62,14.94v3.48h-19.56ZM88.26,21.3c-.84-1.86-2.58-3.24-5.22-3.24s-4.38,1.38-5.22,3.24c-.48,1.14-.66,1.98-.72,3.36h11.88c-.06-1.38-.24-2.22-.72-3.36Z"/>
        <path class="cls-1" d="M144.72,38.7c-3.42,3.54-7.5,4.86-12.06,4.86s-8.52-1.68-11.52-4.68c-4.32-4.32-4.2-9.66-4.2-17.04s-.12-12.72,4.2-17.04c3-3,6.72-4.68,11.52-4.68,9.9,0,14.94,6.48,16.08,13.68h-8.4c-.96-4.02-3.42-6.24-7.68-6.24-2.28,0-4.14.9-5.34,2.28-1.62,1.8-2.04,3.78-2.04,12s.42,10.26,2.04,12.06c1.2,1.38,3.06,2.22,5.34,2.22,2.52,0,4.56-.9,5.94-2.4,1.38-1.56,1.92-3.48,1.92-5.7v-1.62h-7.86v-6.96h16.14v6.24c0,6.18-1.08,9.9-4.08,13.02Z"/>
        <path class="cls-1" d="M172.68,43.2v-2.7c-2.1,2.1-4.08,3-7.68,3s-6.12-.9-7.98-2.76c-1.68-1.74-2.58-4.26-2.58-7.02,0-4.98,3.42-9.06,10.68-9.06h7.38v-1.56c0-3.42-1.68-4.92-5.82-4.92-3,0-4.38.72-6,2.58l-4.98-4.86c3.06-3.36,6.06-4.32,11.28-4.32,8.76,0,13.32,3.72,13.32,11.04v20.58h-7.62ZM172.5,30h-6.18c-2.82,0-4.38,1.32-4.38,3.54s1.44,3.6,4.5,3.6c2.16,0,3.54-.18,4.92-1.5.84-.78,1.14-2.04,1.14-3.96v-1.68Z"/>
        <path class="cls-1" d="M198.48,43.2c-6.36,0-9.06-4.5-9.06-8.94v-15.48h-3.3v-5.94h3.3V3.6h7.8v9.24h5.52v5.94h-5.52v15c0,1.8.84,2.82,2.7,2.82h2.82v6.6h-4.26Z"/>
        <path class="cls-1" d="M215.76,30c0,4.02,2.46,6.96,6.84,6.96,3.42,0,5.1-.96,7.08-2.94l4.74,4.62c-3.18,3.18-6.24,4.92-11.88,4.92-7.38,0-14.46-3.36-14.46-16.02,0-10.2,5.52-15.96,13.62-15.96,8.7,0,13.62,6.36,13.62,14.94v3.48h-19.56ZM226.92,21.3c-.84-1.86-2.58-3.24-5.22-3.24s-4.38,1.38-5.22,3.24c-.48,1.14-.66,1.98-.72,3.36h11.88c-.06-1.38-.24-2.22-.72-3.36Z"/>
        <path class="cls-1" d="M278.04,39.72c-1.92,2.04-5.1,3.84-9.72,3.84s-7.74-1.8-9.66-3.84c-2.82-2.94-3.54-6.48-3.54-12.18s.72-9.18,3.54-12.12c1.92-2.04,5.04-3.84,9.66-3.84s7.8,1.8,9.72,3.84c2.82,2.94,3.54,6.48,3.54,12.12s-.72,9.24-3.54,12.18ZM271.98,19.98c-.9-.9-2.1-1.38-3.66-1.38s-2.7.48-3.6,1.38c-1.62,1.62-1.8,4.32-1.8,7.56s.18,6,1.8,7.62c.9.9,2.04,1.38,3.6,1.38s2.76-.48,3.66-1.38c1.62-1.62,1.8-4.38,1.8-7.62s-.18-5.94-1.8-7.56Z"/>
        <path class="cls-1" d="M297.78,18.78v24.42h-7.8v-24.42h-3.24v-5.94h3.24v-3.9c0-4.44,2.76-8.94,9.12-8.94h4.44v6.6h-3.06c-1.86,0-2.7,1.02-2.7,2.82v3.42h5.76v5.94h-5.76Z"/>
        <path class="cls-1" d="M360.47,43.2h-6.96l-7.86-25.92-7.86,25.92h-6.96L319.44.48h8.7l6.6,26.94,7.8-26.94h6.24l7.8,26.94,6.66-26.94h8.7l-11.46,42.72Z"/>
        <path class="cls-1" d="M376.56,6.6V.24h7.98v6.36h-7.98ZM376.68,43.2V11.94h7.8v31.26h-7.8Z"/>
        <path class="cls-1" d="M403.44,43.56c-4.92,0-9.36-.54-13.32-4.5l5.1-5.1c2.58,2.58,5.94,2.94,8.34,2.94,2.7,0,5.52-.9,5.52-3.24,0-1.56-.84-2.64-3.3-2.88l-4.92-.48c-5.64-.54-9.12-3-9.12-8.76,0-6.48,5.7-9.96,12.06-9.96,4.86,0,8.94.84,11.94,3.66l-4.8,4.86c-1.8-1.62-4.56-2.1-7.26-2.1-3.12,0-4.44,1.44-4.44,3,0,1.14.48,2.46,3.24,2.7l4.92.48c6.18.6,9.3,3.9,9.3,9.18,0,6.9-5.88,10.2-13.26,10.2Z"/>
        <path class="cls-1" d="M440.51,43.2v-2.94c-2.16,2.4-4.44,3.3-7.74,3.3-3.06,0-5.94-1.08-7.68-2.82-3.12-3.12-3.18-8.52-3.18-13.2s.06-10.02,3.18-13.14c1.74-1.74,4.56-2.82,7.62-2.82s5.58.84,7.62,3.12V.48h7.8v42.72h-7.62ZM434.99,18.6c-4.68,0-5.28,3.84-5.28,8.94s.6,9,5.28,9,5.34-3.9,5.34-9-.66-8.94-5.34-8.94Z"/>
        <path class="cls-1" d="M478.49,39.72c-1.92,2.04-5.1,3.84-9.72,3.84s-7.74-1.8-9.66-3.84c-2.82-2.94-3.54-6.48-3.54-12.18s.72-9.18,3.54-12.12c1.92-2.04,5.04-3.84,9.66-3.84s7.8,1.8,9.72,3.84c2.82,2.94,3.54,6.48,3.54,12.12s-.72,9.24-3.54,12.18ZM472.43,19.98c-.9-.9-2.1-1.38-3.66-1.38s-2.7.48-3.6,1.38c-1.62,1.62-1.8,4.32-1.8,7.56s.18,6,1.8,7.62c.9.9,2.04,1.38,3.6,1.38s2.76-.48,3.66-1.38c1.62-1.62,1.8-4.38,1.8-7.62s-.18-5.94-1.8-7.56Z"/>
        <path class="cls-1" d="M525.83,43.2v-18.9c0-4.26-2.7-5.7-5.16-5.7s-5.22,1.44-5.22,5.52v19.08h-7.8v-18.9c0-4.26-2.7-5.7-5.16-5.7s-5.22,1.44-5.22,5.7v18.9h-7.8V11.94h7.62v2.88c2.04-2.1,4.92-3.24,7.8-3.24,3.48,0,6.3,1.26,8.28,3.96,2.64-2.76,5.46-3.96,9.36-3.96,3.12,0,5.94,1.02,7.68,2.76,2.52,2.52,3.42,5.46,3.42,8.88v19.98h-7.8Z"/>
        <path class="cls-1" d="M564.48,4.32l4.56.96c-.38,1.06-.82,2.06-1.3,3.02h12.53v3.98h-6.72c-.03.9-.05,1.78-.05,2.64-.03.26-.05.5-.05.72h7.68v3.98h-8.16v.05c2.88,1.44,5.74,2.93,8.59,4.46l-2.64,3.84h16.56v19.82h-5.42v-1.73h-20.64v1.78h-5.42v-18.86c-1.18.54-2.37,1.06-3.55,1.54l-2.26-4.27c2.27-.74,4.38-1.78,6.34-3.12,1.31-.93,2.35-2.1,3.12-3.5h-8.83v-3.98h2.98l-2.88-2.06c2.34-2.78,4.19-5.87,5.57-9.26ZM568.75,12.29h-3.22c-.74,1.18-1.52,2.3-2.35,3.36h5.47c0-.13.02-.29.05-.48-.03-.96-.02-1.92.05-2.88ZM568.9,26.06c-.93.74-1.92,1.38-2.98,1.92h12.82c-2.46-1.54-4.93-3.04-7.39-4.51-.7.99-1.52,1.86-2.45,2.59ZM569.43,34.99h20.64v-2.93h-20.64v2.93ZM569.43,41.95h20.64v-2.98h-20.64v2.98ZM599.38,8.01v17.38h-16.99V8.01h16.99ZM587.19,20.93h7.44v-8.59h-7.44v8.59Z"/>
        <path class="cls-1" d="M611.57,37.05l4.27,2.35c-1.66,2.91-3.62,5.63-5.86,8.16l-3.79-2.83c2.08-2.34,3.87-4.9,5.38-7.68ZM615.99,7.97v-2.5h4.8v2.5h6.29v3.26h-6.29v1.92h5.9v3.12h-5.9v1.87h6.48v3.26h-6.48v1.82h-4.8v-1.82h-8.93v-3.26h8.93v-1.87h-6.96v-3.12h6.96v-1.92h-7.87v-3.26h7.87ZM640.08,33.41v-1.73h-28.66v-2.83h28.66v-1.78h-29.62v-3.12h34.46v12.62h-2.4c2.14,2.46,4.24,4.96,6.29,7.49l-3.74,2.88c-1.86-2.46-3.74-4.85-5.66-7.15-.1,1.18-.19,2.34-.29,3.46-.13.77-.35,1.52-.67,2.26-.29.58-.71,1.06-1.25,1.44-.48.26-.99.45-1.54.58-.96.19-1.94.29-2.93.29h-9.94c-.99,0-1.97-.1-2.93-.29-.71-.16-1.3-.5-1.78-1.01-.35-.38-.59-.83-.72-1.34-.22-.9-.32-1.81-.29-2.74v-4.8h4.9v3.98c-.06.67.1,1.25.48,1.73.26.22.54.37.86.43.45.1.9.14,1.34.14h6.82c.48,0,.98-.05,1.49-.14.35-.06.67-.19.96-.38.45-.45.67-1.01.67-1.68l.19-3.46,4.27,1.1-.29-.34,3.22-2.45h-12.53c1.22,1.31,2.45,2.59,3.7,3.84l-3.36,2.78-4.85-5.33,1.54-1.3h-16.7v-3.17h30.29ZM635.09,7.97v-2.54h4.61v2.54h7.78v3.26h-7.78v1.92h6.91v3.12h-6.91v1.87h8.74v3.26h-8.74v1.82h-4.61v-1.82h-6.91v-3.26h6.91v-1.87h-6.34v-3.12h6.34v-1.92h-6.77v-3.26h6.77Z"/>
        <path class="cls-1" d="M674.5,12.91c-1.15-2.18-2.32-4.35-3.5-6.53l5.09-1.78,4.22,7.68-1.87.62h15.41v5.18c-4.06,3.94-8.37,7.54-12.91,10.8-4.48,3.3-9.14,6.29-13.97,8.98,1.06,1.12,2.32,1.89,3.79,2.3.96.26,1.92.42,2.88.48,1.31.1,2.62.13,3.94.1h19.87l-1.1,5.23h-18.34c-1.82,0-3.63-.06-5.42-.19-1.34-.13-2.64-.38-3.89-.77-1.92-.64-3.54-1.71-4.85-3.22-.54-.58-1.12-1.12-1.73-1.63-.26.1-.48.24-.67.43-.38.35-.74.72-1.06,1.1-1.18,1.41-2.29,2.88-3.31,4.42l-3.89-4.46c1.54-2.05,3.2-4.03,4.99-5.95.48-.54,1.04-1.02,1.68-1.44.58-.32,1.18-.48,1.82-.48.38,0,.77.06,1.15.19,4.25-2.27,8.4-4.75,12.43-7.44,3.84-2.53,7.49-5.34,10.94-8.45h-27.98v-5.18h16.27Z"/>
        <path class="cls-1" d="M709.35,13.68v34.13h-5.28V13.68h5.28ZM708.91,4.51c2.66,2.3,5.25,4.69,7.78,7.15l-3.89,4.03c-2.43-2.59-4.93-5.12-7.49-7.58l3.6-3.6ZM743.28,7.73v33.12c0,1.25-.14,2.45-.43,3.6-.19.64-.5,1.22-.91,1.73-.64.61-1.39,1.01-2.26,1.2-1.22.22-2.45.34-3.7.34h-6.29l-1.1-5.33h5.62c.64.03,1.3-.02,1.97-.14.42-.06.78-.24,1.1-.53.19-.26.34-.54.43-.86.13-.58.19-1.18.19-1.82V12.77h-20.35v-5.04h25.73Z"/>
      </g>
      <g>
        <path class="cls-1" d="M129.07,93.17v-10.73h-8.67v10.73h-5v-25.63h5v10.47h8.67v-10.47h5v25.63h-5Z"/>
        <path class="cls-1" d="M149.3,93.17v-1.62c-1.26,1.26-2.45,1.8-4.61,1.8s-3.67-.54-4.79-1.66c-1.01-1.04-1.55-2.56-1.55-4.21,0-2.99,2.05-5.44,6.41-5.44h4.43v-.94c0-2.05-1.01-2.95-3.49-2.95-1.8,0-2.63.43-3.6,1.55l-2.99-2.92c1.84-2.02,3.64-2.59,6.77-2.59,5.25,0,7.99,2.23,7.99,6.62v12.35h-4.57ZM149.19,85.25h-3.71c-1.69,0-2.63.79-2.63,2.12s.86,2.16,2.7,2.16c1.3,0,2.12-.11,2.95-.9.5-.47.68-1.22.68-2.38v-1.01Z"/>
        <path class="cls-1" d="M172.7,91.7c-1.04,1.04-2.74,1.69-4.57,1.69s-3.31-.5-4.54-1.87v8.53h-4.68v-25.63h4.54v1.76c1.3-1.44,2.7-1.98,4.68-1.98,1.84,0,3.53.65,4.57,1.69,1.87,1.87,1.91,5.08,1.91,7.88s-.04,6.05-1.91,7.92ZM166.76,78.41c-2.81,0-3.17,2.3-3.17,5.36s.36,5.4,3.17,5.4,3.17-2.34,3.17-5.4-.36-5.36-3.17-5.36Z"/>
        <path class="cls-1" d="M192.86,91.7c-1.04,1.04-2.74,1.69-4.57,1.69s-3.31-.5-4.54-1.87v8.53h-4.68v-25.63h4.54v1.76c1.3-1.44,2.7-1.98,4.68-1.98,1.84,0,3.53.65,4.57,1.69,1.87,1.87,1.91,5.08,1.91,7.88s-.04,6.05-1.91,7.92ZM186.92,78.41c-2.81,0-3.17,2.3-3.17,5.36s.36,5.4,3.17,5.4,3.17-2.34,3.17-5.4-.36-5.36-3.17-5.36Z"/>
        <path class="cls-1" d="M206.22,96.19c-.4,1.04-.83,1.84-1.4,2.41-1.08,1.08-2.48,1.44-4.03,1.44h-1.84v-4.21h1.08c1.33,0,1.87-.32,2.34-1.69l.79-2.3-6.41-17.42h4.93l3.89,11.59,3.74-11.59h4.93l-8.03,21.78Z"/>
        <path class="cls-1" d="M241.53,90.47c-2.05,2.12-4.5,2.92-7.24,2.92s-5.11-1.01-6.91-2.81c-2.59-2.59-2.52-5.79-2.52-10.22s-.07-7.63,2.52-10.22c1.8-1.8,4.03-2.81,6.91-2.81,5.94,0,8.96,3.89,9.65,8.21h-5.04c-.58-2.41-2.05-3.74-4.61-3.74-1.37,0-2.48.54-3.2,1.37-.97,1.08-1.22,2.27-1.22,7.2s.25,6.16,1.22,7.24c.72.83,1.84,1.33,3.2,1.33,1.51,0,2.74-.54,3.56-1.44.83-.94,1.15-2.09,1.15-3.42v-.97h-4.71v-4.18h9.68v3.74c0,3.71-.65,5.94-2.45,7.81Z"/>
        <path class="cls-1" d="M258.88,79.53c-.72-.72-1.33-1.12-2.48-1.12-1.44,0-3.02,1.08-3.02,3.46v11.3h-4.68v-18.75h4.57v1.8c.9-1.08,2.7-2.02,4.71-2.02,1.84,0,3.13.47,4.43,1.76l-3.53,3.56Z"/>
        <path class="cls-1" d="M274.33,93.17v-1.62c-1.26,1.26-2.45,1.8-4.61,1.8s-3.67-.54-4.79-1.66c-1.01-1.04-1.55-2.56-1.55-4.21,0-2.99,2.05-5.44,6.41-5.44h4.43v-.94c0-2.05-1.01-2.95-3.49-2.95-1.8,0-2.63.43-3.6,1.55l-2.99-2.92c1.84-2.02,3.64-2.59,6.77-2.59,5.25,0,7.99,2.23,7.99,6.62v12.35h-4.57ZM274.22,85.25h-3.71c-1.69,0-2.63.79-2.63,2.12s.86,2.16,2.7,2.16c1.3,0,2.12-.11,2.95-.9.5-.47.68-1.22.68-2.38v-1.01Z"/>
        <path class="cls-1" d="M294.31,93.17v-1.76c-1.3,1.44-2.66,1.98-4.64,1.98-1.83,0-3.56-.65-4.61-1.69-1.87-1.87-1.91-5.11-1.91-7.92s.04-6.01,1.91-7.88c1.04-1.04,2.74-1.69,4.57-1.69s3.35.5,4.57,1.87v-8.53h4.68v25.63h-4.57ZM290.99,78.41c-2.81,0-3.17,2.3-3.17,5.36s.36,5.4,3.17,5.4,3.2-2.34,3.2-5.4-.4-5.36-3.2-5.36Z"/>
        <path class="cls-1" d="M314.93,93.17v-1.73c-1.22,1.3-2.95,1.94-4.68,1.94-1.87,0-3.38-.61-4.43-1.66-1.51-1.51-1.91-3.28-1.91-5.33v-11.99h4.68v11.34c0,2.56,1.62,3.42,3.1,3.42s3.13-.86,3.13-3.42v-11.34h4.68v18.75h-4.57Z"/>
        <path class="cls-1" d="M334.37,93.17v-1.62c-1.26,1.26-2.45,1.8-4.61,1.8s-3.67-.54-4.79-1.66c-1.01-1.04-1.55-2.56-1.55-4.21,0-2.99,2.05-5.44,6.41-5.44h4.43v-.94c0-2.05-1.01-2.95-3.49-2.95-1.8,0-2.63.43-3.6,1.55l-2.99-2.92c1.84-2.02,3.64-2.59,6.77-2.59,5.25,0,7.99,2.23,7.99,6.62v12.35h-4.57ZM334.27,85.25h-3.71c-1.69,0-2.63.79-2.63,2.12s.86,2.16,2.7,2.16c1.3,0,2.12-.11,2.95-.9.5-.47.68-1.22.68-2.38v-1.01Z"/>
        <path class="cls-1" d="M349.85,93.17c-3.82,0-5.44-2.7-5.44-5.36v-9.29h-1.98v-3.56h1.98v-5.54h4.68v5.54h3.31v3.56h-3.31v9c0,1.08.5,1.69,1.62,1.69h1.69v3.96h-2.56Z"/>
        <path class="cls-1" d="M356.59,71.21v-3.82h4.79v3.82h-4.79ZM356.66,93.17v-18.75h4.68v18.75h-4.68Z"/>
        <path class="cls-1" d="M379.52,91.08c-1.15,1.22-3.06,2.3-5.83,2.3s-4.64-1.08-5.79-2.3c-1.69-1.76-2.12-3.89-2.12-7.31s.43-5.51,2.12-7.27c1.15-1.22,3.02-2.3,5.79-2.3s4.68,1.08,5.83,2.3c1.69,1.76,2.12,3.89,2.12,7.27s-.43,5.54-2.12,7.31ZM375.88,79.24c-.54-.54-1.26-.83-2.2-.83s-1.62.29-2.16.83c-.97.97-1.08,2.59-1.08,4.54s.11,3.6,1.08,4.57c.54.54,1.22.83,2.16.83s1.66-.29,2.2-.83c.97-.97,1.08-2.63,1.08-4.57s-.11-3.56-1.08-4.54Z"/>
        <path class="cls-1" d="M397.01,93.17v-11.34c0-2.56-1.62-3.42-3.1-3.42s-3.13.86-3.13,3.42v11.34h-4.68v-18.75h4.57v1.73c1.22-1.3,2.95-1.94,4.68-1.94,1.87,0,3.38.61,4.43,1.66,1.51,1.51,1.91,3.28,1.91,5.33v11.99h-4.68Z"/>
        <path class="cls-1" d="M414.58,93.17v-4.21l9.57-11.12c.94-1.12,1.33-1.91,1.33-3.1,0-1.91-1.12-3.2-3.1-3.2-1.55,0-3.13.79-3.13,3.28h-4.68c0-4.68,3.42-7.49,7.81-7.49s7.78,2.84,7.78,7.45c0,2.48-.97,3.82-2.74,5.87l-7.16,8.31h9.9v4.21h-15.59Z"/>
        <path class="cls-1" d="M441.8,93.39c-4.18,0-7.81-2.74-7.81-7.63v-10.8c0-4.9,3.64-7.63,7.81-7.63s7.77,2.74,7.77,7.63v10.8c0,4.9-3.6,7.63-7.77,7.63ZM444.89,75.03c0-2.16-1.26-3.49-3.1-3.49s-3.13,1.33-3.13,3.49v10.69c0,2.16,1.3,3.46,3.13,3.46s3.1-1.3,3.1-3.46v-10.69Z"/>
        <path class="cls-1" d="M453.68,93.17v-4.21l9.57-11.12c.94-1.12,1.33-1.91,1.33-3.1,0-1.91-1.12-3.2-3.1-3.2-1.55,0-3.13.79-3.13,3.28h-4.68c0-4.68,3.42-7.49,7.81-7.49s7.78,2.84,7.78,7.45c0,2.48-.97,3.82-2.74,5.87l-7.16,8.31h9.9v4.21h-15.59Z"/>
        <path class="cls-1" d="M487.19,89.54v3.64h-4.5v-3.64h-10.47v-4.43l8.78-17.57h5.11l-8.78,17.57h5.36v-4.79h4.5v4.79h2.34v4.43h-2.34Z"/>
        <path class="cls-1" d="M502.96,95.83v-30.96h4.68v30.96h-4.68Z"/>
        <path class="cls-1" d="M539,82.62v4.64h14.98v1.94h-14.98v7.6h-2.02v-7.6h-14.98v-1.94h14.98v-4.64h2.02ZM526.33,80.61c.17-.24.25-.53.25-.86v-15.01h2.02v5.9h8.86v1.87h-8.86v7.63c2.98-1.03,5.95-2.09,8.93-3.17l.14,1.91c-3.1,1.1-6.17,2.2-9.22,3.28-.72.24-1.4.53-2.05.86l-.9-1.8c.31-.14.59-.35.83-.61ZM541.34,64.66v7.78c1.92-.91,3.82-1.88,5.69-2.92,1.51-.79,2.98-1.67,4.39-2.63l1.04,1.76c-1.61,1.06-3.26,2.02-4.97,2.88-2.02,1.06-4.07,2.05-6.16,2.99v2.84c-.02.36,0,.72.07,1.08.07.34.22.65.43.94.22.22.48.37.79.47.36.1.74.13,1.15.11h4.72c.46.02.9-.01,1.33-.11.34-.1.62-.25.86-.47.17-.19.29-.41.36-.65.14-.43.23-.88.25-1.33.05-1.34.09-2.71.14-4.1l1.87.36c-.05,1.54-.12,3.05-.22,4.54-.05.65-.19,1.26-.43,1.84-.14.34-.35.64-.61.9-.41.31-.85.53-1.33.65-.67.14-1.33.2-1.98.18h-5.9c-.55.02-1.08-.04-1.58-.18-.43-.14-.82-.4-1.15-.76-.31-.38-.53-.83-.65-1.33-.12-.5-.17-1.02-.14-1.55v-13.28h2.02Z"/>
        <path class="cls-1" d="M568.8,92.6v-27.79h2.12v27.79h6.12v-27.79h2.12v27.79h10.87v2.02h-32.15v-2.02h10.91ZM561.03,70.82c2.21,4.87,4.36,9.77,6.44,14.69l-2.02.94c-2.02-4.94-4.13-9.86-6.34-14.76l1.91-.86ZM586.99,70.96l1.98.83c-2.06,5.02-4.27,9.94-6.62,14.76l-1.91-.97c2.38-4.78,4.56-9.65,6.55-14.62Z"/>
        <path class="cls-1" d="M595.12,70.24l1.84.18c-.53,4.32-1.19,8.59-1.98,12.82l-1.91-.29c.91-4.18,1.6-8.41,2.05-12.71ZM600.52,64.55v32.04h-1.91v-32.04h1.91ZM602.39,70.17c1.37,2.16,2.74,4.33,4.1,6.52l-1.55,1.15c-1.32-2.18-2.66-4.36-4.03-6.52l1.48-1.15ZM612.62,81.26c0-.34.01-.68.04-1.04,0-2.57.01-5.16.04-7.78h-6.73v-1.91h6.73c-.02-1.99-.01-3.98.04-5.98h1.91c0,2.02-.01,4.01-.04,5.98h8.03v10.73h3.82v1.91h-11.45c.84,2.81,2.29,5.24,4.36,7.31,1.13,1.03,2.35,1.93,3.67,2.7,1.1.65,2.25,1.22,3.46,1.73l-1.01,1.8c-2.57-1.1-4.88-2.57-6.95-4.39-2.11-1.99-3.68-4.36-4.72-7.09-.7,2.21-1.84,4.16-3.42,5.87-1.03,1.08-2.15,2.05-3.35,2.92-1.44,1.06-2.93,2.03-4.46,2.92l-1.08-1.73c1.58-.86,3.11-1.8,4.57-2.81,1.2-.89,2.29-1.9,3.28-3.02,1.54-1.8,2.54-3.86,3.02-6.19h-9.07v-1.91h9.32ZM614.6,72.44c-.02,2.57-.04,5.12-.04,7.67-.02.41-.04.79-.04,1.15h6.16v-8.82h-6.08Z"/>
        <path class="cls-1" d="M637.92,83.49l1.76,1.12c-2.57,3.74-5.47,7.18-8.71,10.3l-1.62-1.37c3.22-3.02,6.07-6.37,8.57-10.04ZM634.11,67.76c8.06-.31,16.09-1.06,24.08-2.23l.43,2.02c-7.51,1.08-15.04,1.8-22.57,2.16l-1.15,9.29h10.48v-7.99h2.16v7.99h13.18v1.98h-13.18v11.23c0,.65-.08,1.3-.25,1.94-.12.36-.3.67-.54.94-.38.36-.83.59-1.33.68-.72.14-1.44.22-2.16.22h-4.18l-.43-2.02h3.96c.48,0,.97-.04,1.48-.11.24-.07.47-.17.68-.29.24-.17.4-.38.47-.65.1-.41.14-.83.14-1.26v-10.69h-12.82l1.55-13.21ZM653.19,83.56c3,3.29,5.98,6.59,8.93,9.9l-1.73,1.37c-2.9-3.36-5.84-6.68-8.82-9.97l1.62-1.3Z"/>
      </g>
    </g>
  </g>
</svg>