<?xml version="1.0" encoding="UTF-8"?>
<svg id="_图层_2" data-name="图层 2" xmlns="http://www.w3.org/2000/svg" viewBox="0 0 546.73 98.93">
  <defs>
    <style>
      .cls-1 {
        fill: #242a74;
        stroke-width: 0px;
      }
    </style>
  </defs>
  <g id="_图层_1-2" data-name="图层 1">
    <g>
      <g>
        <path class="cls-1" d="M152.42,42.72l-8.28-14.88-8.22,14.88h-9.54l13.26-21.9L127.22,0h9.48l7.44,13.8,7.5-13.8h9.42l-12.42,20.82,13.32,21.9h-9.54Z"/>
        <path class="cls-1" d="M199.04,42.72h-17.88V0h17.16c8.34,0,13.2,4.68,13.2,12,0,4.74-3.12,7.8-5.28,8.82,2.58,1.2,5.88,3.9,5.88,9.6,0,7.98-5.46,12.3-13.08,12.3ZM197.66,7.44h-8.16v9.84h8.16c3.54,0,5.52-1.98,5.52-4.92s-1.98-4.92-5.52-4.92ZM198.2,24.78h-8.7v10.5h8.7c3.78,0,5.58-2.4,5.58-5.28s-1.8-5.22-5.58-5.22Z"/>
        <path class="cls-1" d="M236.06,42.72v-2.7c-2.1,2.1-4.08,3-7.68,3s-6.12-.9-7.98-2.76c-1.68-1.74-2.58-4.26-2.58-7.02,0-4.98,3.42-9.06,10.68-9.06h7.38v-1.56c0-3.42-1.68-4.92-5.82-4.92-3,0-4.38.72-6,2.58l-4.98-4.86c3.06-3.36,6.06-4.32,11.28-4.32,8.76,0,13.32,3.72,13.32,11.04v20.58h-7.62ZM235.88,29.52h-6.18c-2.82,0-4.38,1.32-4.38,3.54s1.44,3.6,4.5,3.6c2.16,0,3.54-.18,4.92-1.5.84-.78,1.14-2.04,1.14-3.96v-1.68Z"/>
        <path class="cls-1" d="M269.06,19.98c-1.2-1.2-2.22-1.86-4.14-1.86-2.4,0-5.04,1.8-5.04,5.76v18.84h-7.8V11.46h7.62v3c1.5-1.8,4.5-3.36,7.86-3.36,3.06,0,5.22.78,7.38,2.94l-5.88,5.94Z"/>
        <path class="cls-1" d="M300.91,36.57l4.27,2.35c-1.66,2.91-3.62,5.63-5.86,8.16l-3.79-2.83c2.08-2.34,3.87-4.9,5.38-7.68ZM305.33,7.49v-2.5h4.8v2.5h6.29v3.26h-6.29v1.92h5.9v3.12h-5.9v1.87h6.48v3.26h-6.48v1.82h-4.8v-1.82h-8.93v-3.26h8.93v-1.87h-6.96v-3.12h6.96v-1.92h-7.87v-3.26h7.87ZM329.42,32.93v-1.73h-28.66v-2.83h28.66v-1.78h-29.62v-3.12h34.46v12.62h-2.4c2.14,2.46,4.24,4.96,6.29,7.49l-3.74,2.88c-1.86-2.46-3.74-4.85-5.66-7.15-.1,1.18-.19,2.34-.29,3.46-.13.77-.35,1.52-.67,2.26-.29.58-.7,1.06-1.25,1.44-.48.25-.99.45-1.54.58-.96.19-1.94.29-2.93.29h-9.94c-.99,0-1.97-.1-2.93-.29-.7-.16-1.3-.5-1.78-1.01-.35-.38-.59-.83-.72-1.34-.22-.9-.32-1.81-.29-2.74v-4.8h4.9v3.98c-.06.67.1,1.25.48,1.73.26.22.54.37.86.43.45.1.9.14,1.34.14h6.82c.48,0,.98-.05,1.49-.14.35-.06.67-.19.96-.38.45-.45.67-1.01.67-1.68l.19-3.46,4.27,1.1-.29-.34,3.22-2.45h-12.53c1.22,1.31,2.45,2.59,3.7,3.84l-3.36,2.78-4.85-5.33,1.54-1.3h-16.7v-3.17h30.29ZM324.43,7.49v-2.54h4.61v2.54h7.78v3.26h-7.78v1.92h6.91v3.12h-6.91v1.87h8.74v3.26h-8.74v1.82h-4.61v-1.82h-6.91v-3.26h6.91v-1.87h-6.34v-3.12h6.34v-1.92h-6.77v-3.26h6.77Z"/>
        <path class="cls-1" d="M357.79,8.4v30.05h-8.21v2.74h-4.7V8.4h12.91ZM349.58,33.31h3.65V13.34h-3.65v19.97ZM384.1,6.81v21.6h-19.06v9.7c-.03.64.02,1.26.14,1.87.1.32.24.61.43.86.29.29.64.48,1.06.58.54.13,1.12.18,1.73.14h9.12c.58.03,1.17-.02,1.78-.14.32-.06.61-.18.86-.34.32-.26.54-.56.67-.91.13-.51.21-1.04.24-1.58l.14-5.81,4.99,1.06c-.1,2.24-.21,4.46-.34,6.67-.03,1.06-.22,2.05-.58,2.98-.22.58-.54,1.09-.96,1.54-.64.54-1.38.91-2.21,1.1-1.12.25-2.24.38-3.36.38h-12c-1.12,0-2.22-.14-3.31-.43-.8-.26-1.49-.7-2.06-1.34-.42-.54-.7-1.15-.86-1.82-.29-1.15-.42-2.33-.38-3.55V6.81h23.95ZM365.04,23.28h4.56v-11.47h-4.56v11.47ZM374.4,11.81v11.47h4.71v-11.47h-4.71Z"/>
      </g>
      <g>
        <path class="cls-1" d="M13.68,92.05v-10.73H5v10.73H0v-25.63h5v10.47h8.67v-10.47h5v25.63h-5Z"/>
        <path class="cls-1" d="M33.91,92.05v-1.62c-1.26,1.26-2.45,1.8-4.61,1.8s-3.67-.54-4.79-1.66c-1.01-1.04-1.55-2.56-1.55-4.21,0-2.99,2.05-5.44,6.41-5.44h4.43v-.94c0-2.05-1.01-2.95-3.49-2.95-1.8,0-2.63.43-3.6,1.55l-2.99-2.92c1.84-2.02,3.64-2.59,6.77-2.59,5.25,0,7.99,2.23,7.99,6.62v12.35h-4.57ZM33.8,84.13h-3.71c-1.69,0-2.63.79-2.63,2.12s.86,2.16,2.7,2.16c1.3,0,2.12-.11,2.95-.9.5-.47.68-1.22.68-2.38v-1.01Z"/>
        <path class="cls-1" d="M57.31,90.58c-1.04,1.04-2.74,1.69-4.57,1.69s-3.31-.5-4.54-1.87v8.53h-4.68v-25.63h4.54v1.76c1.3-1.44,2.7-1.98,4.68-1.98,1.84,0,3.53.65,4.57,1.69,1.87,1.87,1.91,5.08,1.91,7.88s-.04,6.05-1.91,7.92ZM51.37,77.29c-2.81,0-3.17,2.3-3.17,5.36s.36,5.4,3.17,5.4,3.17-2.34,3.17-5.4-.36-5.36-3.17-5.36Z"/>
        <path class="cls-1" d="M77.47,90.58c-1.04,1.04-2.74,1.69-4.57,1.69s-3.31-.5-4.54-1.87v8.53h-4.68v-25.63h4.54v1.76c1.3-1.44,2.7-1.98,4.68-1.98,1.84,0,3.53.65,4.57,1.69,1.87,1.87,1.91,5.08,1.91,7.88s-.04,6.05-1.91,7.92ZM71.53,77.29c-2.81,0-3.17,2.3-3.17,5.36s.36,5.4,3.17,5.4,3.17-2.34,3.17-5.4-.36-5.36-3.17-5.36Z"/>
        <path class="cls-1" d="M90.83,95.08c-.4,1.04-.83,1.84-1.4,2.41-1.08,1.08-2.48,1.44-4.03,1.44h-1.84v-4.21h1.08c1.33,0,1.87-.32,2.34-1.69l.79-2.3-6.41-17.42h4.93l3.89,11.59,3.74-11.59h4.93l-8.03,21.78Z"/>
        <path class="cls-1" d="M126.14,89.35c-2.05,2.12-4.5,2.92-7.24,2.92s-5.11-1.01-6.91-2.81c-2.59-2.59-2.52-5.79-2.52-10.22s-.07-7.63,2.52-10.22c1.8-1.8,4.03-2.81,6.91-2.81,5.94,0,8.96,3.89,9.65,8.21h-5.04c-.58-2.41-2.05-3.74-4.61-3.74-1.37,0-2.48.54-3.2,1.37-.97,1.08-1.22,2.27-1.22,7.2s.25,6.16,1.22,7.24c.72.83,1.84,1.33,3.2,1.33,1.51,0,2.74-.54,3.56-1.44.83-.94,1.15-2.09,1.15-3.42v-.97h-4.71v-4.18h9.68v3.74c0,3.71-.65,5.94-2.45,7.81Z"/>
        <path class="cls-1" d="M143.49,78.41c-.72-.72-1.33-1.12-2.48-1.12-1.44,0-3.02,1.08-3.02,3.46v11.3h-4.68v-18.75h4.57v1.8c.9-1.08,2.7-2.02,4.71-2.02,1.84,0,3.13.47,4.43,1.76l-3.53,3.56Z"/>
        <path class="cls-1" d="M158.94,92.05v-1.62c-1.26,1.26-2.45,1.8-4.61,1.8s-3.67-.54-4.79-1.66c-1.01-1.04-1.55-2.56-1.55-4.21,0-2.99,2.05-5.44,6.41-5.44h4.43v-.94c0-2.05-1.01-2.95-3.49-2.95-1.8,0-2.63.43-3.6,1.55l-2.99-2.92c1.84-2.02,3.64-2.59,6.77-2.59,5.25,0,7.99,2.23,7.99,6.62v12.35h-4.57ZM158.83,84.13h-3.71c-1.69,0-2.63.79-2.63,2.12s.86,2.16,2.7,2.16c1.3,0,2.12-.11,2.95-.9.5-.47.68-1.22.68-2.38v-1.01Z"/>
        <path class="cls-1" d="M178.92,92.05v-1.76c-1.3,1.44-2.66,1.98-4.64,1.98-1.83,0-3.56-.65-4.61-1.69-1.87-1.87-1.91-5.11-1.91-7.92s.04-6.01,1.91-7.88c1.04-1.04,2.74-1.69,4.57-1.69s3.35.5,4.57,1.87v-8.53h4.68v25.63h-4.57ZM175.61,77.29c-2.81,0-3.17,2.3-3.17,5.36s.36,5.4,3.17,5.4,3.2-2.34,3.2-5.4-.4-5.36-3.2-5.36Z"/>
        <path class="cls-1" d="M199.55,92.05v-1.73c-1.22,1.3-2.95,1.94-4.68,1.94-1.87,0-3.38-.61-4.43-1.66-1.51-1.51-1.91-3.28-1.91-5.33v-11.99h4.68v11.34c0,2.56,1.62,3.42,3.1,3.42s3.13-.86,3.13-3.42v-11.34h4.68v18.75h-4.57Z"/>
        <path class="cls-1" d="M218.99,92.05v-1.62c-1.26,1.26-2.45,1.8-4.61,1.8s-3.67-.54-4.79-1.66c-1.01-1.04-1.55-2.56-1.55-4.21,0-2.99,2.05-5.44,6.41-5.44h4.43v-.94c0-2.05-1.01-2.95-3.49-2.95-1.8,0-2.63.43-3.6,1.55l-2.99-2.92c1.84-2.02,3.64-2.59,6.77-2.59,5.25,0,7.99,2.23,7.99,6.62v12.35h-4.57ZM218.88,84.13h-3.71c-1.69,0-2.63.79-2.63,2.12s.86,2.16,2.7,2.16c1.3,0,2.12-.11,2.95-.9.5-.47.68-1.22.68-2.38v-1.01Z"/>
        <path class="cls-1" d="M234.47,92.05c-3.82,0-5.44-2.7-5.44-5.36v-9.29h-1.98v-3.56h1.98v-5.54h4.68v5.54h3.31v3.56h-3.31v9c0,1.08.5,1.69,1.62,1.69h1.69v3.96h-2.56Z"/>
        <path class="cls-1" d="M241.2,70.1v-3.82h4.79v3.82h-4.79ZM241.27,92.05v-18.75h4.68v18.75h-4.68Z"/>
        <path class="cls-1" d="M264.13,89.97c-1.15,1.22-3.06,2.3-5.83,2.3s-4.64-1.08-5.79-2.3c-1.69-1.76-2.12-3.89-2.12-7.31s.43-5.51,2.12-7.27c1.15-1.22,3.02-2.3,5.79-2.3s4.68,1.08,5.83,2.3c1.69,1.76,2.12,3.89,2.12,7.27s-.43,5.54-2.12,7.31ZM260.49,78.12c-.54-.54-1.26-.83-2.2-.83s-1.62.29-2.16.83c-.97.97-1.08,2.59-1.08,4.54s.11,3.6,1.08,4.57c.54.54,1.22.83,2.16.83s1.66-.29,2.2-.83c.97-.97,1.08-2.63,1.08-4.57s-.11-3.56-1.08-4.54Z"/>
        <path class="cls-1" d="M281.62,92.05v-11.34c0-2.56-1.62-3.42-3.1-3.42s-3.13.86-3.13,3.42v11.34h-4.68v-18.75h4.57v1.73c1.22-1.3,2.95-1.94,4.68-1.94,1.87,0,3.38.61,4.43,1.66,1.51,1.51,1.91,3.28,1.91,5.33v11.99h-4.68Z"/>
        <path class="cls-1" d="M299.19,92.05v-4.21l9.57-11.12c.94-1.12,1.33-1.91,1.33-3.1,0-1.91-1.12-3.2-3.1-3.2-1.55,0-3.13.79-3.13,3.28h-4.68c0-4.68,3.42-7.49,7.81-7.49s7.78,2.84,7.78,7.45c0,2.48-.97,3.82-2.74,5.87l-7.16,8.31h9.9v4.21h-15.59Z"/>
        <path class="cls-1" d="M326.41,92.27c-4.18,0-7.81-2.74-7.81-7.63v-10.8c0-4.9,3.64-7.63,7.81-7.63s7.77,2.74,7.77,7.63v10.8c0,4.9-3.6,7.63-7.77,7.63ZM329.5,73.91c0-2.16-1.26-3.49-3.1-3.49s-3.13,1.33-3.13,3.49v10.69c0,2.16,1.3,3.46,3.13,3.46s3.1-1.3,3.1-3.46v-10.69Z"/>
        <path class="cls-1" d="M338.29,92.05v-4.21l9.57-11.12c.94-1.12,1.33-1.91,1.33-3.1,0-1.91-1.12-3.2-3.1-3.2-1.55,0-3.13.79-3.13,3.28h-4.68c0-4.68,3.42-7.49,7.81-7.49s7.78,2.84,7.78,7.45c0,2.48-.97,3.82-2.74,5.87l-7.16,8.31h9.9v4.21h-15.59Z"/>
        <path class="cls-1" d="M371.8,88.42v3.64h-4.5v-3.64h-10.47v-4.43l8.78-17.57h5.11l-8.78,17.57h5.36v-4.79h4.5v4.79h2.34v4.43h-2.34Z"/>
        <path class="cls-1" d="M387.57,94.72v-30.96h4.68v30.96h-4.68Z"/>
        <path class="cls-1" d="M423.61,81.51v4.64h14.98v1.94h-14.98v7.6h-2.02v-7.6h-14.98v-1.94h14.98v-4.64h2.02ZM410.94,79.49c.17-.24.25-.53.25-.86v-15.01h2.02v5.9h8.86v1.87h-8.86v7.63c2.98-1.03,5.95-2.09,8.93-3.17l.14,1.91c-3.1,1.1-6.17,2.2-9.22,3.28-.72.24-1.4.53-2.05.86l-.9-1.8c.31-.14.59-.35.83-.61ZM425.95,63.54v7.78c1.92-.91,3.82-1.88,5.69-2.92,1.51-.79,2.98-1.67,4.39-2.63l1.04,1.76c-1.61,1.06-3.26,2.02-4.97,2.88-2.02,1.06-4.07,2.05-6.16,2.99v2.84c-.02.36,0,.72.07,1.08.07.34.22.65.43.94.22.22.48.37.79.47.36.1.74.13,1.15.11h4.72c.46.02.9-.01,1.33-.11.34-.1.62-.25.86-.47.17-.19.29-.41.36-.65.14-.43.23-.88.25-1.33.05-1.34.09-2.71.14-4.1l1.87.36c-.05,1.54-.12,3.05-.22,4.54-.05.65-.19,1.26-.43,1.84-.14.34-.35.64-.61.9-.41.31-.85.53-1.33.65-.67.14-1.33.2-1.98.18h-5.9c-.55.02-1.08-.04-1.58-.18-.43-.14-.82-.4-1.15-.76-.31-.38-.53-.83-.65-1.33-.12-.5-.17-1.02-.14-1.55v-13.28h2.02Z"/>
        <path class="cls-1" d="M453.42,91.48v-27.79h2.12v27.79h6.12v-27.79h2.12v27.79h10.87v2.02h-32.15v-2.02h10.91ZM445.64,69.7c2.21,4.87,4.36,9.77,6.44,14.69l-2.02.94c-2.02-4.94-4.13-9.86-6.34-14.76l1.91-.86ZM471.6,69.84l1.98.83c-2.06,5.02-4.27,9.94-6.62,14.76l-1.91-.97c2.38-4.78,4.56-9.65,6.55-14.62Z"/>
        <path class="cls-1" d="M479.73,69.12l1.84.18c-.53,4.32-1.19,8.59-1.98,12.82l-1.91-.29c.91-4.18,1.6-8.41,2.05-12.71ZM485.13,63.43v32.04h-1.91v-32.04h1.91ZM487,69.05c1.37,2.16,2.74,4.33,4.1,6.52l-1.55,1.15c-1.32-2.18-2.66-4.36-4.03-6.52l1.48-1.15ZM497.23,80.14c0-.34.01-.68.04-1.04,0-2.57.01-5.16.04-7.78h-6.73v-1.91h6.73c-.02-1.99-.01-3.98.04-5.98h1.91c0,2.02-.01,4.01-.04,5.98h8.03v10.73h3.82v1.91h-11.45c.84,2.81,2.29,5.24,4.36,7.31,1.13,1.03,2.35,1.93,3.67,2.7,1.1.65,2.25,1.22,3.46,1.73l-1.01,1.8c-2.57-1.1-4.88-2.57-6.95-4.39-2.11-1.99-3.68-4.36-4.72-7.09-.7,2.21-1.84,4.16-3.42,5.87-1.03,1.08-2.15,2.05-3.35,2.92-1.44,1.06-2.93,2.03-4.46,2.92l-1.08-1.73c1.58-.86,3.11-1.8,4.57-2.81,1.2-.89,2.29-1.9,3.28-3.02,1.54-1.8,2.54-3.86,3.02-6.19h-9.07v-1.91h9.32ZM499.21,71.32c-.02,2.57-.04,5.12-.04,7.67-.02.41-.04.79-.04,1.15h6.16v-8.82h-6.08Z"/>
        <path class="cls-1" d="M522.54,82.37l1.76,1.12c-2.57,3.74-5.47,7.18-8.71,10.3l-1.62-1.37c3.22-3.02,6.07-6.37,8.57-10.04ZM518.72,66.64c8.06-.31,16.09-1.06,24.08-2.23l.43,2.02c-7.51,1.08-15.04,1.8-22.57,2.16l-1.15,9.29h10.48v-7.99h2.16v7.99h13.18v1.98h-13.18v11.23c0,.65-.08,1.3-.25,1.94-.12.36-.3.67-.54.94-.38.36-.83.59-1.33.68-.72.14-1.44.22-2.16.22h-4.18l-.43-2.02h3.96c.48,0,.97-.04,1.48-.11.24-.07.47-.17.68-.29.24-.17.4-.38.47-.65.1-.41.14-.83.14-1.26v-10.69h-12.82l1.55-13.21ZM537.8,82.44c3,3.29,5.98,6.59,8.93,9.9l-1.73,1.37c-2.9-3.36-5.84-6.68-8.82-9.97l1.62-1.3Z"/>
      </g>
    </g>
  </g>
</svg>